# Blender v2.73 (sub 0) OBJ File: ''
# www.blender.org
mtllib beergarden_bench.mtl
o beergarden_bench
v -1.902270 0.000000 -1.048225
v -1.902270 0.589001 -1.048225
v -1.973284 0.000000 -1.048225
v -1.973284 0.589001 -1.048225
v -1.902270 0.000000 -1.119239
v -1.902270 0.589001 -1.119238
v -1.902270 0.000000 -1.048225
v -1.902270 0.589001 -1.048225
v -1.973284 0.000000 -1.119239
v -1.973284 0.589001 -1.119238
v -1.902270 0.000000 -1.119239
v -1.902270 0.589001 -1.119238
v -1.973284 0.000000 -1.048225
v -1.973284 0.589001 -1.048225
v -1.973284 0.000000 -1.119239
v -1.973284 0.589001 -1.119238
v -1.902270 0.000000 -0.771689
v -1.902270 0.589001 -0.771689
v -1.973284 0.000000 -0.771689
v -1.973284 0.589001 -0.771689
v -1.902270 0.000000 -0.842703
v -1.902270 0.589001 -0.842703
v -1.902270 0.000000 -0.771689
v -1.902270 0.589001 -0.771689
v -1.973284 0.000000 -0.842703
v -1.973284 0.589001 -0.842703
v -1.902270 0.000000 -0.842703
v -1.902270 0.589001 -0.842703
v -1.973284 0.000000 -0.771689
v -1.973284 0.589001 -0.771689
v -1.973284 0.000000 -0.842703
v -1.973284 0.589001 -0.842703
v -2.359288 0.651317 -0.707109
v 2.359288 0.651317 -0.707109
v -2.359288 0.651317 -1.178345
v 2.359288 0.651317 -1.178345
v -2.373768 0.636837 -1.192825
v -2.373768 0.589001 -1.192825
v -2.373768 0.636837 -0.692629
v -2.373768 0.589001 -0.692629
v 2.373768 0.636837 -1.192825
v 2.373768 0.589001 -1.192825
v -2.373768 0.636837 -1.192825
v -2.373768 0.589001 -1.192825
v 2.373768 0.636837 -0.692629
v 2.373768 0.589001 -0.692629
v 2.373768 0.636837 -1.192825
v 2.373768 0.589001 -1.192825
v -2.373768 0.636837 -0.692629
v -2.373768 0.589001 -0.692629
v 2.373768 0.636837 -0.692629
v 2.373768 0.589001 -0.692629
v -2.373768 0.636837 -1.192825
v -2.373768 0.636837 -0.692629
v -2.359288 0.651317 -1.178345
v -2.359288 0.651317 -0.707109
v 2.373768 0.636837 -1.192825
v -2.373768 0.636837 -1.192825
v 2.359288 0.651317 -1.178345
v -2.359288 0.651317 -1.178345
v 2.373768 0.636837 -0.692629
v 2.373768 0.636837 -1.192825
v 2.359288 0.651317 -0.707109
v 2.359288 0.651317 -1.178345
v -2.373768 0.636837 -0.692629
v 2.373768 0.636837 -0.692629
v -2.359288 0.651317 -0.707109
v 2.359288 0.651317 -0.707109
v 1.978443 0.000000 -1.048225
v 1.978443 0.589001 -1.048225
v 1.907429 0.000000 -1.048225
v 1.907429 0.589001 -1.048225
v 1.978443 0.000000 -1.119239
v 1.978443 0.589001 -1.119239
v 1.978443 0.000000 -1.048225
v 1.978443 0.589001 -1.048225
v 1.907429 0.000000 -1.119239
v 1.907429 0.589001 -1.119239
v 1.978443 0.000000 -1.119239
v 1.978443 0.589001 -1.119239
v 1.907429 0.000000 -1.048225
v 1.907429 0.589001 -1.048225
v 1.907429 0.000000 -1.119239
v 1.907429 0.589001 -1.119239
v 1.978443 0.000000 -0.771689
v 1.978443 0.589001 -0.771689
v 1.907429 0.000000 -0.771689
v 1.907429 0.589001 -0.771689
v 1.978443 0.000000 -0.842703
v 1.978443 0.589001 -0.842703
v 1.978443 0.000000 -0.771689
v 1.978443 0.589001 -0.771689
v 1.907429 0.000000 -0.842703
v 1.907429 0.589001 -0.842703
v 1.978443 0.000000 -0.842703
v 1.978443 0.589001 -0.842703
v 1.907429 0.000000 -0.771689
v 1.907429 0.589001 -0.771689
v 1.907429 0.000000 -0.842703
v 1.907429 0.589001 -0.842703
v -1.902270 -0.000000 0.837229
v -1.902270 0.589001 0.837229
v -1.973284 -0.000000 0.837229
v -1.973284 0.589001 0.837229
v -1.902270 -0.000000 0.766216
v -1.902270 0.589001 0.766216
v -1.902270 -0.000000 0.837229
v -1.902270 0.589001 0.837229
v -1.973284 -0.000000 0.766216
v -1.973284 0.589001 0.766216
v -1.902270 -0.000000 0.766216
v -1.902270 0.589001 0.766216
v -1.973284 -0.000000 0.837229
v -1.973284 0.589001 0.837229
v -1.973284 -0.000000 0.766216
v -1.973284 0.589001 0.766216
v -1.902270 -0.000000 1.113765
v -1.902270 0.589001 1.113765
v -1.973284 -0.000000 1.113765
v -1.973284 0.589001 1.113765
v -1.902270 -0.000000 1.042751
v -1.902270 0.589001 1.042751
v -1.902270 -0.000000 1.113765
v -1.902270 0.589001 1.113765
v -1.973284 -0.000000 1.042751
v -1.973284 0.589001 1.042751
v -1.902270 -0.000000 1.042751
v -1.902270 0.589001 1.042751
v -1.973284 -0.000000 1.113765
v -1.973284 0.589001 1.113765
v -1.973284 -0.000000 1.042751
v -1.973284 0.589001 1.042751
v -2.359288 0.651317 1.178345
v 2.359288 0.651317 1.178345
v -2.359288 0.651317 0.707109
v 2.359288 0.651317 0.707109
v -2.373768 0.636837 0.692629
v -2.373768 0.589001 0.692629
v -2.373768 0.636837 1.192825
v -2.373768 0.589001 1.192825
v 2.373768 0.636837 0.692629
v 2.373768 0.589001 0.692629
v -2.373768 0.636837 0.692629
v -2.373768 0.589001 0.692629
v 2.373768 0.636837 1.192825
v 2.373768 0.589001 1.192825
v 2.373768 0.636837 0.692629
v 2.373768 0.589001 0.692629
v -2.373768 0.636837 1.192825
v -2.373768 0.589001 1.192825
v 2.373768 0.636837 1.192825
v 2.373768 0.589001 1.192825
v -2.373768 0.636837 0.692629
v -2.373768 0.636837 1.192825
v -2.359288 0.651317 0.707109
v -2.359288 0.651317 1.178345
v 2.373768 0.636837 0.692629
v -2.373768 0.636837 0.692629
v 2.359288 0.651317 0.707109
v -2.359288 0.651317 0.707109
v 2.373768 0.636837 1.192825
v 2.373768 0.636837 0.692629
v 2.359288 0.651317 1.178345
v 2.359288 0.651317 0.707109
v -2.373768 0.636837 1.192825
v 2.373768 0.636837 1.192825
v -2.359288 0.651317 1.178345
v 2.359288 0.651317 1.178345
v 1.978443 -0.000000 0.837229
v 1.978443 0.589001 0.837229
v 1.907429 -0.000000 0.837229
v 1.907429 0.589001 0.837229
v 1.978443 -0.000000 0.766216
v 1.978443 0.589001 0.766216
v 1.978443 -0.000000 0.837229
v 1.978443 0.589001 0.837229
v 1.907429 -0.000000 0.766216
v 1.907429 0.589001 0.766216
v 1.978443 -0.000000 0.766216
v 1.978443 0.589001 0.766216
v 1.907429 -0.000000 0.837229
v 1.907429 0.589001 0.837229
v 1.907429 -0.000000 0.766216
v 1.907429 0.589001 0.766216
v 1.978443 -0.000000 1.113765
v 1.978443 0.589001 1.113765
v 1.907429 -0.000000 1.113765
v 1.907429 0.589001 1.113765
v 1.978443 -0.000000 1.042751
v 1.978443 0.589001 1.042751
v 1.978443 -0.000000 1.113765
v 1.978443 0.589001 1.113765
v 1.907429 -0.000000 1.042751
v 1.907429 0.589001 1.042751
v 1.978443 -0.000000 1.042751
v 1.978443 0.589001 1.042751
v 1.907429 -0.000000 1.113765
v 1.907429 0.589001 1.113765
v 1.907429 -0.000000 1.042751
v 1.907429 0.589001 1.042751
v -1.902270 0.000000 -0.342594
v -1.902270 0.928793 -0.342594
v -1.973284 0.000000 -0.342594
v -1.973284 0.928793 -0.342594
v -1.902270 0.000000 -0.413608
v -1.902270 0.928793 -0.413608
v -1.902270 0.000000 -0.342594
v -1.902270 0.928793 -0.342594
v -1.973284 0.000000 -0.413608
v -1.973284 0.928793 -0.413608
v -1.902270 0.000000 -0.413608
v -1.902270 0.928793 -0.413608
v -1.973284 0.000000 -0.342594
v -1.973284 0.928793 -0.342594
v -1.973284 0.000000 -0.413608
v -1.973284 0.928793 -0.413608
v -1.902270 -0.000000 0.377711
v -1.902270 0.928793 0.377711
v -1.973284 -0.000000 0.377711
v -1.973284 0.928793 0.377711
v -1.902270 -0.000000 0.306697
v -1.902270 0.928793 0.306697
v -1.902270 -0.000000 0.377711
v -1.902270 0.928793 0.377711
v -1.973284 -0.000000 0.306697
v -1.973284 0.928793 0.306697
v -1.902270 -0.000000 0.306697
v -1.902270 0.928793 0.306697
v -1.973284 -0.000000 0.377711
v -1.973284 0.928793 0.377711
v -1.973284 -0.000000 0.306697
v -1.973284 0.928793 0.306697
v -2.359288 0.991110 0.442291
v 2.359288 0.991110 0.442291
v -2.359288 0.991110 -0.472715
v 2.359288 0.991110 -0.472715
v -2.373768 0.976630 -0.487195
v -2.373768 0.928793 -0.487195
v -2.373768 0.976630 0.456771
v -2.373768 0.928793 0.456771
v 2.373768 0.976630 -0.487195
v 2.373768 0.928793 -0.487195
v -2.373768 0.976630 -0.487195
v -2.373768 0.928793 -0.487195
v 2.373768 0.976630 0.456771
v 2.373768 0.928793 0.456771
v 2.373768 0.976630 -0.487195
v 2.373768 0.928793 -0.487195
v -2.373768 0.976630 0.456771
v -2.373768 0.928793 0.456771
v 2.373768 0.976630 0.456771
v 2.373768 0.928793 0.456771
v -2.373768 0.976630 -0.487195
v -2.373768 0.976630 0.456771
v -2.359288 0.991110 -0.472715
v -2.359288 0.991110 0.442291
v 2.373768 0.976630 -0.487195
v -2.373768 0.976630 -0.487195
v 2.359288 0.991110 -0.472715
v -2.359288 0.991110 -0.472715
v 2.373768 0.976630 0.456771
v 2.373768 0.976630 -0.487195
v 2.359288 0.991110 0.442291
v 2.359288 0.991110 -0.472715
v -2.373768 0.976630 0.456771
v 2.373768 0.976630 0.456771
v -2.359288 0.991110 0.442291
v 2.359288 0.991110 0.442291
v 1.978443 0.000000 -0.342594
v 1.978443 0.928793 -0.342594
v 1.907429 0.000000 -0.342594
v 1.907429 0.928793 -0.342594
v 1.978443 0.000000 -0.413608
v 1.978443 0.928793 -0.413608
v 1.978443 0.000000 -0.342594
v 1.978443 0.928793 -0.342594
v 1.907429 0.000000 -0.413608
v 1.907429 0.928793 -0.413608
v 1.978443 0.000000 -0.413608
v 1.978443 0.928793 -0.413608
v 1.907429 0.000000 -0.342594
v 1.907429 0.928793 -0.342594
v 1.907429 0.000000 -0.413608
v 1.907429 0.928793 -0.413608
v 1.978443 -0.000000 0.377711
v 1.978443 0.928793 0.377711
v 1.907429 -0.000000 0.377711
v 1.907429 0.928793 0.377711
v 1.978443 -0.000000 0.306697
v 1.978443 0.928794 0.306697
v 1.978443 -0.000000 0.377711
v 1.978443 0.928793 0.377711
v 1.907429 -0.000000 0.306697
v 1.907429 0.928794 0.306697
v 1.978443 -0.000000 0.306697
v 1.978443 0.928794 0.306697
v 1.907429 -0.000000 0.377711
v 1.907429 0.928793 0.377711
v 1.907429 -0.000000 0.306697
v 1.907429 0.928794 0.306697
vt 0.021037 0.526548
vt 0.129704 0.526547
vt 0.021037 0.553196
vt 0.129704 0.553196
vt 0.982442 0.492341
vt 0.022170 0.492267
vt 0.982443 0.297248
vt 0.022165 0.297257
vt 0.986613 0.291253
vt 0.996353 0.291254
vt 0.986611 0.498353
vt 0.996353 0.498390
vt 0.019218 0.288779
vt 0.019218 0.268979
vt 0.985390 0.288772
vt 0.985390 0.268971
vt 0.018006 0.498259
vt 0.008279 0.498262
vt 0.017996 0.291303
vt 0.008265 0.291388
vt 0.985389 0.500817
vt 0.985389 0.520617
vt 0.019223 0.500741
vt 0.019223 0.520541
vt 0.022167 0.033787
vt 0.982460 0.033974
vt 0.022163 0.228864
vt 0.982453 0.229038
vt 0.017998 0.234873
vt 0.008266 0.234907
vt 0.017998 0.027792
vt 0.008259 0.027793
vt 0.985399 0.237515
vt 0.985398 0.257315
vt 0.019216 0.237339
vt 0.019215 0.257140
vt 0.986625 0.027977
vt 0.996357 0.027968
vt 0.986621 0.235032
vt 0.996357 0.235031
vt 0.019220 0.025310
vt 0.019221 0.005508
vt 0.985407 0.025498
vt 0.985408 0.005697
vt 0.142898 0.526778
vt 0.314236 0.526778
vt 0.142898 0.553424
vt 0.314236 0.553423
vt 0.979224 0.965585
vt 0.019187 0.965630
vt 0.979227 0.587000
vt 0.019187 0.586953
vt 0.983392 0.581008
vt 0.993122 0.581007
vt 0.983390 0.971563
vt 0.993120 0.971533
vt 0.016241 0.578478
vt 0.016241 0.558682
vt 0.982173 0.578526
vt 0.982173 0.558731
vt 0.015020 0.971623
vt 0.005286 0.971623
vt 0.015020 0.580956
vt 0.005286 0.580949
vt 0.982170 0.974059
vt 0.982170 0.993855
vt 0.016241 0.974105
vt 0.016241 0.993901
usemtl None
s off
f 1/1 2/2 3/3
f 2/2 4/4 3/3
f 5/1 6/2 7/3
f 6/2 8/4 7/3
f 9/1 10/2 11/3
f 10/2 12/4 11/3
f 13/1 14/2 15/3
f 14/2 16/4 15/3
f 17/1 18/2 19/3
f 18/2 20/4 19/3
f 21/1 22/2 23/3
f 22/2 24/4 23/3
f 25/1 26/2 27/3
f 26/2 28/4 27/3
f 29/1 30/2 31/3
f 30/2 32/4 31/3
f 33/5 34/6 35/7
f 34/6 36/8 35/7
f 37/9 38/10 39/11
f 38/10 40/12 39/11
f 41/13 42/14 43/15
f 42/14 44/16 43/15
f 45/17 46/18 47/19
f 46/18 48/20 47/19
f 49/21 50/22 51/23
f 50/22 52/24 51/23
f 53/9 54/11 55/7
f 54/11 56/5 55/7
f 57/13 58/15 59/8
f 58/15 60/7 59/8
f 61/17 62/19 63/6
f 62/19 64/8 63/6
f 65/21 66/23 67/5
f 66/23 68/6 67/5
f 69/1 70/2 71/3
f 70/2 72/4 71/3
f 73/1 74/2 75/3
f 74/2 76/4 75/3
f 77/1 78/2 79/3
f 78/2 80/4 79/3
f 81/1 82/2 83/3
f 82/2 84/4 83/3
f 85/1 86/2 87/3
f 86/2 88/4 87/3
f 89/1 90/2 91/3
f 90/2 92/4 91/3
f 93/1 94/2 95/3
f 94/2 96/4 95/3
f 97/1 98/2 99/3
f 98/2 100/4 99/3
f 101/1 102/2 103/3
f 102/2 104/4 103/3
f 105/1 106/2 107/3
f 106/2 108/4 107/3
f 109/1 110/2 111/3
f 110/2 112/4 111/3
f 113/1 114/2 115/3
f 114/2 116/4 115/3
f 117/1 118/2 119/3
f 118/2 120/4 119/3
f 121/1 122/2 123/3
f 122/2 124/4 123/3
f 125/1 126/2 127/3
f 126/2 128/4 127/3
f 129/1 130/2 131/3
f 130/2 132/4 131/3
f 133/25 134/26 135/27
f 134/26 136/28 135/27
f 137/29 138/30 139/31
f 138/30 140/32 139/31
f 141/33 142/34 143/35
f 142/34 144/36 143/35
f 145/37 146/38 147/39
f 146/38 148/40 147/39
f 149/41 150/42 151/43
f 150/42 152/44 151/43
f 153/29 154/31 155/27
f 154/31 156/25 155/27
f 157/33 158/35 159/28
f 158/35 160/27 159/28
f 161/37 162/39 163/26
f 162/39 164/28 163/26
f 165/41 166/43 167/25
f 166/43 168/26 167/25
f 169/1 170/2 171/3
f 170/2 172/4 171/3
f 173/1 174/2 175/3
f 174/2 176/4 175/3
f 177/1 178/2 179/3
f 178/2 180/4 179/3
f 181/1 182/2 183/3
f 182/2 184/4 183/3
f 185/1 186/2 187/3
f 186/2 188/4 187/3
f 189/1 190/2 191/3
f 190/2 192/4 191/3
f 193/1 194/2 195/3
f 194/2 196/4 195/3
f 197/1 198/2 199/3
f 198/2 200/4 199/3
f 201/45 202/46 203/47
f 202/46 204/48 203/47
f 205/45 206/46 207/47
f 206/46 208/48 207/47
f 209/45 210/46 211/47
f 210/46 212/48 211/47
f 213/45 214/46 215/47
f 214/46 216/48 215/47
f 217/45 218/46 219/47
f 218/46 220/48 219/47
f 221/45 222/46 223/47
f 222/46 224/48 223/47
f 225/45 226/46 227/47
f 226/46 228/48 227/47
f 229/45 230/46 231/47
f 230/46 232/48 231/47
f 233/49 234/50 235/51
f 234/50 236/52 235/51
f 237/53 238/54 239/55
f 238/54 240/56 239/55
f 241/57 242/58 243/59
f 242/58 244/60 243/59
f 245/61 246/62 247/63
f 246/62 248/64 247/63
f 249/65 250/66 251/67
f 250/66 252/68 251/67
f 253/53 254/55 255/51
f 254/55 256/49 255/51
f 257/57 258/59 259/52
f 258/59 260/51 259/52
f 261/61 262/63 263/50
f 262/63 264/52 263/50
f 265/65 266/67 267/49
f 266/67 268/50 267/49
f 269/45 270/46 271/47
f 270/46 272/48 271/47
f 273/45 274/46 275/47
f 274/46 276/48 275/47
f 277/45 278/46 279/47
f 278/46 280/48 279/47
f 281/45 282/46 283/47
f 282/46 284/48 283/47
f 285/45 286/46 287/47
f 286/46 288/48 287/47
f 289/45 290/46 291/47
f 290/46 292/48 291/47
f 293/45 294/46 295/47
f 294/46 296/48 295/47
f 297/45 298/46 299/47
f 298/46 300/48 299/47
