# Blender v3.0.0 OBJ File: 'Wuhu Island.blend'
# www.blender.org
mtllib Car.mtl
o Car_polygon0.700
v 0.151200 0.077500 -0.227500
v 0.151200 0.095826 -0.227500
v 0.151200 0.120000 -0.196586
v 0.151200 0.125448 -0.205469
v 0.151200 0.120000 -0.121885
v 0.151200 0.125448 -0.116690
v 0.151200 0.060923 -0.089352
v 0.151200 0.070000 -0.085939
v 0.151200 0.060923 0.067595
v 0.151200 0.070000 0.063656
v 0.151200 0.120000 0.106318
v 0.151200 0.127400 0.102342
v 0.151200 0.120000 0.185646
v 0.151200 0.127400 0.188743
v 0.151200 0.101545 0.201854
v 0.151200 0.112559 0.201854
v -0.099255 0.276674 0.045411
v -0.085608 0.277231 0.050817
v -0.102203 0.276674 -0.019467
v 0.000000 0.281588 0.060362
v 0.000000 0.281588 -0.188809
v 0.102204 0.276674 -0.101775
v 0.102204 0.276674 -0.182515
v -0.065625 0.178695 0.104430
v -0.114844 0.176807 0.098986
v -0.065360 0.174498 0.180166
v -0.131250 0.171448 0.182448
v -0.057750 0.156139 0.262889
v -0.128111 0.156139 0.250031
v -0.131123 0.103966 0.261405
v -0.127282 0.073981 0.253623
v -0.057750 0.103966 0.270927
v 0.000000 0.073981 0.264279
v 0.000000 0.103966 0.278333
v 0.057750 0.103966 0.270927
v -0.131252 0.175800 -0.227995
v -0.102204 0.276674 -0.182515
v -0.100034 0.175800 -0.234686
v 0.000000 0.175800 -0.241377
v 0.100034 0.175800 -0.234686
v 0.069831 0.148168 -0.246889
v -0.069831 0.148168 -0.246889
v -0.102201 0.073629 -0.250961
v 0.065360 0.174498 0.180166
v 0.042969 0.170768 0.247934
v 0.057750 0.156139 0.262889
v -0.042969 0.170768 0.247934
v 0.131250 0.174767 0.094693
v 0.114844 0.176807 0.098986
v 0.131250 0.171448 0.182448
v 0.136754 0.073981 0.145421
v 0.137565 0.073981 -0.017379
v 0.136372 0.175800 -0.016658
v -0.136754 0.073981 0.145421
v -0.131250 0.174767 0.094693
v 0.000000 0.176975 0.182843
v -0.059593 0.189889 0.175580
v 0.000000 0.181460 0.110652
v 0.059593 0.189889 0.175580
v 0.065625 0.178695 0.104430
v -0.136372 0.175800 -0.016658
v -0.136373 0.175800 -0.114340
v -0.137565 0.073981 -0.017379
v -0.133383 0.073629 -0.246420
v 0.138303 0.101360 0.265091
v 0.138303 0.111948 0.265091
v 0.000000 0.101360 0.284021
v 0.000000 0.111948 0.284021
v -0.138303 0.111948 0.265091
v 0.145113 0.095658 -0.255563
v 0.145113 0.077500 -0.255563
v 0.000000 0.077500 -0.270080
v -0.145113 0.077500 -0.255563
v -0.145113 0.095658 -0.255563
v -0.151200 0.077500 -0.227500
v -0.151200 0.095826 -0.227500
v 0.136373 0.175800 -0.114340
v 0.131252 0.175800 -0.227995
v 0.127282 0.073981 0.253623
v 0.131123 0.103966 0.261405
v 0.074926 0.098905 -0.250447
v 0.102201 0.073629 -0.250961
v 0.085297 0.277246 0.050850
v 0.099255 0.276674 0.045411
v 0.128854 0.080774 -0.239282
v 0.124635 0.080773 0.240572
v 0.120403 0.037114 -0.229116
v 0.116211 0.037113 0.232822
v -0.097860 0.000439 -0.142140
v -0.146414 0.000439 -0.142140
v -0.097860 0.000439 -0.181165
v -0.146414 0.000439 -0.181165
v -0.097860 0.023377 -0.110568
v -0.146414 0.023377 -0.110568
v -0.097860 0.060493 -0.103641
v -0.146414 0.060493 -0.103641
v -0.097860 0.097608 -0.110568
v -0.146414 0.097608 -0.110568
v -0.097860 0.120547 -0.142140
v -0.146414 0.120547 -0.142140
v -0.097860 0.120547 -0.181165
v -0.146414 0.120547 -0.181165
v -0.097860 0.097608 -0.212738
v -0.146414 0.097608 -0.212738
v -0.097860 0.060493 -0.219664
v -0.146414 0.060493 -0.219664
v -0.097860 0.023377 -0.212738
v -0.146414 0.023377 -0.212738
v -0.146847 0.000136 -0.221959
v -0.146847 0.000136 -0.101518
v -0.146847 0.120577 -0.221959
v -0.146847 0.120577 -0.101518
v -0.097853 0.000136 -0.101518
v -0.097853 0.000136 -0.221959
v -0.097853 0.120577 -0.101518
v -0.097853 0.120577 -0.221959
v 0.097860 0.000439 -0.142140
v 0.097860 0.000439 -0.181166
v 0.146414 0.000439 -0.142140
v 0.146414 0.000439 -0.181166
v 0.097860 0.023377 -0.110568
v 0.146414 0.023377 -0.110568
v 0.097860 0.060493 -0.103641
v 0.146414 0.060493 -0.103641
v 0.097860 0.097608 -0.110568
v 0.146414 0.097608 -0.110568
v 0.097860 0.120547 -0.142140
v 0.146414 0.120547 -0.142140
v 0.097860 0.120547 -0.181165
v 0.146414 0.120547 -0.181165
v 0.097860 0.097608 -0.212738
v 0.146414 0.097608 -0.212738
v 0.097860 0.060493 -0.219664
v 0.146414 0.060493 -0.219664
v 0.097860 0.023377 -0.212738
v 0.146414 0.023377 -0.212738
v 0.146847 0.000136 -0.221959
v 0.146847 0.120577 -0.221959
v 0.146847 0.000136 -0.101518
v 0.146847 0.120577 -0.101518
v 0.097853 0.000136 -0.101518
v 0.097853 0.120577 -0.101518
v 0.097853 0.000136 -0.221959
v 0.097853 0.120577 -0.221959
v -0.097860 0.000439 0.167514
v -0.146414 0.000439 0.167514
v -0.097860 0.000439 0.128488
v -0.146414 0.000439 0.128488
v -0.097860 0.023377 0.199086
v -0.146414 0.023377 0.199086
v -0.097860 0.060493 0.206012
v -0.146414 0.060493 0.206012
v -0.097860 0.097608 0.199086
v -0.146414 0.097608 0.199086
v -0.097860 0.120547 0.167514
v -0.146414 0.120547 0.167514
v -0.097860 0.120547 0.128488
v -0.146414 0.120547 0.128488
v -0.097860 0.097608 0.096916
v -0.146414 0.097608 0.096916
v -0.097860 0.060493 0.089989
v -0.146414 0.060493 0.089989
v -0.097860 0.023377 0.096916
v -0.146414 0.023377 0.096916
v -0.146847 0.000136 0.087694
v -0.146847 0.000136 0.208135
v -0.146847 0.120577 0.087694
v -0.146847 0.120577 0.208136
v -0.097853 0.000136 0.208135
v -0.097853 0.000136 0.087694
v -0.097853 0.120577 0.208136
v -0.097853 0.120577 0.087694
v 0.097860 0.000439 0.167514
v 0.097860 0.000439 0.128488
v 0.146414 0.000439 0.167514
v 0.146414 0.000439 0.128488
v 0.097860 0.023377 0.199086
v 0.146414 0.023377 0.199086
v 0.097860 0.060493 0.206012
v 0.146414 0.060493 0.206012
v 0.097860 0.097608 0.199086
v 0.146414 0.097608 0.199086
v 0.097860 0.120547 0.167514
v 0.146414 0.120547 0.167514
v 0.097860 0.120547 0.128488
v 0.146414 0.120547 0.128488
v 0.097860 0.097608 0.096916
v 0.146414 0.097608 0.096916
v 0.097860 0.060493 0.089989
v 0.146414 0.060493 0.089989
v 0.097860 0.023377 0.096916
v 0.146414 0.023377 0.096916
v 0.146847 0.000136 0.087694
v 0.146847 0.120577 0.087694
v 0.146847 0.000136 0.208135
v 0.146847 0.120577 0.208136
v 0.097853 0.000136 0.208135
v 0.097853 0.120577 0.208136
v 0.097853 0.000136 0.087694
v 0.097853 0.120577 0.087694
v 0.045525 0.111373 0.271663
v 0.045525 0.147111 0.271663
v 0.008001 0.111373 0.278335
v 0.008001 0.147111 0.275103
v -0.045525 0.111373 0.271663
v -0.008001 0.111373 0.278335
v -0.045525 0.147111 0.271663
v -0.008001 0.147111 0.275103
v 0.031182 0.109549 -0.249125
v -0.031182 0.109549 -0.249125
v 0.031182 0.138595 -0.241527
v -0.031182 0.138595 -0.241527
v 0.031182 0.040768 0.260967
v 0.031182 0.070785 0.260361
v -0.031182 0.040768 0.260967
v -0.031182 0.070785 0.260361
v -0.068785 0.288333 -0.159615
v -0.068785 0.276476 -0.165968
v -0.077972 0.298623 -0.168347
v -0.078308 0.276555 -0.182186
v -0.085426 0.288333 -0.159616
v -0.085426 0.276476 -0.165968
v -0.068785 0.287326 0.007079
v -0.077972 0.297809 0.010980
v -0.085426 0.287326 0.007079
v -0.068785 0.276287 0.020545
v -0.078308 0.276568 0.039675
v -0.085426 0.276287 0.020545
v 0.068785 0.288333 -0.159615
v 0.077972 0.298623 -0.168347
v 0.068785 0.276476 -0.165968
v 0.078308 0.276555 -0.182186
v 0.085426 0.288333 -0.159616
v 0.085426 0.276476 -0.165968
v 0.068785 0.287326 0.007079
v 0.077972 0.297809 0.010980
v 0.085426 0.287326 0.007079
v 0.068785 0.276287 0.020545
v 0.078308 0.276568 0.039675
v 0.085426 0.276287 0.020545
v 0.044116 0.114636 0.284882
v 0.062694 0.114636 0.284882
v 0.044116 0.162742 0.266469
v 0.062694 0.162742 0.266469
v -0.128854 0.080774 -0.239282
v -0.120403 0.037114 -0.229116
v -0.124635 0.080773 0.240572
v -0.116211 0.037113 0.232822
v 0.044116 0.162742 0.256469
v 0.062694 0.162742 0.256469
v 0.044116 0.049493 0.265824
v 0.062694 0.049493 0.265824
v -0.044116 0.114636 0.284882
v -0.044116 0.162742 0.266469
v -0.062694 0.114636 0.284882
v -0.062694 0.162742 0.266469
v -0.044116 0.162742 0.256469
v -0.062694 0.162742 0.256469
v -0.044116 0.049493 0.265824
v -0.062694 0.049493 0.265824
v 0.133383 0.073629 -0.246420
v 0.128111 0.156139 0.250031
v -0.102204 0.276674 -0.101775
v -0.151200 0.060923 -0.089352
v -0.151200 0.060923 0.067595
v -0.151200 0.118586 0.106318
v -0.151200 0.118586 0.185646
v -0.151200 0.118586 -0.121885
v 0.102203 0.276674 -0.019467
v 0.000000 0.115010 0.264731
v 0.124914 0.118372 0.250235
v 0.000000 0.095658 -0.270080
v 0.124914 0.141100 -0.214366
v 0.126432 0.102542 -0.234515
v -0.000000 0.115000 -0.189207
v 0.118136 0.062233 -0.227657
v 0.124914 0.141100 -0.107800
v 0.124914 0.084965 -0.078017
v 0.124914 0.084965 0.058962
v 0.124914 0.141100 0.096793
v 0.124914 0.141100 0.194738
v 0.124914 0.118372 0.209562
v -0.064343 0.135501 -0.230000
v 0.064343 0.135501 -0.230000
v -0.074926 0.098905 -0.250447
v -0.124914 0.118372 0.250235
v -0.151200 0.118586 -0.196586
v -0.151200 0.125448 -0.205469
v -0.124914 0.141100 -0.214366
v -0.126432 0.102542 -0.234515
v -0.118136 0.062233 -0.227657
v -0.151200 0.125448 -0.116690
v -0.124914 0.141100 -0.107800
v -0.151200 0.070000 -0.085939
v -0.124914 0.084965 -0.078017
v -0.151200 0.070000 0.063656
v -0.124914 0.084965 0.058962
v -0.151200 0.127400 0.102342
v -0.124914 0.141100 0.096793
v -0.151200 0.127400 0.188743
v -0.124914 0.141100 0.194738
v -0.151200 0.112559 0.201854
v -0.151200 0.101545 0.201854
v -0.124914 0.118372 0.209562
v -0.138303 0.101360 0.265091
v 0.044116 0.049493 0.256468
v 0.062694 0.049493 0.256468
v -0.044116 0.049493 0.256468
v -0.062694 0.049493 0.256468
v 0.000000 0.090000 0.209731
vt -0.707520 0.687744
vt -0.707520 0.688477
vt -0.580810 0.688477
vt -0.580810 0.687988
vt -0.707520 0.686279
vt -0.580810 0.686035
vt -0.707520 0.685547
vt -0.580810 0.685547
vt -0.707520 0.682129
vt -0.580810 0.682373
vt -0.707520 0.681396
vt -0.580810 0.681396
vt -0.707520 0.679688
vt -0.580810 0.679688
vt -0.707520 0.679443
vt -0.580810 0.679443
vt 1.666748 0.531006
vt 1.653809 0.531006
vt 1.653564 0.531494
vt 0.594238 0.731201
vt 0.749023 0.731201
vt 0.749023 0.729248
vt 0.594238 0.729248
vt 0.765381 1.472412
vt 0.751709 0.527588
vt 1.234375 0.527588
vt 1.234375 1.472412
vt 0.765381 1.472412
vt 0.751709 0.527588
vt 1.234375 0.527588
vt 1.234375 1.472412
vt 1.234375 0.527588
vt 0.751709 0.527588
vt 0.765381 1.472412
vt 1.234375 1.472412
vt 1.234375 0.527588
vt 0.751709 0.527588
vt 0.765381 1.472412
vt 1.234375 1.472412
vt 0.765381 1.472412
vt 0.751709 0.527588
vt 1.234375 0.527588
vt 1.234375 1.472412
vt 0.765381 1.472412
vt 0.751709 0.527588
vt 1.234375 0.527588
vt 1.234375 1.472412
vt 1.234375 0.527588
vt 0.751709 0.527588
vt 0.765381 1.472412
vt 1.234375 1.472412
vt 1.234375 0.527588
vt 0.751709 0.527588
vt 0.765381 1.472412
vt 1.234375 1.472412
vt 0.484131 0.752685
vt 0.484131 1.242676
vt 0.746582 1.242676
vt 0.746582 0.752685
vt 0.746582 1.242676
vt 0.484131 1.242676
vt 0.484131 0.752685
vt 0.746582 0.752685
vt 0.879395 0.496338
vt 0.879395 0.234131
vt 1.120605 0.234131
vt 1.120605 0.496338
vt 1.120605 0.234131
vt 0.879395 0.234131
vt 0.879395 0.496338
vt 1.120605 0.496338
vt 0.592529 0.712646
vt 0.756836 0.712646
vt 0.756836 0.713867
vt 0.592529 0.713867
vt 0.756836 0.712646
vt 0.756836 0.713867
vt 0.592529 0.709229
vt 0.756836 0.709229
vt 0.756836 0.709229
vt 0.592529 0.708496
vt 0.756836 0.708496
vt 0.756836 0.708496
vt 0.756836 0.713867
vt 0.756836 0.712646
vt 0.592529 0.712646
vt 0.592529 0.713867
vt 0.756836 0.712646
vt 0.756836 0.713867
vt 0.756836 0.709229
vt 0.592529 0.709229
vt 0.756836 0.709229
vt 0.756836 0.708496
vt 0.592529 0.708496
vt 0.756836 0.708496
vt 0.507324 0.687744
vt 0.606934 0.687744
vt 0.606934 0.683594
vt 0.507324 0.683594
vt 0.749023 0.731201
vt 0.594238 0.731201
vt 0.749023 0.729248
vt 0.594238 0.729248
vt 0.507324 0.687744
vt 0.542236 0.687744
vt 0.542236 0.683594
vt 0.507324 0.683594
vt 0.554199 0.687744
vt 0.733398 0.687744
vt 0.733398 0.683594
vt 0.554199 0.683594
vt 0.606934 0.683594
vt 0.606934 0.687744
vt 0.507324 0.687744
vt 0.507324 0.683594
vt 0.740234 0.723145
vt 0.740234 0.732666
vt 0.740234 0.732666
vt 0.740234 0.723145
vt 0.542236 0.683594
vt 0.542236 0.687744
vt 0.507324 0.687744
vt 0.507324 0.683594
vt 0.733398 0.683594
vt 0.733398 0.687744
vt 0.554199 0.687744
vt 0.554199 0.683594
vt -1.063721 0.233887
vt -1.254883 0.233887
vt -1.254883 -0.070068
vt -1.063721 -0.070068
vt -1.254883 -0.070068
vt -1.254883 0.233887
vt -1.063721 0.233887
vt -1.063721 -0.070068
vt 0.720459 0.672852
vt 0.720459 0.672852
vt 0.720459 0.672852
vt 0.720459 0.672852
vt 0.720459 0.672852
vt 0.720459 0.672852
vt 0.720459 0.672852
vt 0.720459 0.672852
vt 0.720459 0.672852
vt 0.720459 0.672852
vt 0.621582 0.681152
vt 0.621582 0.681152
vt 0.621582 0.681152
vt 0.621582 0.681152
vt 1.653564 0.539062
vt 1.653809 0.539551
vt 1.666748 0.539551
vt 0.682617 0.683350
vt 0.682617 0.678223
vt 0.681641 0.678223
vt 0.681641 0.683350
vt 0.720459 0.672852
vt 0.720459 0.672852
vt 0.720459 0.672852
vt 0.720459 0.672852
vt 0.621582 0.681152
vt 0.621582 0.681152
vt 0.621582 0.681152
vt 0.621582 0.681152
vt 0.682617 0.678223
vt 0.682617 0.683350
vt 0.681641 0.683350
vt 0.681641 0.678223
vt 0.621582 0.681152
vt 0.621582 0.681152
vt 0.621582 0.681152
vt 0.621582 0.681152
vt 0.682617 0.683350
vt 0.682617 0.678223
vt 0.681641 0.678223
vt 0.681641 0.683350
vt 0.621582 0.681152
vt 0.621582 0.681152
vt 0.621582 0.681152
vt 0.621582 0.681152
vt 0.682617 0.678223
vt 0.682617 0.683350
vt 0.681641 0.683350
vt 0.681641 0.678223
vt -0.580810 0.677979
vt -0.707520 0.677979
vt 0.621582 0.681152
vt 0.621582 0.681152
vt 0.131104 0.229004
vt 0.152832 0.295654
vt -0.151367 0.295654
vt -0.129395 0.229004
vt 0.170166 0.042480
vt -0.168701 0.042480
vt 0.621582 0.681152
vt 0.621582 0.681152
vt -0.580810 0.688477
vt -0.707520 0.688477
vt -0.707520 0.687744
vt -0.580810 0.687988
vt 0.681641 0.678223
vt 0.682617 0.678223
vt 0.682617 0.683350
vt 0.681641 0.683350
vt 0.720459 0.672852
vt 0.720459 0.672852
vt 0.720459 0.672852
vt -0.707520 0.686279
vt -0.580810 0.686035
vt 0.621582 0.681152
vt 0.621582 0.681152
vt 0.621582 0.681152
vt 0.621582 0.681152
vt -0.707520 0.685547
vt -0.580810 0.685547
vt 0.681641 0.683350
vt 0.682617 0.683350
vt 0.682617 0.678223
vt 0.681641 0.678223
vt -0.707520 0.682129
vt -0.580810 0.682373
vt 0.621582 0.681152
vt 0.621582 0.681152
vt 0.621582 0.681152
vt 0.621582 0.681152
vt -0.707520 0.681396
vt -0.580810 0.681396
vt 0.681641 0.678223
vt 0.682617 0.678223
vt 0.682617 0.683350
vt 0.681641 0.683350
vt -0.707520 0.679688
vt -0.580810 0.679688
vt 0.621582 0.681152
vt 0.621582 0.681152
vt 0.621582 0.681152
vt 0.621582 0.681152
vt -0.707520 0.679443
vt -0.580810 0.679443
vt 0.681641 0.683350
vt 0.682617 0.683350
vt 0.682617 0.678223
vt 0.681641 0.678223
vt -0.707520 0.677979
vt -0.580810 0.677979
vt 0.621582 0.681152
vt 0.621582 0.681152
vt 0.675537 0.685547
vt 0.675537 0.685547
vt 0.675537 0.685547
vt 0.675537 0.685547
vt 0.675537 0.685547
vt 0.675537 0.685547
vt 0.675537 0.685547
vt 0.675537 0.685547
vt 0.675537 0.685547
vt 0.675537 0.685547
vt 0.675537 0.685547
vt 0.675537 0.685547
vt 0.675537 0.685547
vt 0.675537 0.685547
vt 0.675537 0.685547
vt 0.675537 0.685547
vt 0.621582 0.681152
vt 0.621582 0.681152
vt 0.621582 0.681152
vt 0.621582 0.681152
vt 0.720459 0.672852
vt 0.720459 0.672852
vt 0.720459 0.672852
vt 0.720459 0.672852
vt 0.720459 0.672852
vt -0.802246 0.269531
vt -0.802246 0.512695
vt -0.819580 0.512695
vt 0.621582 0.681152
vt 0.720459 0.672852
vt 0.720459 0.672852
vt 0.720459 0.672852
vt 0.621582 0.681152
vt -0.392334 0.661133
vt -0.467773 0.673340
vt -0.314697 0.590820
vt -0.467773 0.673340
vt -0.392334 0.661133
vt -0.314697 0.590820
vt 0.720459 0.672852
vt -0.042236 0.171387
vt -0.039062 0.193359
vt -0.042236 0.201660
vt -0.121094 -0.277100
vt -0.091309 -0.274414
vt -0.117920 -0.264404
vt -0.836670 0.269531
vt -0.836670 0.512695
vt -0.042236 0.171387
vt -0.042236 0.201660
vt -0.039062 0.193359
vt -0.121094 -0.277100
vt -0.117920 -0.264404
vt -0.091309 -0.274414
vt 0.675537 0.685547
vt 0.675537 0.685547
vt 0.675537 0.685547
vt 0.675537 0.685547
vt 0.621582 0.681152
vt 1.651855 0.535400
vt 1.698242 0.535400
vt 1.682129 0.539551
vt 1.697021 0.539551
vt 0.246338 0.225098
vt 0.246338 0.426025
vt 0.203369 0.427979
vt 0.189209 0.224365
vt 0.246338 0.201660
vt 0.189209 0.205322
vt 0.749023 0.734863
vt 0.749023 0.733154
vt 0.617920 0.733154
vt 0.617920 0.736084
vt 0.749023 0.736084
vt 0.749023 0.734863
vt 1.552979 0.015137
vt 1.604980 0.015137
vt 1.583496 0.609619
vt 1.429932 0.624023
vt 1.429932 0.015137
vt 1.307129 0.015137
vt 0.000732 0.409424
vt -0.256348 0.409424
vt 0.257812 0.409424
vt 0.263428 -0.089355
vt 0.034180 0.141602
vt 0.020996 0.188477
vt 0.021729 0.143555
vt 0.021729 0.143555
vt 0.034180 0.141602
vt 0.020996 0.188477
vt 0.189209 0.224365
vt 0.189209 0.428711
vt 0.203369 0.427979
vt 0.246338 0.225098
vt 0.246338 0.201660
vt -0.212891 0.998291
vt -0.351074 0.965820
vt -0.000488 0.590820
vt -0.000488 0.998291
vt -0.468506 0.906494
vt -0.351074 0.965820
vt -0.212891 0.998291
vt 0.117676 -0.056641
vt 0.136963 -0.054932
vt 0.130371 -0.167725
vt 0.104980 -0.167725
vt 0.098389 -0.054932
vt 0.215088 -0.040527
vt 0.218018 -0.044922
vt 0.217773 -0.188721
vt 0.212646 -0.188721
vt 0.212402 -0.044922
vt 0.009277 0.590820
vt 0.009277 0.998291
vt 0.203125 0.998291
vt 0.478760 0.998291
vt 0.477295 0.590820
vt -0.707520 0.677734
vt -0.580810 0.677734
vt -0.580810 0.688965
vt -0.707520 0.688965
vt -0.707520 0.689209
vt -0.580810 0.688965
vt -0.707520 0.688965
vt 0.203125 0.998291
vt 0.009277 0.998291
vt 0.009277 0.590820
vt 0.478760 0.998291
vt 1.276611 0.609619
vt 1.254883 0.015137
vt 0.617920 0.733154
vt 0.749023 0.733154
vt -0.261963 -0.089355
vt -0.000488 0.590820
vt -0.000488 0.998291
vt 0.421387 0.606201
vt 0.437256 0.606201
vt 0.437256 0.035645
vt 0.421387 0.035645
vt -0.376709 0.029053
vt -0.267334 0.029053
vt -0.267334 0.473145
vt -0.376709 0.473145
vt -0.376709 0.029053
vt -0.267334 0.029053
vt -0.267334 0.473145
vt -0.376709 0.473145
vt -0.376709 0.029053
vt -0.267334 0.029053
vt -0.267334 0.473145
vt -0.376709 0.473145
vt -0.376709 0.473145
vt -0.267334 0.473145
vt -0.267334 0.029053
vt -0.376709 0.029053
vt -0.376709 0.473145
vt -0.267334 0.473145
vt -0.267334 0.029053
vt -0.376709 0.029053
vt -0.376709 0.473145
vt -0.267334 0.473145
vt -0.267334 0.029053
vt -0.376709 0.029053
vt -0.376709 0.473145
vt -0.267334 0.473145
vt -0.267334 0.029053
vt -0.376709 0.029053
vt -0.376709 0.473145
vt -0.267334 0.473145
vt -0.267334 0.029053
vt -0.376709 0.029053
vt -0.376709 0.029053
vt -0.267334 0.029053
vt -0.267334 0.473145
vt -0.376709 0.473145
vt -0.376709 0.029053
vt -0.267334 0.029053
vt -0.267334 0.473145
vt -0.376709 0.473145
vt -0.267334 0.473145
vt -0.267334 0.029053
vt -0.376709 0.029053
vt -0.376709 0.473145
vt -0.267334 0.473145
vt -0.267334 0.029053
vt -0.376709 0.029053
vt -0.376709 0.473145
vt -0.267334 0.473145
vt -0.267334 0.029053
vt -0.376709 0.029053
vt -0.376709 0.473145
vt -0.267334 0.029053
vt -0.267334 0.473145
vt -0.376709 0.473145
vt -0.376709 0.029053
vt -0.267334 0.029053
vt -0.267334 0.473145
vt -0.376709 0.473145
vt -0.376709 0.029053
vt -0.267334 0.029053
vt -0.267334 0.473145
vt -0.376709 0.473145
vt -0.376709 0.029053
vt -0.267334 0.029053
vt -0.267334 0.473145
vt -0.376709 0.473145
vt -0.376709 0.029053
vt -0.267334 0.029053
vt -0.267334 0.473145
vt -0.376709 0.473145
vt -0.376709 0.029053
vt -0.267334 0.473145
vt -0.267334 0.029053
vt -0.376709 0.029053
vt -0.376709 0.473145
vt -0.376709 0.029053
vt -0.267334 0.029053
vt -0.267334 0.473145
vt -0.376709 0.473145
vt -0.376709 0.029053
vt -0.267334 0.029053
vt -0.267334 0.473145
vt -0.376709 0.473145
vt -0.376709 0.029053
vt -0.267334 0.029053
vt -0.267334 0.473145
vt -0.376709 0.473145
vt -0.376709 0.473145
vt -0.267334 0.473145
vt -0.267334 0.029053
vt -0.376709 0.029053
vt -0.376709 0.473145
vt -0.267334 0.473145
vt -0.267334 0.029053
vt -0.376709 0.029053
vt -0.376709 0.473145
vt -0.267334 0.473145
vt -0.267334 0.029053
vt -0.376709 0.029053
vt -0.376709 0.473145
vt -0.267334 0.473145
vt -0.267334 0.029053
vt -0.376709 0.029053
vt -0.376709 0.473145
vt -0.267334 0.473145
vt -0.267334 0.029053
vt -0.376709 0.029053
vt -0.376709 0.029053
vt -0.267334 0.029053
vt -0.267334 0.473145
vt -0.376709 0.473145
vt -0.376709 0.029053
vt -0.267334 0.029053
vt -0.267334 0.473145
vt -0.376709 0.473145
vt -0.267334 0.473145
vt -0.267334 0.029053
vt -0.376709 0.029053
vt -0.376709 0.473145
vt -0.267334 0.473145
vt -0.267334 0.029053
vt -0.376709 0.029053
vt -0.376709 0.473145
vt -0.267334 0.473145
vt -0.267334 0.029053
vt -0.376709 0.029053
vt -0.376709 0.473145
vt -0.267334 0.029053
vt -0.267334 0.473145
vt -0.376709 0.473145
vt -0.376709 0.029053
vt -0.267334 0.029053
vt -0.267334 0.473145
vt -0.376709 0.473145
vt -0.376709 0.029053
vt -0.267334 0.029053
vt -0.267334 0.473145
vt -0.376709 0.473145
vt -0.376709 0.029053
vt -0.267334 0.029053
vt -0.267334 0.473145
vt -0.376709 0.473145
vt -0.376709 0.029053
vt -0.267334 0.029053
vt -0.267334 0.473145
vt -0.376709 0.473145
vt -0.376709 0.029053
vt -0.267334 0.473145
vt -0.267334 0.029053
vt -0.376709 0.029053
vt -0.376709 0.473145
vt -0.267334 0.473145
vt -0.267334 0.029053
vt -0.376709 0.029053
vt -0.376709 0.473145
vt -0.267334 0.473145
vt -0.267334 0.029053
vt -0.376709 0.029053
vt -0.376709 0.473145
vt -1.128174 -0.016113
vt -0.789062 -0.016113
vt -0.789062 0.229004
vt -1.128174 0.229004
vt -0.789062 0.229004
vt -0.789062 -0.016113
vt -1.128174 -0.016113
vt -1.128174 0.229004
vt 0.421387 0.606201
vt 0.421387 0.035645
vt 0.437256 0.035645
vt 0.437256 0.606201
vt 3.590332 0.015137
vt 3.287109 0.015137
vt 3.292236 0.608154
vt 3.590332 0.608154
vt 3.590332 0.015137
vt 3.256836 0.015137
vt 3.266846 0.608154
vt 3.590332 0.608154
vt 2.428467 0.015137
vt 2.749756 0.015137
vt 2.741211 0.608154
vt 2.428467 0.608154
vt 0.258789 0.578125
vt 0.258789 0.390381
vt 0.002686 0.390381
vt -0.255859 0.578125
vt 2.741211 0.608154
vt 2.749756 0.015137
vt 2.428467 0.015137
vt 2.428467 0.608154
vt 1.697021 0.531006
vt 1.682129 0.531006
vt -0.580810 0.689209
vt 3.266846 0.608154
vt 3.256836 0.015137
vt 3.590332 0.015137
vt 3.590332 0.608154
vt -0.468506 0.906494
vt 3.292236 0.608154
vt 3.287109 0.015137
vt 3.590332 0.015137
vt 3.590332 0.608154
vt 0.694336 0.610352
vt 0.696045 0.009033
vt 0.647461 0.011475
vt 0.570801 0.626465
vt 0.570801 0.013916
vt 0.445312 0.610352
vt 0.445312 0.009033
vt 0.493897 0.011475
vt 0.246338 0.426025
vt -0.255859 0.390381
vt 0.189209 0.205322
vt 0.189209 0.428711
vt 0.477295 0.590820
vn 1.0000 0.0000 0.0000
vn -0.0415 0.9991 0.0019
vn 0.9821 -0.1881 0.0086
vn 0.9816 -0.1910 0.0089
vn -1.0000 0.0000 0.0000
vn 0.1751 0.0000 0.9846
vn 0.0909 0.0897 0.9918
vn -0.1751 0.0000 0.9846
vn -0.0909 0.0897 0.9918
vn 0.0000 0.2531 -0.9674
vn 0.0000 0.0202 0.9998
vn 0.8070 0.2789 -0.5205
vn 0.8257 0.2906 -0.4834
vn -0.8667 0.2744 -0.4165
vn -0.8956 0.2100 -0.3921
vn 0.7528 0.6582 0.0040
vn 0.7447 0.6674 0.0030
vn -0.8154 0.5788 0.0026
vn -0.8084 0.5886 0.0036
vn 0.7918 0.4723 0.3872
vn 0.7591 0.5190 0.3930
vn -0.8478 0.4310 0.3091
vn -0.8175 0.4454 0.3651
vn -0.8070 0.2789 -0.5205
vn -0.8257 0.2906 -0.4834
vn 0.8667 0.2744 -0.4165
vn 0.8956 0.2100 -0.3921
vn -0.7528 0.6582 0.0040
vn -0.7447 0.6674 0.0030
vn 0.8154 0.5788 0.0026
vn 0.8084 0.5886 0.0036
vn -0.7918 0.4723 0.3872
vn -0.7591 0.5190 0.3930
vn 0.8478 0.4310 0.3091
vn 0.8175 0.4454 0.3651
vn 0.0000 0.3575 0.9339
vn 0.0000 -0.2268 -0.9739
vn -0.9821 -0.1881 0.0086
vn -0.9816 -0.1910 0.0089
vn 0.0000 1.0000 0.0000
vn 0.0000 -0.2808 0.9598
vn 0.0000 -0.1748 0.9846
vn -0.0000 -1.0000 -0.0000
vn 0.1777 0.1498 0.9726
vn 0.1256 0.2182 0.9678
vn -0.1777 0.1498 0.9726
vn -0.1256 0.2182 0.9678
vn 0.0000 -0.5482 0.8363
vn 0.0026 -0.5575 0.8302
vn 0.0047 -1.0000 -0.0000
vn 0.0023 -0.4824 -0.8760
vn 0.0000 -0.4914 -0.8709
vn 0.0214 0.9874 0.1567
vn 0.0195 0.9240 0.3820
vn 0.0417 0.9991 0.0019
vn 0.5038 0.4156 -0.7573
vn 0.3626 0.5562 -0.7478
vn 0.0588 -0.5872 0.8073
vn 0.1515 -0.3377 0.9290
vn 0.5116 0.8592 0.0000
vn 0.4704 0.4136 0.7795
vn 0.5046 0.4187 0.7550
vn 0.4948 0.8690 0.0000
vn 0.4226 0.5065 -0.7516
vn 0.4622 0.8868 0.0000
vn 0.3441 0.5129 0.7865
vn 0.4585 0.5884 0.6660
vn 0.9798 0.0000 0.1998
vn 0.4326 0.9016 0.0000
vn 0.2314 0.9712 0.0566
vn 0.0000 -0.8000 -0.6000
vn 0.0000 0.4878 -0.8730
vn -0.0214 0.9874 0.1567
vn -0.0195 0.9240 0.3820
vn -0.5038 0.4156 -0.7573
vn -0.3626 0.5562 -0.7478
vn -0.0532 -0.6004 0.7979
vn -0.1515 -0.3377 0.9290
vn -0.5116 0.8592 0.0000
vn -0.4704 0.4136 0.7795
vn -0.5046 0.4187 0.7550
vn -0.4948 0.8690 0.0000
vn -0.4226 0.5065 -0.7516
vn -0.4622 0.8868 0.0000
vn -0.3441 0.5129 0.7865
vn -0.4585 0.5884 0.6660
vn -0.9798 0.0000 0.1998
vn -0.4326 0.9016 0.0000
vn -0.2314 0.9712 0.0566
vn 0.0000 0.9505 -0.3109
vn 0.0031 -0.6599 -0.7514
vn 0.0000 -0.6892 -0.7246
vn -0.0040 0.8643 0.5029
vn 0.0000 -0.8773 -0.4799
vn -0.1257 0.1511 0.9805
vn 0.4178 -0.9040 -0.0906
vn 0.2785 0.9581 -0.0662
vn 0.0207 -0.9883 0.1511
vn 0.0768 -0.9970 0.0127
vn -0.4178 -0.9040 -0.0906
vn -0.2785 0.9581 -0.0662
vn -0.9851 -0.1486 0.0862
vn 0.9851 -0.1486 0.0862
vn -0.0207 -0.9883 0.1511
vn -0.0768 -0.9970 0.0127
vn -0.9319 -0.0707 -0.3558
vn 0.9339 0.3568 0.0230
vn 0.1257 0.1511 0.9805
vn 0.9319 -0.0707 -0.3558
vn -0.9339 0.3568 0.0230
vn 0.0000 0.2839 0.9589
vn 0.0000 -0.5636 -0.8261
vn 0.0019 0.8402 0.5423
vn -0.6070 0.7945 0.0136
vn -0.1608 0.8339 0.5279
vn 0.0000 0.8474 -0.5309
vn 0.6056 0.7957 -0.0062
vn 0.5314 0.7451 -0.4031
vn -0.2646 0.9170 0.2985
vn -0.1272 0.8565 0.5001
vn -0.1700 0.8470 0.5036
vn -0.6921 0.7122 0.1170
vn -0.1714 0.5970 0.7837
vn -0.6150 0.5746 0.5400
vn -0.1199 -0.0992 0.9878
vn -0.7059 -0.0256 0.7078
vn -0.7198 -0.2740 0.6378
vn 0.0000 -0.4033 0.9151
vn 0.0000 -0.1037 0.9946
vn 0.1199 -0.0992 0.9878
vn -0.1554 0.3279 -0.9318
vn -0.7447 0.2731 -0.6089
vn -0.5314 0.7451 -0.4031
vn 0.0000 0.3401 -0.9404
vn 0.1554 0.3279 -0.9318
vn -0.0686 -0.0083 -0.9976
vn 0.0686 -0.0083 -0.9976
vn -0.1518 0.1552 -0.9761
vn 0.1714 0.5970 0.7837
vn 0.2646 0.9170 0.2985
vn 0.2051 0.9008 0.3828
vn -0.2051 0.9008 0.3828
vn 0.6921 0.7122 0.1170
vn 0.8648 0.4489 0.2248
vn 0.1683 0.8476 0.5032
vn 0.9990 0.0373 0.0229
vn 0.9998 0.0191 0.0056
vn 0.9854 0.1682 0.0233
vn -0.9990 0.0373 0.0229
vn -0.8648 0.4489 0.2248
vn 0.0000 0.8359 0.5488
vn 0.0032 0.8988 0.4384
vn -0.4520 0.7768 0.4385
vn 0.4520 0.7768 0.4385
vn 0.0836 0.9917 0.0980
vn -0.9998 0.0191 0.0056
vn -0.9854 0.1682 0.0233
vn -0.9877 0.1535 -0.0285
vn -0.7121 0.1390 -0.6882
vn 0.0000 -0.6249 0.7807
vn 0.5636 -0.5746 0.5935
vn 0.5869 0.5139 0.6256
vn 0.0000 0.6229 0.7823
vn -0.5869 0.5139 0.6256
vn 0.5614 0.5274 -0.6377
vn 0.8940 0.3477 -0.2824
vn 0.7578 -0.5730 0.3120
vn 0.5775 -0.4873 -0.6550
vn 0.0000 -0.6854 -0.7282
vn -0.5614 0.5274 -0.6377
vn -0.5775 -0.4873 -0.6550
vn -0.7577 -0.5753 0.3078
vn -0.8940 0.3477 -0.2824
vn 0.9877 0.1535 -0.0285
vn 0.7447 0.2731 -0.6089
vn 0.7198 -0.2740 0.6378
vn 0.7059 -0.0256 0.7078
vn 0.1518 0.1552 -0.9761
vn -0.0771 0.2095 -0.9748
vn 0.5585 0.7629 0.3256
vn 0.1578 0.8335 0.5295
vn 0.0000 -0.9510 -0.3090
vn 0.0000 -0.9510 0.3090
vn 0.0000 -0.5341 0.8454
vn 0.0000 0.0000 1.0000
vn 0.0000 0.5341 0.8454
vn 0.0000 0.9510 0.3090
vn 0.0000 0.9510 -0.3090
vn 0.0000 0.5341 -0.8454
vn 0.0000 0.0000 -1.0000
vn 0.0000 -0.5341 -0.8454
vn 0.7121 0.1390 -0.6882
vn -0.5593 0.7630 0.3241
vn -0.6056 0.7957 -0.0062
vn 0.6070 0.7945 0.0136
vn 0.0000 0.6854 -0.7282
vn 0.6150 0.5746 0.5400
vn 0.0771 0.2095 -0.9748
vn -0.5636 -0.5746 0.5935
usemtl Car
s off
f 3/1/1 1/2/1 2/3/1
f 4/4/1 3/1/1 2/3/1
f 5/5/1 3/1/1 4/4/1
f 6/6/1 5/5/1 4/4/1
f 7/7/1 5/5/1 6/6/1
f 8/8/1 7/7/1 6/6/1
f 9/9/1 7/7/1 8/8/1
f 10/10/1 9/9/1 8/8/1
f 11/11/1 9/9/1 10/10/1
f 12/12/1 11/11/1 10/10/1
f 13/13/1 11/11/1 12/12/1
f 14/14/1 13/13/1 12/12/1
f 15/15/1 13/13/1 14/14/1
f 16/16/1 15/15/1 14/14/1
f 19/17/2 17/18/2 18/19/2
f 87/20/3 85/21/3 86/22/3
f 88/23/4 87/20/4 86/22/4
f 111/24/5 109/25/5 110/26/5
f 112/27/5 111/24/5 110/26/5
f 115/28/1 113/29/1 114/30/1
f 116/31/1 115/28/1 114/30/1
f 139/32/1 137/33/1 138/34/1
f 140/35/1 139/32/1 138/34/1
f 143/36/5 141/37/5 142/38/5
f 144/39/5 143/36/5 142/38/5
f 167/40/5 165/41/5 166/42/5
f 168/43/5 167/40/5 166/42/5
f 171/44/1 169/45/1 170/46/1
f 172/47/1 171/44/1 170/46/1
f 195/48/1 193/49/1 194/50/1
f 196/51/1 195/48/1 194/50/1
f 199/52/5 197/53/5 198/54/5
f 200/55/5 199/52/5 198/54/5
f 203/56/6 201/57/6 202/58/6
f 204/59/7 203/56/7 202/58/7
f 207/60/8 205/61/8 206/62/8
f 208/63/9 207/60/9 206/62/9
f 211/64/10 209/65/10 210/66/10
f 212/67/10 211/64/10 210/66/10
f 215/68/11 213/69/11 214/70/11
f 216/71/11 215/68/11 214/70/11
f 219/72/12 217/73/12 218/74/12
f 220/75/13 219/72/13 218/74/13
f 221/76/14 219/72/14 220/75/14
f 222/77/15 221/76/15 220/75/15
f 224/78/16 223/79/16 217/73/16
f 219/72/17 224/78/17 217/73/17
f 225/80/18 224/78/18 219/72/18
f 221/76/19 225/80/19 219/72/19
f 227/81/20 226/82/20 223/79/20
f 224/78/21 227/81/21 223/79/21
f 228/83/22 227/81/22 224/78/22
f 225/80/23 228/83/23 224/78/23
f 231/84/24 229/85/24 230/86/24
f 232/87/25 231/84/25 230/86/25
f 232/87/26 230/86/26 233/88/26
f 234/89/27 232/87/27 233/88/27
f 229/85/28 235/90/28 236/91/28
f 230/86/29 229/85/29 236/91/29
f 230/86/30 236/91/30 237/92/30
f 233/88/31 230/86/31 237/92/31
f 235/90/32 238/93/32 239/94/32
f 236/91/33 235/90/33 239/94/33
f 236/91/34 239/94/34 240/95/34
f 237/92/35 236/91/35 240/95/35
f 243/96/36 241/97/36 242/98/36
f 244/99/36 243/96/36 242/98/36
f 245/100/37 85/21/37 87/20/37
f 246/101/37 245/100/37 87/20/37
f 247/102/38 245/100/38 246/101/38
f 248/103/39 247/102/39 246/101/39
f 249/104/40 243/105/40 244/106/40
f 250/107/40 249/104/40 244/106/40
f 241/108/41 251/109/41 252/110/41
f 242/111/41 241/108/41 252/110/41
f 255/112/36 253/113/36 254/114/36
f 256/115/36 255/112/36 254/114/36
f 247/102/42 248/103/42 88/23/42
f 86/22/42 247/102/42 88/23/42
f 248/116/43 246/117/43 87/118/43
f 88/119/43 248/116/43 87/118/43
f 256/120/40 254/121/40 257/122/40
f 258/123/40 256/120/40 257/122/40
f 260/124/41 259/125/41 253/126/41
f 255/127/41 260/124/41 253/126/41
f 262/128/44 46/129/44 35/130/44
f 80/131/45 262/128/45 35/130/45
f 32/132/46 28/133/46 29/134/46
f 30/135/47 32/132/47 29/134/47
f 264/136/43 7/137/43 9/138/43
f 265/139/43 264/136/43 9/138/43
f 265/139/48 9/138/48 11/140/48
f 266/141/49 265/139/49 11/140/49
f 266/141/50 11/140/50 13/142/50
f 267/143/50 266/141/50 13/142/50
f 268/144/51 5/145/51 7/137/51
f 264/136/52 268/144/52 7/137/52
f 270/146/53 68/147/53 66/148/53
f 271/149/54 270/146/54 66/148/54
f 83/150/55 84/151/55 269/152/55
f 274/153/56 273/154/56 4/155/56
f 2/156/57 274/153/57 4/155/57
f 1/157/58 3/158/58 275/159/58
f 276/160/59 1/157/59 275/159/59
f 273/161/60 277/162/60 6/163/60
f 4/164/60 273/161/60 6/163/60
f 277/165/61 278/166/61 8/167/61
f 6/168/62 277/165/62 8/167/62
f 278/169/63 279/170/63 10/171/63
f 8/172/63 278/169/63 10/171/63
f 279/173/64 280/174/64 12/175/64
f 10/176/64 279/173/64 12/175/64
f 280/177/65 281/178/65 14/179/65
f 12/180/65 280/177/65 14/179/65
f 281/181/66 282/182/66 16/183/66
f 14/184/67 281/181/67 16/183/67
f 16/16/68 66/185/68 65/186/68
f 15/15/68 16/16/68 65/186/68
f 282/187/69 271/149/69 66/148/69
f 16/188/70 282/187/70 66/148/70
f 283/189/71 42/190/71 41/191/71
f 284/192/71 283/189/71 41/191/71
f 285/193/72 283/189/72 284/192/72
f 81/194/72 285/193/72 284/192/72
f 69/195/73 68/147/73 270/146/73
f 286/196/74 69/195/74 270/146/74
f 76/197/5 75/198/5 287/199/5
f 288/200/5 76/197/5 287/199/5
f 288/201/75 289/202/75 290/203/75
f 76/204/76 288/201/76 290/203/76
f 275/159/77 287/205/77 75/206/77
f 291/207/78 275/159/78 75/206/78
f 288/200/5 287/199/5 268/208/5
f 292/209/5 288/200/5 268/208/5
f 292/210/79 293/211/79 289/212/79
f 288/213/79 292/210/79 289/212/79
f 292/209/5 268/208/5 264/214/5
f 294/215/5 292/209/5 264/214/5
f 294/216/80 295/217/80 293/218/80
f 292/219/81 294/216/81 293/218/81
f 294/215/5 264/214/5 265/220/5
f 296/221/5 294/215/5 265/220/5
f 296/222/82 297/223/82 295/224/82
f 294/225/82 296/222/82 295/224/82
f 296/221/5 265/220/5 266/226/5
f 298/227/5 296/221/5 266/226/5
f 298/228/83 299/229/83 297/230/83
f 296/231/83 298/228/83 297/230/83
f 298/227/5 266/226/5 267/232/5
f 300/233/5 298/227/5 267/232/5
f 300/234/84 301/235/84 299/236/84
f 298/237/84 300/234/84 299/236/84
f 303/238/5 302/239/5 300/233/5
f 267/232/5 303/238/5 300/233/5
f 302/240/85 304/241/85 301/242/85
f 300/243/86 302/240/86 301/242/86
f 305/244/87 69/245/87 302/239/87
f 303/238/87 305/244/87 302/239/87
f 69/195/88 286/196/88 304/246/88
f 302/247/89 69/195/89 304/246/89
f 249/248/5 306/249/5 251/250/5
f 243/251/5 249/248/5 251/250/5
f 242/252/1 252/253/1 307/254/1
f 244/255/1 242/252/1 307/254/1
f 259/256/1 308/257/1 257/258/1
f 253/259/1 259/256/1 257/258/1
f 309/260/5 260/261/5 255/262/5
f 258/263/5 309/260/5 255/262/5
f 290/264/90 274/265/90 70/266/90
f 74/267/90 290/264/90 70/266/90
f 267/143/91 13/142/91 15/268/91
f 303/269/92 267/143/92 15/268/92
f 287/205/93 275/159/93 3/158/93
f 268/144/50 287/205/50 3/158/50
f 73/270/43 72/271/43 71/272/43
f 291/207/94 73/270/94 71/272/94
f 28/273/95 32/274/95 34/275/95
f 276/160/96 71/272/96 1/157/96
f 70/266/97 274/265/97 2/276/97
f 67/277/98 310/278/98 65/279/98
f 65/279/99 310/278/99 15/268/99
f 291/207/100 75/206/100 73/270/100
f 74/267/101 76/280/101 290/264/101
f 31/281/102 30/282/102 54/283/102
f 80/284/103 79/285/103 51/286/103
f 67/277/104 305/287/104 310/278/104
f 305/287/105 303/269/105 310/278/105
f 81/288/106 284/289/106 41/290/106
f 44/291/107 60/292/107 59/293/107
f 46/294/108 34/275/108 35/295/108
f 285/296/109 42/297/109 283/298/109
f 26/299/110 57/300/110 24/301/110
f 34/275/111 46/294/111 28/273/111
f 243/251/5 251/250/5 241/302/5
f 244/255/1 307/254/1 250/303/1
f 253/259/1 257/258/1 254/304/1
f 258/263/5 255/262/5 256/305/5
f 74/267/40 70/266/40 272/306/40
f 303/269/112 15/268/112 310/278/112
f 268/144/50 3/158/50 5/145/50
f 291/207/94 71/272/94 276/160/94
s 1
f 20/307/113 19/17/114 18/19/115
f 21/308/116 19/17/114 20/307/113
f 22/309/117 21/308/116 20/307/113
f 23/310/118 21/308/116 22/309/117
f 26/311/119 24/312/120 25/313/121
f 27/314/122 26/311/119 25/313/121
f 28/315/123 26/311/119 27/314/122
f 29/316/124 28/315/123 27/314/122
f 32/317/125 30/318/126 31/319/127
f 33/320/128 32/317/125 31/319/127
f 34/321/129 32/317/125 33/320/128
f 35/322/130 34/321/129 33/320/128
f 38/323/131 36/324/132 37/325/133
f 21/326/116 38/323/131 37/325/133
f 39/327/134 38/323/131 21/326/116
f 40/328/135 39/327/134 21/326/116
f 39/329/134 40/330/135 41/191/136
f 42/190/137 39/329/134 41/191/136
f 38/331/131 39/329/134 42/190/137
f 43/332/138 38/331/131 42/190/137
f 46/333/139 44/334/140 45/335/141
f 47/336/142 46/333/139 45/335/141
f 28/337/123 46/333/139 47/336/142
f 26/338/119 28/337/123 47/336/142
f 50/339/143 48/340/144 49/341/145
f 44/342/140 50/339/143 49/341/145
f 46/343/139 50/339/143 44/342/140
f 48/344/144 50/345/143 51/286/146
f 52/346/147 48/344/144 51/286/146
f 53/347/148 48/344/144 52/346/147
f 54/283/149 30/282/126 29/348/124
f 27/349/122 54/283/149 29/348/124
f 55/350/150 54/283/149 27/349/122
f 56/351/151 26/352/119 47/353/142
f 45/354/141 56/351/151 47/353/142
f 44/355/140 56/351/151 45/354/141
f 58/356/152 24/357/120 57/358/153
f 59/359/154 58/356/152 57/358/153
f 60/360/155 58/356/152 59/359/154
f 63/361/156 61/362/157 62/363/158
f 36/364/132 63/361/156 62/363/158
f 64/365/159 63/361/156 36/364/132
f 67/366/160 65/186/161 66/185/162
f 68/367/163 67/366/160 66/185/162
f 69/245/164 67/366/160 68/367/163
f 70/368/165 2/3/166 1/2/167
f 71/369/168 70/368/165 1/2/167
f 72/370/169 70/368/165 71/369/168
f 74/371/170 72/370/169 73/372/171
f 75/198/172 74/371/170 73/372/171
f 76/197/173 74/371/170 75/198/172
f 77/373/174 53/374/148 52/375/147
f 78/376/175 77/373/174 52/375/147
f 40/328/135 21/326/116 23/377/118
f 78/378/175 40/328/135 23/377/118
f 35/322/130 33/320/128 79/379/176
f 80/380/177 35/322/130 79/379/176
f 82/381/178 81/194/179 41/191/136
f 40/330/135 82/381/178 41/191/136
f 63/382/156 54/283/149 55/350/150
f 61/383/157 63/382/156 55/350/150
f 84/384/180 83/385/181 49/386/145
f 48/387/144 84/384/180 49/386/145
f 91/388/182 89/389/183 90/390/183
f 92/391/182 91/388/182 90/390/183
f 89/392/183 93/393/184 94/394/184
f 90/395/183 89/392/183 94/394/184
f 93/396/184 95/397/185 96/398/185
f 94/399/184 93/396/184 96/398/185
f 95/400/185 97/401/186 98/402/186
f 96/403/185 95/400/185 98/402/186
f 97/404/186 99/405/187 100/406/187
f 98/407/186 97/404/186 100/406/187
f 99/408/187 101/409/188 102/410/188
f 100/411/187 99/408/187 102/410/188
f 101/412/188 103/413/189 104/414/189
f 102/415/188 101/412/188 104/414/189
f 103/416/189 105/417/190 106/418/190
f 104/419/189 103/416/189 106/418/190
f 105/420/190 107/421/191 108/422/191
f 106/423/190 105/420/190 108/422/191
f 107/424/191 91/425/182 92/426/182
f 108/427/191 107/424/191 92/426/182
f 119/428/183 117/429/183 118/430/182
f 120/431/182 119/428/183 118/430/182
f 122/432/184 121/433/184 117/434/183
f 119/435/183 122/432/184 117/434/183
f 124/436/185 123/437/185 121/438/184
f 122/439/184 124/436/185 121/438/184
f 126/440/186 125/441/186 123/442/185
f 124/443/185 126/440/186 123/442/185
f 128/444/187 127/445/187 125/446/186
f 126/447/186 128/444/187 125/446/186
f 130/448/188 129/449/188 127/450/187
f 128/451/187 130/448/188 127/450/187
f 132/452/189 131/453/189 129/454/188
f 130/455/188 132/452/189 129/454/188
f 134/456/190 133/457/190 131/458/189
f 132/459/189 134/456/190 131/458/189
f 120/460/182 118/461/182 135/462/191
f 136/463/191 120/460/182 135/462/191
f 147/464/182 145/465/183 146/466/183
f 148/467/182 147/464/182 146/466/183
f 145/468/183 149/469/184 150/470/184
f 146/471/183 145/468/183 150/470/184
f 149/472/184 151/473/185 152/474/185
f 150/475/184 149/472/184 152/474/185
f 151/476/185 153/477/186 154/478/186
f 152/479/185 151/476/185 154/478/186
f 153/480/186 155/481/187 156/482/187
f 154/483/186 153/480/186 156/482/187
f 155/484/187 157/485/188 158/486/188
f 156/487/187 155/484/187 158/486/188
f 157/488/188 159/489/189 160/490/189
f 158/491/188 157/488/188 160/490/189
f 159/492/189 161/493/190 162/494/190
f 160/495/189 159/492/189 162/494/190
f 161/496/190 163/497/191 164/498/191
f 162/499/190 161/496/190 164/498/191
f 163/500/191 147/501/182 148/502/182
f 164/503/191 163/500/191 148/502/182
f 175/504/183 173/505/183 174/506/182
f 176/507/182 175/504/183 174/506/182
f 178/508/184 177/509/184 173/510/183
f 175/511/183 178/508/184 173/510/183
f 180/512/185 179/513/185 177/514/184
f 178/515/184 180/512/185 177/514/184
f 182/516/186 181/517/186 179/518/185
f 180/519/185 182/516/186 179/518/185
f 184/520/187 183/521/187 181/522/186
f 182/523/186 184/520/187 181/522/186
f 186/524/188 185/525/188 183/526/187
f 184/527/187 186/524/188 183/526/187
f 188/528/189 187/529/189 185/530/188
f 186/531/188 188/528/189 185/530/188
f 190/532/190 189/533/190 187/534/189
f 188/535/189 190/532/190 187/534/189
f 192/536/191 191/537/191 189/538/190
f 190/539/190 192/536/191 189/538/190
f 176/540/182 174/541/182 191/542/191
f 192/543/191 176/540/182 191/542/191
f 136/544/191 135/545/191 133/546/190
f 134/547/190 136/544/191 133/546/190
f 78/548/175 261/549/192 82/550/178
f 40/551/135 78/548/175 82/550/178
f 43/552/138 64/553/159 36/554/132
f 38/555/131 43/552/138 36/554/132
f 17/556/193 55/557/150 25/558/121
f 18/559/115 17/556/193 25/558/121
f 36/560/132 62/561/158 263/562/194
f 37/563/133 36/560/132 263/562/194
f 62/564/158 61/565/157 19/566/114
f 263/567/194 62/564/158 19/566/114
f 61/568/157 55/569/150 17/570/193
f 19/571/114 61/568/157 17/570/193
f 57/572/153 26/573/119 56/574/151
f 59/575/154 57/572/153 56/574/151
f 84/576/180 48/577/144 53/578/148
f 269/579/195 84/576/180 53/578/148
f 21/308/116 37/580/133 263/581/194
f 19/17/114 21/308/116 263/581/194
f 272/582/196 70/368/165 72/370/169
f 74/371/170 272/582/196 72/370/169
f 20/307/113 83/150/181 269/152/195
f 269/583/195 53/584/148 77/585/174
f 22/586/117 269/583/195 77/585/174
f 262/587/197 80/284/177 51/286/146
f 50/345/143 262/587/197 51/286/146
f 22/588/117 77/589/174 78/590/175
f 23/591/118 22/588/117 78/590/175
f 18/592/115 25/593/121 24/594/120
f 20/595/113 18/592/115 24/594/120
f 20/595/113 24/594/120 58/596/152
f 83/597/181 20/595/113 58/596/152
f 49/598/145 83/597/181 58/596/152
f 60/599/155 49/598/145 58/596/152
f 49/341/145 60/600/155 44/342/140
f 56/574/151 44/601/140 59/575/154
f 46/343/139 262/602/197 50/339/143
f 43/332/138 42/190/137 285/193/198
f 55/603/150 27/314/122 25/313/121
f 22/309/117 20/307/113 269/152/195
f 261/604/192 78/376/175 52/375/147
f 67/366/160 69/245/164 305/244/199
