# Blender 4.0.0
# www.blender.org
mtllib Chef.mtl
o Chef
v 0.029418 0.057418 -0.010540
v 0.041655 0.055458 -0.041279
v 0.030116 0.096615 -0.013798
v 0.052100 0.098393 -0.044139
v 0.061282 0.055458 -0.041279
v -0.041655 0.055458 -0.041279
v -0.052100 0.098393 -0.044139
v -0.061282 0.055458 -0.041279
v -0.015840 0.303524 -0.001053
v -0.028388 0.311455 -0.039164
v -0.032420 0.270065 -0.043101
v -0.019120 0.202347 -0.015240
v -0.033532 0.212017 -0.053181
v -0.069345 0.217479 -0.053181
v -0.068872 0.272945 -0.043036
v -0.084500 0.245429 -0.005213
v -0.083014 0.274946 -0.002451
v -0.067015 0.312274 -0.039239
v -0.069718 0.374920 -0.044614
v -0.025055 0.374208 -0.044724
v -0.054512 0.843530 0.043732
v -0.062010 0.838008 -0.008458
v -0.047041 0.890434 0.052155
v -0.059901 0.889247 -0.009526
v 0.025759 0.836563 -0.049313
v 0.026040 0.885614 -0.048162
v 0.043740 0.903305 0.037019
v 0.049279 0.915580 0.043125
v -0.005044 0.881118 0.091295
v 0.000000 0.880427 0.093814
v 0.000000 0.886288 0.094242
v 0.000000 0.907473 0.078627
v -0.049222 0.915580 0.043125
v 0.000000 0.864878 0.078390
v 0.000000 0.868557 0.057716
v 0.010763 0.867827 0.061752
v 0.049381 0.954860 0.037980
v -0.090885 0.725582 0.029497
v -0.090963 0.705089 -0.033824
v -0.023093 0.465101 -0.048577
v -0.066140 0.465237 -0.048476
v -0.087811 0.463483 -0.002222
v 0.086406 0.761734 0.028521
v 0.136753 0.726534 0.020133
v 0.104832 0.708474 0.009266
v 0.090963 0.705089 -0.033824
v -0.004539 0.462355 -0.002373
v -0.008929 0.371743 0.000562
v -0.021805 0.460602 0.055193
v -0.032557 0.370794 0.045194
v -0.063044 0.460830 0.051807
v -0.062993 0.371531 0.045157
v -0.089013 0.373234 0.000540
v -0.081904 0.305313 -0.001183
v -0.047930 0.311561 0.034536
v -0.073123 0.098848 -0.010348
v -0.051073 0.099009 0.015903
v -0.084702 0.210698 -0.015240
v -0.050545 0.201762 0.016350
v -0.051354 0.240223 0.021812
v -0.066683 0.277467 0.030296
v -0.033051 0.274333 0.030323
v -0.016384 0.268841 -0.002444
v -0.017286 0.242964 -0.005318
v 0.008929 0.371743 0.000562
v 0.021805 0.460602 0.055193
v 0.032557 0.370794 0.045194
v 0.063044 0.460830 0.051807
v 0.062993 0.371531 0.045157
v 0.089013 0.373234 0.000540
v 0.081904 0.305313 -0.001183
v 0.047930 0.311561 0.034536
v 0.015840 0.303524 -0.001053
v 0.073123 0.098848 -0.010348
v 0.051073 0.099009 0.015903
v 0.084702 0.210698 -0.015240
v 0.050545 0.201762 0.016350
v 0.051354 0.240223 0.021812
v 0.084500 0.245429 -0.005213
v 0.066683 0.277467 0.030296
v 0.033051 0.274333 0.030323
v 0.016384 0.268841 -0.002444
v -0.038589 0.906105 0.054235
v -0.029826 0.905153 0.068708
v -0.041560 0.893133 0.054885
v -0.028304 0.876545 0.067852
v -0.028698 0.868492 -0.004711
v 0.035511 0.884096 0.013794
v -0.092789 0.705405 0.008555
v -0.089720 0.667894 0.004526
v -0.078430 0.629017 -0.047116
v -0.093057 0.620314 -0.000588
v -0.069905 0.597608 -0.043985
v -0.087029 0.583448 -0.000643
v -0.000000 0.587353 -0.058438
v -0.000000 0.572737 -0.052484
v 0.069905 0.597608 -0.043985
v 0.087693 0.585439 -0.000643
v 0.078430 0.629017 -0.047116
v -0.055466 0.000753 0.102902
v -0.025477 0.000753 0.089283
v -0.085302 0.000743 0.069590
v -0.028122 0.000753 -0.006145
v -0.038382 0.000753 -0.045366
v -0.000000 0.629949 -0.061734
v 0.073092 0.700132 -0.057497
v 0.087324 0.730471 -0.055915
v -0.000000 0.727065 -0.069658
v 0.050329 0.795542 -0.051590
v -0.000000 0.818683 -0.036834
v -0.050329 0.795542 -0.051590
v -0.073092 0.700132 -0.057497
v 0.029942 0.859129 0.019771
v 0.028867 0.868492 -0.004711
v 0.029897 0.831106 -0.008261
v 0.029949 0.822750 0.024143
v 0.042637 0.818948 -0.011466
v -0.038729 0.810076 0.025464
v -0.029897 0.831106 -0.008261
v -0.029942 0.859129 0.019771
v -0.000000 0.832798 -0.021582
v -0.000000 0.864010 -0.020002
v -0.083000 0.566528 -0.000588
v -0.062217 0.567062 0.055667
v -0.068897 0.497896 0.062357
v -0.098583 0.507972 0.001743
v -0.106741 0.384654 0.001263
v -0.073365 0.388425 0.067814
v 0.000000 0.387142 0.084049
v 0.000000 0.499110 0.076629
v 0.068897 0.497896 0.062357
v 0.073365 0.388425 0.067814
v 0.106741 0.384654 0.001263
v -0.083468 0.805696 0.011660
v -0.053380 0.765675 0.051024
v -0.086406 0.761734 0.028521
v -0.057952 0.700401 0.057756
v -0.063690 0.620769 0.057950
v -0.063228 0.587366 0.054769
v 0.000000 0.588115 0.077768
v 0.000000 0.564821 0.072097
v 0.062217 0.567062 0.055667
v 0.063228 0.587366 0.054769
v 0.093057 0.620314 -0.000588
v 0.063690 0.620769 0.057950
v 0.000000 0.622191 0.077397
v 0.000000 0.711074 0.071931
v 0.000000 0.761733 0.057232
v 0.053380 0.765675 0.051024
v 0.057952 0.700401 0.057756
v 0.089721 0.667894 0.004526
v 0.092789 0.705405 0.008555
v 0.090885 0.725581 0.029497
v 0.083468 0.805696 0.011660
v -0.087324 0.730471 -0.055915
v -0.119407 0.753019 -0.052975
v -0.142980 0.779362 -0.034582
v -0.140472 0.774157 0.009291
v -0.162069 0.750114 0.006596
v -0.112835 0.796046 0.009307
v -0.083468 0.810787 -0.028835
v -0.114743 0.801251 -0.032115
v -0.084279 0.773268 -0.054036
v 0.119407 0.753019 -0.052975
v 0.142980 0.779362 -0.034582
v 0.140472 0.774157 0.009291
v 0.162069 0.750114 0.006596
v 0.112835 0.796046 0.009307
v 0.114743 0.801251 -0.032115
v 0.084279 0.773268 -0.054036
v 0.040005 0.890559 -0.015361
v -0.000259 0.883335 -0.030772
v 0.025055 0.374207 -0.044724
v 0.028388 0.311455 -0.039164
v 0.069718 0.374920 -0.044614
v 0.067015 0.312274 -0.039239
v 0.083014 0.274946 -0.002451
v 0.068872 0.272945 -0.043036
v 0.069345 0.217479 -0.053181
v 0.033532 0.212017 -0.053181
v 0.032420 0.270065 -0.043101
v 0.017286 0.242964 -0.005318
v 0.004539 0.462355 -0.002373
v 0.023093 0.465101 -0.048577
v 0.066140 0.465237 -0.048476
v 0.087811 0.463483 -0.002222
v 0.026781 0.027981 0.054612
v 0.030058 0.027453 0.084883
v 0.052341 0.045482 0.058421
v 0.055684 0.027453 0.098502
v 0.080657 0.027707 0.066327
v 0.073447 0.057418 -0.007755
v 0.062830 0.029372 -0.045366
v 0.038774 0.029372 -0.045366
v 0.028122 0.000753 -0.006145
v 0.075338 0.000753 -0.006145
v 0.052441 0.062410 0.026351
v 0.025477 0.000753 0.089283
v 0.085302 0.000743 0.069590
v 0.042201 0.882577 0.024406
v 0.048583 0.900453 0.010122
v 0.037660 0.866031 0.032434
v -0.073447 0.057418 -0.007755
v -0.080657 0.027707 0.066327
v -0.052441 0.062410 0.026351
v -0.052341 0.045482 0.058421
v -0.026781 0.027981 0.054612
v -0.029418 0.057418 -0.010540
v -0.021558 0.000753 0.056737
v -0.030058 0.027453 0.084883
v -0.055684 0.027453 0.098502
v -0.075338 0.000753 -0.006145
v -0.062830 0.029372 -0.045366
v -0.038774 0.029372 -0.045366
v -0.063200 0.000753 -0.045366
v 0.000000 0.878748 0.083482
v 0.019120 0.202347 -0.015240
v 0.055466 0.000753 0.102902
v 0.021558 0.000753 0.056737
v 0.063200 0.000753 -0.045366
v 0.038382 0.000753 -0.045366
v -0.030116 0.096615 -0.013798
v -0.072290 0.389166 -0.062633
v -0.071852 0.486921 -0.063236
v -0.065316 0.550574 -0.056038
v -0.092613 0.550487 0.000061
v -0.062217 0.573826 -0.038252
v -0.000000 0.547071 -0.065940
v -0.000000 0.483091 -0.072216
v -0.000000 0.386618 -0.075132
v 0.072290 0.389166 -0.062633
v 0.071852 0.486921 -0.063236
v 0.098583 0.507972 0.001743
v 0.065316 0.550574 -0.056038
v 0.092613 0.550487 0.000061
v 0.083000 0.566528 -0.000588
v 0.062217 0.573826 -0.038252
v 0.059901 0.889247 -0.009526
v 0.062010 0.838008 -0.008459
v -0.043301 0.903305 0.037019
v -0.042637 0.818948 -0.011466
v 0.000000 0.797718 0.041837
v 0.038729 0.810076 0.025464
v 0.083468 0.810787 -0.028835
v 0.021597 1.110098 -0.069946
v -0.021884 0.958929 0.073782
v -0.025759 0.836563 -0.049313
v -0.026040 0.885614 -0.048162
v -0.023629 0.906472 -0.044914
v 0.035992 0.869855 0.053409
v -0.049952 0.900478 0.010202
v -0.042570 0.890535 -0.015363
v -0.035511 0.884096 0.013794
v 0.029826 0.905153 0.068708
v 0.036535 0.917868 0.065329
v 0.007107 0.869328 0.079286
v 0.010644 0.879809 0.078378
v 0.015779 0.864745 0.071682
v 0.028304 0.876544 0.067852
v 0.024300 0.858720 0.063978
v 0.041560 0.893133 0.054885
v 0.029664 0.893584 0.070078
v 0.006508 0.906173 0.073525
v 0.009346 0.886749 0.078715
v 0.005077 0.885501 0.091725
v 0.000000 0.897899 0.086530
v -0.006508 0.906173 0.073525
v -0.021597 1.122389 0.053946
v 0.021597 1.122389 0.053946
v -0.009346 0.886749 0.078715
v -0.005077 0.885501 0.091725
v 0.005044 0.881118 0.091295
v -0.000000 1.149523 -0.014058
v -0.062044 1.139997 0.020273
v -0.031051 1.144493 0.065046
v -0.023440 1.134152 0.053703
v -0.010644 0.879809 0.078378
v -0.052139 1.113698 -0.033659
v -0.057569 1.123602 -0.036352
v -0.023846 1.119231 -0.073654
v -0.064723 1.132579 -0.043047
v -0.056588 1.129781 0.016401
v -0.052139 1.118789 0.017659
v -0.049381 0.954860 0.037980
v 0.055113 0.949104 -0.012651
v 0.052139 1.118789 0.017659
v 0.056588 1.129781 0.016401
v 0.064723 1.132579 -0.043047
v 0.021884 0.958929 0.073782
v -0.021250 0.919294 0.077358
v -0.036421 0.917868 0.065329
v -0.228151 0.599737 0.000092
v -0.226854 0.637893 0.015364
v -0.182655 0.645520 -0.001067
v -0.202276 0.660224 0.010151
v -0.163453 0.692243 0.014823
v -0.104832 0.708474 0.009266
v -0.007107 0.869328 0.079286
v -0.015779 0.864745 0.071682
v -0.029664 0.893584 0.070078
v 0.228151 0.599737 0.000092
v 0.226854 0.637893 0.015364
v 0.182655 0.645519 -0.001067
v 0.202276 0.660224 0.010151
v 0.163453 0.692243 0.014823
v 0.006260 0.865455 0.076885
v 0.000000 0.868618 0.083577
v 0.023440 1.134151 0.053703
v 0.031051 1.144493 0.065046
v 0.062044 1.139997 0.020273
v 0.000000 0.813504 0.038920
v -0.029949 0.822750 0.024143
v -0.161890 0.694273 -0.042668
v -0.193363 0.671093 -0.047085
v -0.169865 0.654904 -0.027620
v -0.202132 0.627021 -0.024669
v -0.230683 0.597182 -0.023818
v -0.249414 0.618857 -0.042190
v 0.230683 0.597182 -0.023818
v 0.202132 0.627021 -0.024669
v 0.169865 0.654904 -0.027620
v 0.101986 0.710119 -0.033165
v 0.161890 0.694273 -0.042668
v 0.135349 0.724695 -0.049693
v 0.193363 0.671093 -0.047085
v 0.210219 0.649856 -0.041100
v -0.101986 0.710119 -0.033165
v -0.135349 0.724695 -0.049693
v -0.328554 0.497808 -0.032356
v -0.330782 0.490676 -0.029325
v -0.331631 0.487298 -0.014677
v -0.336329 0.481508 -0.015688
v -0.340975 0.482410 -0.001751
v -0.336359 0.489751 0.001167
v -0.357388 0.509339 -0.004312
v -0.343947 0.510336 -0.003776
v -0.351774 0.536366 -0.005188
v -0.341103 0.522053 -0.004784
v -0.358970 0.513132 -0.001644
v -0.348509 0.489217 0.002506
v -0.343709 0.489269 0.005931
v -0.342933 0.494397 0.010129
v -0.347918 0.489310 0.008775
v -0.355670 0.513650 0.007005
v -0.346263 0.509747 0.009057
v -0.341374 0.522283 0.009119
v -0.346632 0.534150 0.007138
v -0.328726 0.528659 0.008676
v -0.327174 0.548994 0.009397
v -0.326606 0.563617 -0.016329
v -0.313324 0.563014 0.006575
v -0.316509 0.577876 -0.014929
v -0.321894 0.556733 -0.034076
v -0.294753 0.556546 -0.030186
v -0.304211 0.545264 -0.032248
v -0.293148 0.554966 -0.000363
v -0.329374 0.529922 -0.013594
v -0.310955 0.530353 0.023507
v -0.310676 0.512221 0.022932
v -0.346405 0.509724 -0.002020
v -0.342835 0.494413 0.001297
v 0.328554 0.497808 -0.032356
v 0.330782 0.490676 -0.029325
v 0.336329 0.481508 -0.015688
v 0.340975 0.482410 -0.001751
v 0.336358 0.489751 0.001167
v 0.357388 0.509339 -0.004312
v 0.351774 0.536366 -0.005188
v 0.358970 0.513132 -0.001644
v 0.348509 0.489217 0.002506
v 0.343709 0.489269 0.005931
v 0.342933 0.494397 0.010129
v 0.347918 0.489310 0.008775
v 0.355670 0.513650 0.007005
v 0.346263 0.509747 0.009057
v 0.341374 0.522283 0.009119
v 0.346632 0.534150 0.007138
v 0.327174 0.548995 0.009397
v 0.326606 0.563617 -0.016329
v 0.313324 0.563014 0.006575
v 0.308259 0.572626 0.006954
v 0.316509 0.577876 -0.014929
v 0.309866 0.570684 -0.033949
v 0.321894 0.556733 -0.034076
v 0.294753 0.556546 -0.030186
v 0.304211 0.545264 -0.032248
v 0.329374 0.529922 -0.013594
v 0.317124 0.536072 0.010270
v 0.319820 0.527468 0.017320
v 0.310676 0.512221 0.022932
v 0.317239 0.510877 0.020276
v 0.328726 0.528659 0.008677
v 0.341103 0.522054 -0.004783
v 0.346405 0.509724 -0.002020
v 0.342835 0.494413 0.001297
v -0.016185 0.863983 0.061194
v -0.016696 0.871039 0.060364
v -0.011118 0.863537 0.071676
v -0.011463 0.871111 0.071693
v -0.000641 0.870834 0.074800
v -0.000641 0.863176 0.074744
v 0.009835 0.863537 0.071676
v 0.010180 0.871111 0.071693
v 0.015413 0.871039 0.060365
v 0.014902 0.863983 0.061194
v 0.015413 0.859012 0.060780
v 0.014127 0.865028 0.061251
v 0.009257 0.858454 0.071080
v 0.008107 0.864771 0.071577
v -0.000641 0.864591 0.073681
v -0.000641 0.858333 0.073227
v -0.010540 0.858453 0.071080
v -0.009390 0.864771 0.071577
v -0.015410 0.865028 0.061251
v -0.016696 0.859012 0.060780
v 0.057569 1.123602 -0.036352
v 0.052139 1.113698 -0.033659
v 0.028158 0.848470 0.047146
v 0.015698 0.845366 0.072507
v 0.010473 0.855824 0.073690
v 0.008295 0.860985 0.079862
v 0.000000 0.860330 0.082761
v 0.006206 0.865205 0.076730
v 0.000000 0.864606 0.078013
v -0.008295 0.860985 0.079862
v -0.010473 0.855824 0.073690
v 0.293148 0.554966 -0.000363
v 0.298668 0.548940 0.005708
v 0.314539 0.550402 0.020258
v 0.306411 0.541431 0.017591
v 0.310955 0.530353 0.023507
v 0.317942 0.530617 0.030917
v 0.315709 0.512444 0.027526
v 0.322362 0.512566 0.025256
v 0.327726 0.530637 0.026426
v 0.326466 0.543752 0.017355
v 0.353892 0.510348 -0.021060
v 0.342373 0.535520 -0.037753
v 0.322661 0.529812 -0.037277
v 0.337325 0.521368 -0.021250
v 0.338723 0.510157 -0.019394
v 0.343946 0.510336 -0.003776
v 0.331631 0.487298 -0.014677
v 0.334138 0.510696 -0.036543
v 0.343461 0.511359 -0.034828
v 0.330268 0.523241 -0.038351
v -0.298668 0.548940 0.005708
v -0.314539 0.550402 0.020258
v -0.306411 0.541431 0.017591
v -0.317942 0.530617 0.030917
v -0.315709 0.512444 0.027526
v -0.317239 0.510877 0.020276
v -0.322362 0.512566 0.025256
v -0.319820 0.527468 0.017320
v -0.327726 0.530637 0.026426
v -0.326466 0.543752 0.017355
v -0.317124 0.536072 0.010270
v -0.353892 0.510348 -0.021060
v -0.342373 0.535520 -0.037753
v -0.322661 0.529812 -0.037277
v -0.337325 0.521369 -0.021251
v -0.338723 0.510157 -0.019394
v -0.334138 0.510696 -0.036543
v -0.343461 0.511359 -0.034828
v -0.330268 0.523241 -0.038351
v -0.006256 0.865434 0.076872
v -0.010763 0.867827 0.061752
v -0.010763 0.859009 0.061752
v -0.006206 0.865205 0.076730
v 0.000000 0.858853 0.057716
v 0.010763 0.859009 0.061752
v -0.054645 0.910684 -0.007857
v -0.055113 0.949104 -0.012651
v -0.022829 0.945034 -0.048453
v 0.023629 0.906472 -0.044914
v 0.021250 0.919294 0.077358
v -0.220062 0.681130 -0.001192
v -0.257068 0.646576 0.001621
v -0.267647 0.598943 0.014500
v -0.295564 0.599454 -0.000010
v -0.308259 0.572625 0.006954
v -0.296636 0.601851 -0.017757
v -0.309866 0.570684 -0.033949
v -0.259755 0.643670 -0.024929
v -0.210219 0.649856 -0.041100
v -0.225835 0.671859 -0.024266
v -0.201936 0.693792 -0.030032
v -0.174010 0.722175 -0.027721
v -0.161766 0.754159 -0.033454
v -0.175502 0.722743 -0.001284
v -0.136753 0.726534 0.020133
v 0.220062 0.681130 -0.001192
v 0.257068 0.646576 0.001621
v 0.267647 0.598943 0.014500
v 0.295564 0.599454 -0.000010
v 0.296636 0.601851 -0.017757
v 0.249414 0.618857 -0.042190
v 0.259755 0.643670 -0.024929
v 0.225835 0.671859 -0.024266
v 0.201936 0.693792 -0.030032
v 0.174010 0.722175 -0.027721
v 0.161766 0.754159 -0.033454
v 0.175502 0.722743 -0.001284
v -0.035992 0.869855 0.053409
v -0.024300 0.858720 0.063978
v -0.015698 0.845366 0.072507
v 0.000000 0.843157 0.080459
v 0.000000 0.854735 0.077574
v 0.000000 0.836234 0.073971
v -0.015519 0.839098 0.063913
v -0.028158 0.848470 0.047146
v -0.022305 0.846280 0.034304
v 0.000000 0.834424 0.044137
v 0.015519 0.839098 0.063913
v 0.022305 0.846280 0.034304
v -0.042201 0.882577 0.024406
v -0.037660 0.866031 0.032434
v 0.054512 0.843530 0.043732
v 0.047041 0.890434 0.052155
v 0.054645 0.910684 -0.007857
v 0.038589 0.906105 0.054235
v 0.032391 1.126584 -0.087820
v -0.032391 1.126584 -0.087820
v 0.023846 1.119231 -0.073654
v -0.021597 1.110098 -0.069946
v 0.022829 0.945034 -0.048453
vn -0.9905 0.1374 -0.0051
vn -0.9995 -0.0237 0.0225
vn -0.5645 0.1039 -0.8189
vn 0.0407 -0.0419 -0.9983
vn 0.5863 0.0860 -0.8055
vn 0.9945 -0.0251 0.1018
vn 0.9883 0.1525 -0.0095
vn 0.9905 0.1374 -0.0051
vn 0.5645 0.1039 -0.8189
vn 0.9995 -0.0237 0.0225
vn -0.0407 -0.0419 -0.9983
vn -0.5863 0.0860 -0.8055
vn -0.9945 -0.0251 0.1018
vn -0.9883 0.1525 -0.0095
vn 0.9942 -0.0923 0.0544
vn 0.9882 -0.0479 0.1452
vn 0.5964 -0.0382 -0.8018
vn 0.9969 -0.0398 0.0675
vn 0.5685 0.0772 -0.8191
vn 0.9667 -0.1404 0.2140
vn 0.9842 -0.0704 0.1622
vn 0.5553 0.0072 -0.8316
vn -0.5470 0.0292 -0.8366
vn -0.9857 -0.0637 0.1562
vn -0.5813 0.1313 -0.8030
vn -0.9693 -0.0833 0.2312
vn -0.9970 0.0419 0.0650
vn -0.5666 -0.0069 -0.8239
vn -0.9918 -0.0139 0.1270
vn -0.9971 -0.0506 0.0567
vn -0.5579 -0.0528 -0.8282
vn 0.5724 -0.0738 -0.8167
vn -0.9828 0.1337 0.1271
vn -0.9626 0.0567 0.2649
vn -0.9573 0.0534 -0.2840
vn -0.9520 0.1225 -0.2806
vn -0.9265 -0.1227 0.3556
vn -0.9622 -0.0456 -0.2687
vn 0.4028 0.0192 -0.9151
vn 0.4133 0.0996 -0.9052
vn 0.9537 0.0315 -0.2991
vn 0.9521 0.1464 -0.2686
vn 0.4177 -0.1463 -0.8968
vn 0.9648 -0.0838 -0.2492
vn 0.9364 -0.2738 0.2196
vn 0.8892 -0.4565 0.0322
vn 0.9333 -0.1521 0.3252
vn 0.7222 -0.5469 -0.4235
vn -0.6267 -0.1384 0.7668
vn -0.0000 -0.7399 0.6727
vn -0.6135 -0.5542 0.5626
vn -0.0000 -0.6243 0.7812
vn -0.0000 0.2527 0.9676
vn 0.5833 -0.0836 0.8080
vn 0.3192 -0.1039 0.9420
vn 0.4943 -0.1054 0.8629
vn -0.0000 0.1759 0.9844
vn -0.4353 0.1085 0.8937
vn -0.9276 0.0396 0.3715
vn 0.9051 0.2448 -0.3478
vn 0.7711 -0.6149 -0.1655
vn 0.4341 0.0400 -0.9000
vn 0.2930 -0.7620 -0.5775
vn 0.5412 -0.6832 0.4903
vn -0.0000 -0.7036 0.7106
vn 0.0009 -0.9603 0.2789
vn -0.5411 -0.6831 0.4906
vn 0.9306 -0.0324 0.3646
vn 0.9252 0.0132 0.3792
vn 0.9342 0.0572 0.3521
vn 0.9531 -0.0360 -0.3004
vn 0.4131 -0.1001 -0.9052
vn -0.4231 0.2225 0.8783
vn -0.2184 -0.0623 0.9739
vn -0.5023 -0.2354 0.8320
vn 0.0631 -0.8455 0.5303
vn -0.7066 -0.5872 0.3950
vn -0.7708 -0.4736 -0.4261
vn 0.0105 -0.8501 -0.5265
vn -0.2316 -0.1933 -0.9534
vn -0.1773 -0.1688 -0.9696
vn 0.9968 -0.0503 -0.0629
vn 0.5495 -0.0558 -0.8337
vn -0.5203 -0.0230 -0.8537
vn -0.9996 0.0126 -0.0236
vn 0.4231 0.2225 0.8783
vn 0.5023 -0.2354 0.8320
vn 0.2184 -0.0623 0.9739
vn -0.0631 -0.8455 0.5303
vn 0.7066 -0.5872 0.3950
vn 0.7708 -0.4736 -0.4261
vn -0.0105 -0.8501 -0.5265
vn 0.2316 -0.1933 -0.9534
vn 0.1773 -0.1688 -0.9696
vn 0.5524 -0.1104 0.8263
vn 0.4884 -0.1682 0.8562
vn -0.5508 -0.0530 0.8330
vn -0.4954 -0.1293 0.8590
vn 0.0197 -0.1198 0.9926
vn 0.0381 0.0479 0.9981
vn 0.0227 -0.0694 0.9973
vn -0.0283 -0.3487 0.9368
vn -0.5390 -0.0721 0.8392
vn 0.5189 -0.1326 0.8445
vn -0.9968 -0.0503 -0.0629
vn -0.9942 -0.0923 0.0544
vn -0.5524 -0.1104 0.8263
vn -0.4884 -0.1682 0.8562
vn 0.5508 -0.0530 0.8330
vn 0.4954 -0.1293 0.8590
vn 0.9971 -0.0506 0.0567
vn 0.9996 0.0126 -0.0236
vn 0.9918 -0.0139 0.1270
vn -0.0197 -0.1198 0.9926
vn -0.9882 -0.0479 0.1452
vn -0.0381 0.0479 0.9981
vn 0.9857 -0.0637 0.1562
vn -0.0227 -0.0694 0.9973
vn 0.0283 -0.3487 0.9368
vn 0.9693 -0.0833 0.2312
vn 0.5390 -0.0721 0.8392
vn 0.9970 0.0419 0.0650
vn -0.5189 -0.1326 0.8445
vn -0.9969 -0.0398 0.0675
vn -0.9667 -0.1404 0.2140
vn -0.9312 0.0292 0.3632
vn -0.9326 -0.0287 0.3596
vn -0.5842 -0.0817 0.8075
vn -0.5727 0.0092 0.8197
vn -0.6513 -0.2132 0.7282
vn -0.8914 -0.3049 0.3353
vn -0.8320 -0.3229 -0.4510
vn -0.7384 -0.5323 -0.4140
vn 0.0044 -0.2584 -0.9660
vn 0.0047 -0.5864 -0.8100
vn 0.8381 -0.2921 -0.4607
vn 0.8367 -0.4739 -0.2745
vn -0.9758 -0.0521 0.2122
vn -0.6831 -0.1541 -0.7139
vn -0.9975 -0.0552 0.0440
vn -0.5924 -0.2549 -0.7643
vn -0.9800 -0.1990 -0.0080
vn -0.9821 0.1812 -0.0507
vn -0.6295 0.0823 -0.7726
vn -0.0000 -0.2304 -0.9731
vn -0.0000 0.0836 -0.9965
vn 0.6295 0.0823 -0.7726
vn 0.5917 -0.2547 -0.7649
vn 0.9827 0.1778 -0.0511
vn 0.9801 -0.1985 -0.0083
vn 0.9977 -0.0521 0.0440
vn 0.6831 -0.1541 -0.7139
vn 0.9758 -0.0521 0.2122
vn -0.1618 -0.5352 0.8291
vn -0.7957 -0.5555 0.2415
vn 0.6877 -0.5290 0.4973
vn 0.7909 -0.6118 0.0085
vn 0.7269 -0.6779 -0.1098
vn -0.7246 -0.6745 -0.1416
vn -0.4809 -0.5919 -0.6469
vn 0.4966 -0.5889 -0.6377
vn -0.0000 -0.1011 -0.9949
vn 0.4629 -0.1137 -0.8791
vn -0.0000 0.0715 -0.9974
vn 0.1652 0.2994 -0.9397
vn 0.0833 0.5492 -0.8315
vn 0.2100 0.9037 -0.3730
vn 0.3604 0.9141 -0.1860
vn -0.0000 0.6674 -0.7447
vn -0.0833 0.5492 -0.8315
vn -0.3604 0.9141 -0.1860
vn -0.2100 0.9037 -0.3730
vn -0.1652 0.2994 -0.9397
vn -0.4629 -0.1137 -0.8791
vn 0.9657 -0.2480 -0.0772
vn 0.7503 0.4451 -0.4887
vn 0.7616 0.2505 0.5977
vn 0.3951 0.6306 0.6680
vn -0.0000 0.0299 0.9996
vn -0.0000 0.3671 0.9302
vn -0.3951 0.6306 0.6680
vn -0.7616 0.2505 0.5977
vn -0.7499 0.4461 -0.4885
vn -0.9657 -0.2473 -0.0794
vn -0.0003 0.4534 -0.8913
vn -0.9539 0.3000 -0.0118
vn -0.6580 0.0708 0.7497
vn -0.6132 0.0927 0.7845
vn -0.9935 0.1111 0.0266
vn -0.9989 0.0468 0.0019
vn -0.6184 0.0643 0.7832
vn -0.0000 0.0614 0.9981
vn -0.0000 0.0675 0.9977
vn 0.6132 0.0927 0.7845
vn 0.6184 0.0643 0.7832
vn 0.9989 0.0468 0.0019
vn 0.9935 0.1111 0.0266
vn 0.9539 0.3000 -0.0118
vn 0.6580 0.0708 0.7497
vn -0.0000 -0.0700 0.9975
vn -0.3190 0.7917 0.5210
vn -0.3418 0.3171 0.8847
vn -0.5442 0.0187 0.8387
vn -0.6525 -0.0076 0.7578
vn -0.6947 -0.0608 0.7167
vn -0.0000 -0.1020 0.9948
vn 0.6943 -0.0608 0.7171
vn 0.6525 -0.0076 0.7578
vn -0.0000 0.0255 0.9997
vn -0.0000 0.1332 0.9911
vn -0.0000 0.3327 0.9430
vn 0.3418 0.3171 0.8847
vn 0.5442 0.0187 0.8387
vn 0.3190 0.7917 0.5210
vn -0.2365 0.1703 -0.9566
vn -0.7722 0.3977 -0.4955
vn -0.6257 0.6296 -0.4605
vn -0.5771 0.5524 0.6015
vn -0.7281 0.3860 0.5664
vn -0.4082 0.7169 0.5652
vn -0.3992 0.8143 -0.4214
vn 0.2365 0.1703 -0.9566
vn 0.7722 0.3977 -0.4955
vn 0.6257 0.6296 -0.4605
vn 0.5771 0.5524 0.6015
vn 0.7281 0.3860 0.5664
vn 0.4082 0.7169 0.5652
vn 0.3992 0.8143 -0.4214
vn -0.4131 -0.1478 -0.8986
vn -0.5724 -0.0738 -0.8167
vn -0.5964 -0.0382 -0.8018
vn 0.5579 -0.0528 -0.8282
vn 0.5666 -0.0069 -0.8239
vn 0.5813 0.1313 -0.8030
vn 0.5470 0.0292 -0.8366
vn -0.5553 0.0072 -0.8316
vn -0.9842 -0.0704 0.1622
vn -0.5685 0.0772 -0.8191
vn -0.5495 -0.0558 -0.8337
vn 0.5203 -0.0230 -0.8537
vn -0.8817 0.4603 0.1039
vn -0.6836 0.5558 0.4730
vn -0.0655 0.9135 0.4016
vn 0.1774 0.5426 0.8211
vn 0.8328 0.4715 0.2900
vn 0.5799 0.0740 -0.8113
vn -0.5925 0.0758 -0.8020
vn -0.7269 -0.6779 -0.1098
vn -0.4966 -0.5889 -0.6377
vn 0.4809 -0.5919 -0.6469
vn 0.7246 -0.6745 -0.1416
vn -0.0222 0.8042 0.5939
vn -0.7909 -0.6118 0.0085
vn -0.6877 -0.5290 0.4973
vn 0.1618 -0.5352 0.8291
vn 0.7957 -0.5555 0.2415
vn 0.9299 -0.3276 -0.1672
vn 0.9118 -0.4037 -0.0753
vn 0.8914 -0.3049 0.3353
vn -0.8328 0.4715 0.2900
vn 0.0222 0.8042 0.5939
vn 0.0655 0.9135 0.4016
vn 0.8817 0.4603 0.1039
vn 0.6836 0.5558 0.4730
vn -0.1774 0.5426 0.8211
vn -0.5799 0.0740 -0.8113
vn 0.5925 0.0758 -0.8020
vn -0.5097 -0.2847 0.8119
vn 0.0001 -0.3777 0.9259
vn 0.5097 -0.2847 0.8119
vn 0.6267 -0.1384 0.7668
vn -0.5891 -0.0023 -0.8081
vn -0.5902 0.0857 -0.8027
vn -0.5399 0.3403 -0.7699
vn -0.0000 0.2756 -0.9613
vn -0.0000 0.0690 -0.9976
vn -0.0000 0.0092 -1.0000
vn 0.5891 -0.0023 -0.8081
vn 0.5902 0.0857 -0.8027
vn 0.5399 0.3403 -0.7699
vn -0.4040 0.0207 -0.9145
vn 0.9811 0.0864 0.1734
vn -0.9287 -0.2815 0.2413
vn 0.3994 -0.2804 -0.8728
vn -0.4109 0.0296 0.9112
vn -0.4166 0.1018 -0.9034
vn -0.9039 -0.4239 0.0577
vn 0.8075 -0.5130 0.2911
vn 0.7763 -0.6259 0.0745
vn -0.8282 -0.5000 -0.2530
vn 0.7934 -0.0559 0.6062
vn -0.8078 -0.0271 0.5888
vn 0.4548 -0.1838 0.8714
vn 0.6513 -0.2132 0.7282
vn 0.7650 -0.2657 0.5867
vn 0.5727 0.0093 0.8197
vn 0.7466 0.1666 0.6440
vn 0.7066 0.1743 0.6858
vn -0.0000 0.6211 0.7837
vn -0.4943 -0.1054 0.8629
vn -0.3206 -0.1036 0.9415
vn -0.0000 0.9931 -0.1170
vn -0.4333 0.2606 0.8628
vn 0.4333 0.2606 0.8628
vn -0.3277 -0.5260 0.7848
vn 0.3242 -0.5207 0.7898
vn 0.4036 0.0287 0.9145
vn 0.4257 0.1128 0.8978
vn -0.7466 0.1666 0.6440
vn -0.7066 0.1743 0.6858
vn 0.6135 -0.5542 0.5626
vn -0.8851 0.3669 0.2862
vn -0.8337 -0.4587 0.3076
vn -0.9163 -0.1353 0.3770
vn -0.9530 -0.0376 -0.3007
vn -0.9066 -0.2936 -0.3032
vn -0.4096 -0.0927 -0.9076
vn -0.3940 -0.2869 -0.8732
vn -0.7769 -0.6042 -0.1768
vn -0.3127 -0.7511 -0.5814
vn -0.8983 0.2261 -0.3767
vn -0.4619 0.0337 -0.8863
vn 0.9031 -0.2986 -0.3085
vn 0.9172 -0.1508 0.3688
vn 0.8331 -0.4551 0.3143
vn 0.8826 0.3689 0.2914
vn -0.4377 0.1755 0.8818
vn 0.5793 -0.6449 0.4985
vn -0.0524 -0.0700 0.9962
vn 0.5724 -0.6588 0.4881
vn 0.0513 0.0197 0.9985
vn 0.5547 -0.6412 0.5303
vn 0.0396 0.0174 0.9991
vn -0.0869 -0.0652 0.9941
vn -0.4554 -0.1839 0.8711
vn 0.4377 0.1755 0.8818
vn 0.0524 -0.0700 0.9962
vn -0.5793 -0.6449 0.4985
vn -0.5724 -0.6588 0.4881
vn -0.0513 0.0197 0.9985
vn -0.5547 -0.6412 0.5303
vn -0.0396 0.0174 0.9991
vn 0.0869 -0.0652 0.9941
vn 0.2296 -0.9040 0.3607
vn -0.2280 -0.9050 0.3592
vn -0.0000 -0.8240 0.5665
vn -0.8075 -0.5130 0.2911
vn -0.0239 -0.0556 -0.9982
vn 0.5572 -0.6890 -0.4634
vn -0.1106 -0.0022 -0.9939
vn -0.0201 -0.0845 -0.9962
vn 0.6085 -0.6493 -0.4562
vn 0.5750 -0.6856 -0.4465
vn -0.0731 0.0102 -0.9973
vn 0.3807 0.2701 -0.8844
vn -0.4866 -0.5418 -0.6853
vn 0.0731 0.0102 -0.9973
vn -0.5750 -0.6856 -0.4465
vn -0.6085 -0.6493 -0.4562
vn -0.5572 -0.6890 -0.4634
vn 0.0239 -0.0556 -0.9982
vn 0.1106 -0.0022 -0.9939
vn 0.0201 -0.0845 -0.9962
vn -0.3807 0.2701 -0.8844
vn 0.4866 -0.5418 -0.6853
vn 0.8028 -0.0628 -0.5929
vn 0.9507 -0.2470 0.1874
vn 0.3294 -0.7031 -0.6302
vn 0.0015 -0.9773 -0.2119
vn -0.2117 -0.8499 0.4826
vn 0.5282 -0.0995 0.8433
vn -0.8498 -0.1110 0.5153
vn 0.4922 0.1592 0.8558
vn -0.8692 0.4865 0.0887
vn 0.7707 -0.6212 0.1419
vn 0.5616 -0.2258 -0.7960
vn -0.8845 -0.0840 -0.4590
vn -0.4044 -0.7562 -0.5144
vn 0.7397 -0.1824 -0.6477
vn 0.6404 -0.7677 0.0231
vn 0.6400 -0.0834 0.7638
vn -0.3822 -0.6895 0.6153
vn -0.7146 0.0522 0.6976
vn 0.5376 -0.0189 0.8430
vn 0.3661 -0.3429 0.8651
vn -0.5249 0.3913 0.7559
vn 0.3364 -0.6495 0.6819
vn -0.6485 0.4753 0.5945
vn 0.2565 -0.9473 -0.1921
vn -0.7515 0.6587 -0.0352
vn -0.2782 0.5278 0.8025
vn -0.8139 0.5804 -0.0259
vn -0.3145 0.4136 -0.8544
vn 0.5779 -0.5066 -0.6398
vn 0.5937 -0.8016 0.0709
vn 0.8860 -0.3510 0.3032
vn 0.8845 -0.2403 0.3999
vn 0.9827 -0.1246 0.1371
vn -0.2375 -0.3596 -0.9024
vn 0.8425 -0.5284 -0.1044
vn -0.1055 -0.7665 -0.6335
vn -0.8028 -0.0628 -0.5929
vn -0.3294 -0.7031 -0.6302
vn -0.9507 -0.2470 0.1874
vn -0.0015 -0.9773 -0.2119
vn 0.2117 -0.8499 0.4826
vn -0.5282 -0.0995 0.8433
vn 0.8498 -0.1110 0.5153
vn -0.4923 0.1592 0.8558
vn 0.8692 0.4865 0.0887
vn -0.7707 -0.6212 0.1419
vn -0.5616 -0.2258 -0.7960
vn 0.8845 -0.0840 -0.4590
vn 0.4044 -0.7562 -0.5144
vn -0.7397 -0.1824 -0.6477
vn -0.6404 -0.7677 0.0231
vn -0.6400 -0.0834 0.7638
vn 0.3822 -0.6895 0.6153
vn 0.7146 0.0522 0.6976
vn -0.5376 -0.0188 0.8430
vn -0.3661 -0.3429 0.8651
vn 0.5249 0.3913 0.7559
vn -0.3364 -0.6494 0.6820
vn 0.6485 0.4754 0.5945
vn -0.2565 -0.9472 -0.1921
vn 0.7515 0.6587 -0.0352
vn 0.2781 0.5278 0.8025
vn 0.8139 0.5804 -0.0259
vn 0.3145 0.4136 -0.8544
vn -0.5779 -0.5066 -0.6398
vn -0.5937 -0.8016 0.0709
vn -0.8860 -0.3510 0.3032
vn -0.8845 -0.2403 0.3999
vn -0.9827 -0.1246 0.1371
vn 0.2375 -0.3596 -0.9024
vn -0.8425 -0.5284 -0.1044
vn 0.1055 -0.7665 -0.6335
vn -0.9005 -0.0141 0.4347
vn -0.6349 -0.0241 0.7722
vn -0.9030 -0.0247 0.4289
vn -0.6594 -0.0317 0.7512
vn -0.0000 -0.0104 0.9999
vn -0.0000 -0.0073 1.0000
vn 0.6349 -0.0241 0.7722
vn 0.6594 -0.0317 0.7512
vn 0.9030 -0.0247 0.4289
vn 0.9005 -0.0141 0.4347
vn 0.8465 0.1407 0.5135
vn 0.8497 0.1334 0.5102
vn 0.6212 0.0499 0.7821
vn 0.5609 0.0371 0.8270
vn -0.0000 -0.0590 0.9983
vn -0.0000 -0.0724 0.9974
vn -0.6212 0.0499 0.7821
vn -0.5609 0.0370 0.8270
vn -0.8497 0.1334 0.5102
vn -0.8464 0.1407 0.5135
vn 0.6350 -0.3309 0.6980
vn 0.4606 -0.1326 0.8777
vn 0.4980 0.0058 0.8672
vn -0.0000 -0.2557 0.9668
vn -0.0000 -0.0101 0.9999
vn 0.0666 0.9757 0.2090
vn -0.0000 0.9683 0.2498
vn -0.0666 0.9757 0.2090
vn -0.4980 0.0058 0.8672
vn -0.4606 -0.1326 0.8777
vn -0.0824 0.6106 0.7876
vn -0.1307 0.1392 0.9816
vn -0.1901 -0.5880 0.7862
vn 0.7545 -0.6165 0.2249
vn 0.9399 0.0032 0.3415
vn 0.9648 0.1776 0.1941
vn 0.9030 -0.1928 -0.3840
vn 0.5640 0.2940 -0.7717
vn -0.5514 -0.5093 -0.6608
vn -0.8656 -0.4215 0.2703
vn -0.9456 0.1330 0.2969
vn -0.5999 -0.2149 -0.7707
vn 0.5326 -0.2644 -0.8040
vn -0.5263 -0.4123 -0.7437
vn 0.0824 0.6106 0.7876
vn 0.1307 0.1392 0.9816
vn 0.1901 -0.5880 0.7862
vn -0.7545 -0.6165 0.2249
vn -0.9399 0.0032 0.3415
vn -0.9648 0.1776 0.1941
vn -0.9030 -0.1928 -0.3840
vn -0.5640 0.2940 -0.7717
vn 0.5514 -0.5093 -0.6608
vn 0.8656 -0.4215 0.2703
vn 0.9456 0.1330 0.2970
vn 0.5999 -0.2149 -0.7707
vn -0.5326 -0.2644 -0.8040
vn 0.5263 -0.4123 -0.7437
vn 0.5390 0.7391 0.4038
vn -0.0000 0.7209 0.6930
vn -0.5390 0.7391 0.4038
vn -0.5882 0.6503 0.4808
vn -0.6027 0.6154 0.5080
vn -0.6645 0.5419 0.5146
vn -0.7260 0.6287 -0.2787
vn -0.6237 0.6213 -0.4743
vn -0.6073 0.6116 -0.5071
vn -0.5861 0.6028 -0.5413
vn -0.7255 0.4238 -0.5423
vn -0.7457 0.4526 0.4889
vn 0.5882 0.6503 0.4808
vn 0.6027 0.6154 0.5080
vn 0.6645 0.5419 0.5146
vn 0.7260 0.6287 -0.2787
vn 0.6237 0.6213 -0.4743
vn 0.6073 0.6116 -0.5071
vn 0.5861 0.6028 -0.5413
vn 0.7255 0.4238 -0.5423
vn 0.7457 0.4526 0.4889
vn -0.7650 -0.2657 0.5867
vn -0.6350 -0.3309 0.6980
vn -0.0000 -0.2757 0.9612
vn -0.0000 -0.8783 0.4781
vn -0.5525 -0.8048 0.2172
vn -0.7763 -0.6259 0.0745
vn 0.5525 -0.8048 0.2172
vn -0.9279 -0.3382 -0.1570
vn -0.9118 -0.4037 -0.0753
vn 0.9640 0.0816 0.2532
vt 0.752879 0.134345
vt 0.752870 0.176231
vt 0.724631 0.134772
vt 0.705747 0.176137
vt 0.695387 0.135005
vt 0.659229 0.176109
vt 0.661479 0.135042
vt 0.752897 0.468530
vt 0.752836 0.387984
vt 0.715910 0.394971
vt 0.752844 0.347838
vt 0.713747 0.345891
vt 0.752848 0.318213
vt 0.752864 0.271204
vt 0.723315 0.279964
vt 0.669465 0.281500
vt 0.640556 0.271225
vt 0.672578 0.344790
vt 0.639841 0.311552
vt 0.640108 0.345406
vt 0.671698 0.391285
vt 0.639250 0.380877
vt 0.616593 0.457802
vt 0.658595 0.463278
vt 0.710239 0.467839
vt 0.235707 0.871089
vt 0.281119 0.950020
vt 0.370416 0.835078
vt 0.395035 0.919395
vt 0.332282 0.977010
vt 0.413033 0.956673
vt 0.448270 0.816637
vt 0.442453 0.911196
vt 0.301193 0.865466
vt 0.325701 0.941491
vt 0.426350 0.963018
vt 0.350177 0.976680
vt 0.275219 0.815359
vt 0.340334 0.812327
vt 0.318547 0.846373
vt 0.369007 0.850097
vt 0.387094 0.790694
vt 0.096923 0.768187
vt 0.121941 0.758880
vt 0.110085 0.770969
vt 0.121941 0.769139
vt 0.121941 0.789366
vt 0.190632 0.823497
vt 0.176992 0.857833
vt 0.136400 0.825313
vt 0.121941 0.826064
vt 0.556275 0.615093
vt 0.629435 0.615054
vt 0.627222 0.584456
vt 0.714584 0.584458
vt 0.983752 0.370027
vt 0.981604 0.352258
vt 0.896834 0.371291
vt 0.898988 0.352250
vt 0.064242 0.632669
vt 0.018045 0.638512
vt 0.018045 0.595742
vt 0.228044 0.786236
vt 0.222122 0.822618
vt 0.560023 0.615054
vt 0.557861 0.584456
vt 0.647859 0.614999
vt 0.645173 0.584458
vt 0.723884 0.614960
vt 0.722907 0.584461
vt 0.645276 0.945950
vt 0.639345 0.896441
vt 0.612111 0.945933
vt 0.595610 0.899513
vt 0.572635 0.945996
vt 0.528664 0.945993
vt 0.546094 0.891920
vt 0.477757 0.911367
vt 0.492137 0.874264
vt 0.752891 0.572591
vt 0.716048 0.572927
vt 0.645370 0.566121
vt 0.605084 0.560834
vt 0.752893 0.573855
vt 0.793439 0.568120
vt 0.752879 0.469715
vt 0.792910 0.464423
vt 0.863291 0.560619
vt 0.849003 0.458903
vt 0.883642 0.457102
vt 0.898729 0.560080
vt 0.861774 0.380201
vt 0.811060 0.393381
vt 0.752899 0.389091
vt 0.823271 0.135053
vt 0.787862 0.176246
vt 0.826776 0.176106
vt 0.853380 0.270654
vt 0.800160 0.266065
vt 0.806340 0.311891
vt 0.858318 0.310809
vt 0.829320 0.351451
vt 0.859470 0.344705
vt 0.788428 0.352661
vt 0.752890 0.348936
vt 0.752885 0.319295
vt 0.021761 0.822618
vt 0.015839 0.786236
vt 0.053250 0.823497
vt 0.052219 0.786516
vt 0.053937 0.753899
vt 0.021945 0.737455
vt 0.348015 0.729167
vt 0.369007 0.786066
vt 0.407149 0.712497
vt 0.436324 0.780796
vt 0.369002 0.786117
vt 0.314071 0.742241
vt 0.340014 0.812196
vt 0.622837 0.379320
vt 0.592001 0.379397
vt 0.624189 0.347523
vt 0.567495 0.301216
vt 0.622756 0.290430
vt 0.565402 0.262292
vt 0.625580 0.244744
vt 0.608787 0.223776
vt 0.545689 0.232820
vt 0.480088 0.249583
vt 0.480088 0.231471
vt 0.414485 0.232820
vt 0.394773 0.262292
vt 0.351388 0.223776
vt 0.334597 0.244744
vt 0.337419 0.290430
vt 0.392680 0.301216
vt 0.335988 0.347523
vt 0.368174 0.379397
vt 0.337339 0.379320
vt 0.719773 0.104139
vt 0.742901 0.083469
vt 0.696527 0.095688
vt 0.693489 0.075493
vt 0.698578 0.036476
vt 0.735177 0.036476
vt 0.725769 0.014433
vt 0.706530 0.014433
vt 0.480088 0.302371
vt 0.395707 0.383263
vt 0.375351 0.426943
vt 0.480088 0.422722
vt 0.375696 0.478822
vt 0.424673 0.507583
vt 0.377441 0.544331
vt 0.433143 0.554080
vt 0.480088 0.528079
vt 0.535501 0.507583
vt 0.527032 0.554080
vt 0.582734 0.544331
vt 0.584479 0.478822
vt 0.584824 0.426943
vt 0.564468 0.383263
vt 0.314061 0.742609
vt 0.278714 0.705463
vt 0.347316 0.729024
vt 0.356929 0.625922
vt 0.277834 0.618649
vt 0.364085 0.590765
vt 0.274273 0.580814
vt 0.217200 0.591895
vt 0.213167 0.557199
vt 0.411686 0.629053
vt 0.406693 0.712738
vt 0.431846 0.581815
vt 0.043728 0.220339
vt 0.029975 0.201917
vt 0.086640 0.220952
vt 0.075677 0.141519
vt 0.016696 0.153091
vt 0.004633 0.013198
vt 0.070049 0.013269
vt 0.162466 0.013245
vt 0.162466 0.142914
vt 0.249253 0.141519
vt 0.254882 0.013269
vt 0.320298 0.013198
vt 0.308235 0.153091
vt 0.294956 0.201917
vt 0.238291 0.220952
vt 0.281203 0.220339
vt 0.162466 0.218379
vt 0.043822 0.496244
vt 0.038693 0.444522
vt 0.095971 0.449047
vt 0.091254 0.374085
vt 0.034299 0.403002
vt 0.023998 0.373841
vt 0.020344 0.340026
vt 0.021756 0.282109
vt 0.085853 0.282631
vt 0.078916 0.244270
vt 0.018972 0.239771
vt 0.162466 0.245131
vt 0.246015 0.244270
vt 0.305959 0.239771
vt 0.303175 0.282109
vt 0.239078 0.282631
vt 0.162466 0.284265
vt 0.162466 0.386342
vt 0.162466 0.444520
vt 0.228961 0.449047
vt 0.233677 0.374085
vt 0.304587 0.340026
vt 0.300933 0.373841
vt 0.290632 0.403002
vt 0.286238 0.444522
vt 0.281109 0.496244
vt 0.835062 0.918403
vt 0.807644 0.883605
vt 0.796860 0.918343
vt 0.758278 0.883606
vt 0.759758 0.918421
vt 0.691397 0.918417
vt 0.696737 0.883606
vt 0.639346 0.896437
vt 0.645561 0.947045
vt 0.688688 0.957833
vt 0.690988 0.999962
vt 0.755858 1.000033
vt 0.759886 0.957857
vt 0.803053 0.957590
vt 0.459600 0.863593
vt 0.448245 0.803267
vt 0.417324 0.824582
vt 0.372339 0.787884
vt 0.394867 0.818325
vt 0.452836 0.803223
vt 0.460084 0.863593
vt 0.819602 0.036456
vt 0.773593 0.035665
vt 0.793757 0.075811
vt 0.752894 0.035665
vt 0.801795 0.036045
vt 0.906063 0.100885
vt 0.958397 0.050938
vt 0.953791 0.097947
vt 0.991144 0.097947
vt 0.994672 0.050938
vt 0.910297 0.100885
vt 0.902814 0.008050
vt 0.995390 0.008050
vt 0.958397 0.008050
vt 0.866564 0.107602
vt 0.816372 0.008050
vt 0.766905 0.008050
vt 0.746205 0.008050
vt 0.796836 0.008035
vt 0.221877 0.822928
vt 0.228176 0.786462
vt 0.273705 0.815872
vt 0.301497 0.748512
vt 0.340718 0.812620
vt 0.255464 0.712976
vt 0.221960 0.737541
vt 0.105237 0.736754
vt 0.121941 0.735557
vt 0.138645 0.736754
vt 0.149041 0.768881
vt 0.752880 0.271994
vt 0.752874 0.176239
vt 0.752865 0.134317
vt 0.785280 0.134229
vt 0.558871 0.010450
vt 0.640120 0.010655
vt 0.558393 0.125123
vt 0.627889 0.151210
vt 0.552461 0.204005
vt 0.621258 0.203897
vt 0.480088 0.199664
vt 0.480088 0.120377
vt 0.480088 0.010566
vt 0.401303 0.010450
vt 0.401782 0.125123
vt 0.320058 0.013184
vt 0.332288 0.151210
vt 0.407713 0.204005
vt 0.338917 0.203897
vt 0.235707 0.871090
vt 0.043822 0.535534
vt 0.108205 0.544569
vt 0.113177 0.506226
vt 0.162466 0.493265
vt 0.211754 0.506226
vt 0.216726 0.544569
vt 0.281109 0.535534
vt 0.329242 0.978376
vt 0.326948 0.927131
vt 0.428743 0.978319
vt 0.979838 0.125090
vt 0.900739 0.125100
vt 0.900739 0.337822
vt 0.979851 0.337822
vt 0.434962 0.828389
vt 0.435215 0.927068
vt 0.327715 0.828451
vt 0.340167 0.812357
vt 0.387102 0.790650
vt 0.210855 0.660834
vt 0.212007 0.691699
vt 0.339821 0.812247
vt 0.220996 0.856003
vt 0.268088 0.842649
vt 0.159027 0.727359
vt 0.189946 0.753899
vt 0.182966 0.710008
vt 0.221938 0.737455
vt 0.191663 0.786516
vt 0.148764 0.783263
vt 0.132906 0.787911
vt 0.121941 0.801951
vt 0.107482 0.825313
vt 0.061570 0.858043
vt 0.940430 0.475795
vt 0.096159 0.783263
vt 0.110976 0.787911
vt 0.133797 0.770969
vt 0.896834 0.371290
vt 0.940430 0.475794
vt 0.491163 0.584451
vt 0.489480 0.615093
vt 0.554588 0.584451
vt 0.588553 0.584453
vt 0.667457 0.584246
vt 0.615449 0.584246
vt 0.648257 0.654504
vt 0.604067 0.705424
vt 0.645215 0.738927
vt 0.598649 0.779417
vt 0.645669 0.777566
vt 0.644633 0.837785
vt 0.084855 0.727359
vt 0.022886 0.856003
vt 0.136656 0.728348
vt 0.121941 0.726756
vt 0.107237 0.728304
vt 0.150359 0.636448
vt 0.510923 0.838348
vt 0.553754 0.795027
vt 0.503424 0.793947
vt 0.500783 0.752942
vt 0.550967 0.748900
vt 0.551003 0.696946
vt 0.496899 0.677304
vt 0.496585 0.584267
vt 0.539971 0.584246
vt 0.853875 0.673796
vt 0.836625 0.695727
vt 0.854176 0.679339
vt 0.843812 0.695686
vt 0.836996 0.716617
vt 0.830731 0.721096
vt 0.867641 0.716304
vt 0.872883 0.718917
vt 0.894565 0.717764
vt 0.891160 0.717858
vt 0.864125 0.722224
vt 0.867477 0.725132
vt 0.841447 0.730552
vt 0.834720 0.725575
vt 0.839045 0.734766
vt 0.835524 0.743744
vt 0.841447 0.738266
vt 0.867477 0.735776
vt 0.867596 0.742309
vt 0.892591 0.739253
vt 0.896483 0.732936
vt 0.904542 0.737157
vt 0.924808 0.735716
vt 0.918771 0.735998
vt 0.938496 0.704058
vt 0.948100 0.732737
vt 0.956792 0.720284
vt 0.956794 0.704103
vt 0.956792 0.688692
vt 0.936451 0.678277
vt 0.963853 0.674620
vt 0.938866 0.662815
vt 0.954067 0.631763
vt 0.905676 0.638284
vt 0.920612 0.608917
vt 0.946380 0.614531
vt 0.929183 0.598772
vt 0.923198 0.592377
vt 0.912005 0.598512
vt 0.907071 0.580930
vt 0.900441 0.584158
vt 0.905027 0.610878
vt 0.889581 0.627442
vt 0.889581 0.610335
vt 0.865751 0.607407
vt 0.865750 0.621039
vt 0.848471 0.616957
vt 0.848471 0.606088
vt 0.011765 0.984261
vt 0.011793 0.969743
vt 0.041335 0.985480
vt 0.041338 0.970485
vt 0.041327 0.947647
vt 0.011816 0.947634
vt 0.011793 0.925526
vt 0.041337 0.924812
vt 0.041335 0.909816
vt 0.011765 0.911007
vt 0.041411 0.986692
vt 0.013600 0.983706
vt 0.041411 0.968304
vt 0.013591 0.966067
vt 0.013584 0.948531
vt 0.041411 0.948466
vt 0.041411 0.928629
vt 0.013593 0.930999
vt 0.013603 0.913388
vt 0.041411 0.910253
vt 0.211951 0.691745
vt 0.158837 0.683388
vt 0.146558 0.706261
vt 0.141437 0.717833
vt 0.121941 0.703967
vt 0.121941 0.716732
vt 0.136528 0.727806
vt 0.121941 0.726116
vt 0.107354 0.727806
vt 0.102445 0.717833
vt 0.097324 0.706261
vt 0.960741 0.730245
vt 0.953316 0.737347
vt 0.931857 0.749542
vt 0.935720 0.756093
vt 0.930797 0.763825
vt 0.923177 0.758405
vt 0.908911 0.770978
vt 0.909957 0.780687
vt 0.894745 0.766730
vt 0.902330 0.765889
vt 0.911547 0.746704
vt 0.914956 0.752307
vt 0.920597 0.745508
vt 0.916624 0.739502
vt 0.870355 0.697822
vt 0.900979 0.677693
vt 0.909597 0.670177
vt 0.891901 0.648830
vt 0.875611 0.649394
vt 0.872720 0.629526
vt 0.844020 0.629872
vt 0.848021 0.654327
vt 0.853875 0.673635
vt 0.878502 0.669263
vt 0.873070 0.679339
vt 0.894221 0.670218
vt 0.046154 0.597191
vt 0.106505 0.599992
vt 0.064242 0.562144
vt 0.046154 0.600260
vt 0.018045 0.560903
vt 0.717268 0.614999
vt 0.794299 0.584461
vt 0.793327 0.614960
vt 0.519292 0.584453
vt 0.486861 0.615093
vt 0.485178 0.584451
vt 0.644686 0.837787
vt 0.698348 0.780137
vt 0.645707 0.777566
vt 0.645183 0.738923
vt 0.697241 0.734835
vt 0.648290 0.654532
vt 0.696290 0.619136
vt 0.667448 0.584246
vt 0.736718 0.584246
vt 0.747039 0.617415
vt 0.793380 0.584246
vt 0.795154 0.675872
vt 0.752360 0.721655
vt 0.796401 0.762359
vt 0.751178 0.771387
vt 0.758875 0.805402
vt 0.801134 0.791069
vt 0.804691 0.836685
vt 0.756012 0.836681
vt 0.698172 0.836682
vt 0.060917 0.710008
vt 0.085045 0.683388
vt 0.121941 0.681056
vt 0.121941 0.658075
vt 0.075251 0.663260
vt 0.031932 0.691745
vt 0.032840 0.660307
vt 0.121941 0.632203
vt 0.168631 0.663260
vt 0.211043 0.660307
vt 0.221192 0.856148
vt 0.332282 0.977009
vt 0.294769 0.993344
vt 0.294770 0.993344
s 1
usemtl Chef
f 1/1/1 3/2/2 2/3/3
f 3/2/2 4/4/4 2/3/3
f 2/3/3 4/4/4 5/5/5
f 4/4/4 74/6/6 5/5/5
f 5/5/5 74/6/6 192/7/7
f 208/1/8 6/3/9 222/2/10
f 222/2/10 6/3/9 7/4/11
f 6/3/9 8/5/12 7/4/11
f 7/4/11 8/5/12 56/6/13
f 8/5/12 203/7/14 56/6/13
f 48/8/15 9/9/16 10/10/17
f 9/9/16 63/11/18 10/10/17
f 10/10/17 63/11/18 11/12/19
f 63/11/18 64/13/20 11/12/19
f 64/13/20 12/14/21 11/12/19
f 11/12/19 12/14/21 13/15/22
f 12/14/21 222/2/10 13/15/22
f 222/2/10 7/4/11 13/15/22
f 13/15/22 7/4/11 14/16/23
f 7/4/11 56/6/13 14/16/23
f 56/6/13 58/17/24 14/16/23
f 14/16/23 58/17/24 15/18/25
f 58/17/24 16/19/26 15/18/25
f 16/19/26 17/20/27 15/18/25
f 15/18/25 17/20/27 18/21/28
f 17/20/27 54/22/29 18/21/28
f 54/22/29 53/23/30 18/21/28
f 53/23/30 19/24/31 18/21/28
f 18/21/28 19/24/31 10/10/17
f 19/24/31 20/25/32 10/10/17
f 10/10/17 20/25/32 48/8/15
f 21/26/33 23/27/34 22/28/35
f 22/28/35 23/27/34 24/29/36
f 23/27/34 33/30/37 24/29/36
f 24/29/36 33/30/37 472/31/38
f 25/32/39 26/33/40 239/34/41
f 239/34/41 26/33/40 238/35/42
f 26/33/40 475/36/43 238/35/42
f 238/35/42 475/36/43 520/37/44
f 27/38/45 201/39/46 28/40/47
f 28/40/47 201/39/46 520/41/44
f 201/39/46 171/42/48 520/41/44
f 277/43/49 216/44/50 29/45/51
f 216/44/50 30/46/52 29/45/51
f 29/45/51 30/46/52 31/47/53
f 254/48/54 476/49/55 263/50/56
f 263/50/56 476/49/55 32/51/57
f 246/52/58 284/53/59 33/54/37
f 33/54/37 284/53/59 472/55/38
f 288/56/60 416/57/61 522/58/62
f 522/58/62 416/57/61 524/59/63
f 467/60/64 35/61/65 34/62/66
f 34/62/66 35/61/65 36/60/67
f 261/63/68 521/64/69 254/48/54
f 37/65/70 28/66/47 285/67/71
f 28/66/47 520/68/44 285/67/71
f 285/67/71 520/68/44 526/69/72
f 520/68/44 475/70/43 526/69/72
f 136/71/73 491/72/74 38/73/75
f 491/72/74 297/74/76 38/73/75
f 38/73/75 297/74/76 89/75/77
f 89/75/77 297/74/76 39/76/78
f 297/74/76 327/77/79 39/76/78
f 39/76/78 327/77/79 155/78/80
f 327/77/79 328/79/81 155/78/80
f 47/80/82 48/8/15 40/81/83
f 48/8/15 20/25/32 40/81/83
f 40/81/83 20/25/32 41/82/84
f 20/25/32 19/24/31 41/82/84
f 19/24/31 53/23/30 41/82/84
f 41/82/84 53/23/30 42/83/85
f 43/71/86 153/73/87 44/72/88
f 44/72/88 153/73/87 45/74/89
f 153/73/87 152/75/90 45/74/89
f 152/75/90 46/76/91 45/74/89
f 45/74/89 46/76/91 322/77/92
f 46/76/91 107/78/93 322/77/92
f 322/77/92 107/78/93 324/79/94
f 47/84/82 49/85/95 48/86/15
f 48/86/15 49/85/95 50/87/96
f 49/85/95 51/88/97 50/87/96
f 50/87/96 51/88/97 52/89/98
f 52/89/98 51/88/97 53/90/30
f 51/88/97 42/91/85 53/90/30
f 53/90/30 54/92/29 52/89/98
f 54/92/29 55/93/99 52/89/98
f 52/89/98 55/93/99 50/87/96
f 55/93/99 9/94/16 50/87/96
f 50/87/96 9/94/16 48/86/15
f 203/95/14 57/96/100 56/97/13
f 56/97/13 57/96/100 58/98/24
f 57/96/100 59/99/101 58/98/24
f 59/99/101 60/100/102 58/98/24
f 58/98/24 60/100/102 16/101/26
f 60/100/102 61/102/103 16/101/26
f 16/101/26 61/102/103 17/103/27
f 17/103/27 61/102/103 54/92/29
f 54/92/29 61/102/103 55/93/99
f 61/102/103 62/104/104 55/93/99
f 55/93/99 62/104/104 9/94/16
f 9/94/16 62/104/104 63/105/18
f 63/105/18 62/104/104 64/106/20
f 64/106/20 62/104/104 60/100/102
f 62/104/104 61/102/103 60/100/102
f 183/84/105 65/86/106 66/85/107
f 65/86/106 67/87/108 66/85/107
f 66/85/107 67/87/108 68/88/109
f 67/87/108 69/89/110 68/88/109
f 69/89/110 70/90/111 68/88/109
f 68/88/109 70/90/111 186/91/112
f 70/90/111 69/89/110 71/92/113
f 71/92/113 69/89/110 72/93/114
f 69/89/110 67/87/108 72/93/114
f 72/93/114 67/87/108 73/94/115
f 67/87/108 65/86/106 73/94/115
f 192/95/7 74/97/6 75/96/116
f 74/97/6 76/98/117 75/96/116
f 75/96/116 76/98/117 77/99/118
f 77/99/118 76/98/117 78/100/119
f 76/98/117 79/101/120 78/100/119
f 78/100/119 79/101/120 80/102/121
f 79/101/120 177/103/122 80/102/121
f 177/103/122 71/92/113 80/102/121
f 71/92/113 72/93/114 80/102/121
f 80/102/121 72/93/114 81/104/123
f 72/93/114 73/94/115 81/104/123
f 73/94/115 82/105/124 81/104/123
f 82/105/124 182/106/125 81/104/123
f 182/106/125 78/100/119 81/104/123
f 81/104/123 78/100/119 80/102/121
f 83/107/126 85/108/127 84/109/128
f 84/109/128 85/108/127 300/110/129
f 300/110/129 85/108/127 86/111/130
f 85/108/127 504/112/131 86/111/130
f 87/113/132 252/114/133 122/115/134
f 252/114/133 172/116/135 122/115/134
f 172/116/135 171/117/48 122/115/134
f 122/115/134 171/117/48 114/113/136
f 114/113/136 171/117/48 88/118/137
f 171/117/48 201/119/46 88/118/137
f 89/120/77 39/121/78 90/122/138
f 39/121/78 91/123/139 90/122/138
f 90/122/138 91/123/139 92/124/140
f 91/123/139 93/125/141 92/124/140
f 92/124/140 93/125/141 94/126/142
f 94/126/142 93/125/141 123/127/143
f 123/127/143 93/125/141 227/128/144
f 93/125/141 95/129/145 227/128/144
f 227/128/144 95/129/145 96/130/146
f 96/130/146 95/129/145 237/131/147
f 95/129/145 97/132/148 237/131/147
f 237/131/147 97/132/148 236/133/149
f 236/133/149 97/132/148 98/134/150
f 98/134/150 97/132/148 144/135/151
f 97/132/148 99/136/152 144/135/151
f 144/135/151 99/136/152 151/137/153
f 99/136/152 46/138/91 151/137/153
f 151/137/153 46/138/91 152/139/90
f 100/140/154 102/141/155 101/142/156
f 101/142/156 102/141/155 209/143/157
f 209/143/157 102/141/155 103/144/158
f 102/141/155 212/145/159 103/144/158
f 212/145/159 215/146/160 103/144/158
f 103/144/158 215/146/160 104/147/161
f 95/129/145 105/148/162 97/132/148
f 97/132/148 105/148/162 99/136/152
f 105/148/162 106/149/163 99/136/152
f 99/136/152 106/149/163 46/138/91
f 46/138/91 106/149/163 107/150/93
f 106/149/163 108/151/164 107/150/93
f 107/150/93 108/151/164 170/152/165
f 108/151/164 109/153/166 170/152/165
f 170/152/165 109/153/166 244/154/167
f 244/154/167 109/153/166 117/155/168
f 117/155/168 109/153/166 110/156/169
f 109/153/166 108/151/164 110/156/169
f 108/151/164 111/157/170 110/156/169
f 110/156/169 111/157/170 241/158/171
f 241/158/171 111/157/170 161/159/172
f 161/159/172 111/157/170 163/160/173
f 111/157/170 108/151/164 163/160/173
f 163/160/173 108/151/164 155/161/80
f 108/151/164 112/162/174 155/161/80
f 155/161/80 112/162/174 39/121/78
f 39/121/78 112/162/174 91/123/139
f 112/162/174 105/148/162 91/123/139
f 91/123/139 105/148/162 93/125/141
f 105/148/162 95/129/145 93/125/141
f 106/149/163 105/148/162 108/151/164
f 105/148/162 112/162/174 108/151/164
f 88/163/137 113/164/175 114/165/136
f 114/165/136 113/164/175 115/166/176
f 113/164/175 116/167/177 115/166/176
f 115/166/176 116/167/177 117/168/168
f 117/168/168 116/167/177 243/169/178
f 116/167/177 311/170/179 243/169/178
f 243/169/178 311/170/179 242/171/180
f 242/171/180 311/170/179 118/169/181
f 311/170/179 312/167/182 118/169/181
f 118/169/181 312/167/182 241/168/171
f 241/168/171 312/167/182 119/166/183
f 312/167/182 120/164/184 119/166/183
f 120/164/184 87/165/132 119/166/183
f 119/166/183 87/165/132 121/172/185
f 87/165/132 122/173/134 121/172/185
f 122/173/134 114/165/136 121/172/185
f 114/165/136 115/166/176 121/172/185
f 115/166/176 117/168/168 121/172/185
f 117/168/168 110/174/169 121/172/185
f 110/174/169 241/168/171 121/172/185
f 121/172/185 241/168/171 119/166/183
f 123/175/143 226/176/186 124/177/187
f 124/177/187 226/176/186 125/178/188
f 226/176/186 126/179/189 125/178/188
f 126/179/189 127/180/190 125/178/188
f 127/180/190 128/181/191 125/178/188
f 128/181/191 129/182/192 125/178/188
f 125/178/188 129/182/192 130/183/193
f 130/183/193 129/182/192 131/184/194
f 129/182/192 132/185/195 131/184/194
f 132/185/195 133/186/196 131/184/194
f 133/186/196 233/187/197 131/184/194
f 233/187/197 235/188/198 131/184/194
f 131/184/194 235/188/198 142/189/199
f 235/188/198 236/190/149 142/189/199
f 124/177/187 125/178/188 141/191/200
f 125/178/188 130/183/193 141/191/200
f 130/183/193 131/184/194 141/191/200
f 141/191/200 131/184/194 142/189/199
f 134/192/201 136/193/73 135/194/202
f 135/194/202 136/193/73 137/195/203
f 136/193/73 38/196/75 137/195/203
f 38/196/75 89/197/77 137/195/203
f 89/197/77 90/198/138 137/195/203
f 90/198/138 92/199/140 137/195/203
f 137/195/203 92/199/140 138/200/204
f 138/200/204 92/199/140 139/201/205
f 92/199/140 94/202/142 139/201/205
f 94/202/142 123/175/143 139/201/205
f 123/175/143 124/177/187 139/201/205
f 139/201/205 124/177/187 140/203/206
f 124/177/187 141/191/200 140/203/206
f 141/191/200 142/189/199 140/203/206
f 140/203/206 142/189/199 143/204/207
f 142/189/199 236/190/149 143/204/207
f 236/190/149 98/205/150 143/204/207
f 98/205/150 144/206/151 143/204/207
f 144/206/151 145/207/208 143/204/207
f 143/204/207 145/207/208 140/203/206
f 145/207/208 146/208/209 140/203/206
f 146/208/209 138/200/204 140/203/206
f 140/203/206 138/200/204 139/201/205
f 138/200/204 146/208/209 137/195/203
f 146/208/209 147/209/210 137/195/203
f 137/195/203 147/209/210 135/194/202
f 135/194/202 147/209/210 148/210/211
f 148/210/211 147/209/210 149/211/212
f 149/211/212 147/209/210 150/212/213
f 147/209/210 146/208/209 150/212/213
f 146/208/209 145/207/208 150/212/213
f 145/207/208 144/206/151 150/212/213
f 144/206/151 151/213/153 150/212/213
f 151/213/153 152/214/90 150/212/213
f 152/214/90 153/215/87 150/212/213
f 153/215/87 43/216/86 150/212/213
f 150/212/213 43/216/86 149/211/212
f 43/216/86 154/217/214 149/211/212
f 155/218/80 328/219/81 156/220/215
f 328/219/81 489/221/216 156/220/215
f 156/220/215 489/221/216 157/222/217
f 157/222/217 489/221/216 158/223/218
f 489/221/216 159/224/219 158/223/218
f 159/224/219 491/225/74 158/223/218
f 491/225/74 136/226/73 158/223/218
f 158/223/218 136/226/73 160/227/220
f 136/226/73 134/228/201 160/227/220
f 134/228/201 161/229/172 160/227/220
f 160/227/220 161/229/172 162/230/221
f 161/229/172 163/231/173 162/230/221
f 162/230/221 163/231/173 156/220/215
f 163/231/173 155/218/80 156/220/215
f 158/223/218 160/227/220 157/222/217
f 160/227/220 162/230/221 157/222/217
f 157/222/217 162/230/221 156/220/215
f 107/218/93 164/220/222 324/219/94
f 324/219/94 164/220/222 502/221/223
f 164/220/222 165/222/224 502/221/223
f 165/222/224 166/223/225 502/221/223
f 502/221/223 166/223/225 167/224/226
f 167/224/226 166/223/225 44/225/88
f 44/225/88 166/223/225 43/226/86
f 166/223/225 168/227/227 43/226/86
f 43/226/86 168/227/227 154/228/214
f 154/228/214 168/227/227 244/229/167
f 168/227/227 169/230/228 244/229/167
f 244/229/167 169/230/228 170/231/165
f 169/230/228 164/220/222 170/231/165
f 170/231/165 164/220/222 107/218/93
f 166/223/225 165/222/224 168/227/227
f 168/227/227 165/222/224 169/230/228
f 165/222/224 164/220/222 169/230/228
f 520/232/44 171/233/48 475/234/43
f 171/233/48 172/235/135 475/234/43
f 475/234/43 172/235/135 249/236/229
f 172/235/135 252/237/133 249/236/229
f 249/236/229 252/237/133 472/238/38
f 13/15/22 14/16/23 11/12/19
f 14/16/23 15/18/25 11/12/19
f 11/12/19 15/18/25 10/10/17
f 15/18/25 18/21/28 10/10/17
f 65/8/106 173/25/230 174/10/231
f 173/25/230 175/24/232 174/10/231
f 174/10/231 175/24/232 176/21/233
f 175/24/232 70/23/111 176/21/233
f 70/23/111 71/22/113 176/21/233
f 71/22/113 177/20/122 176/21/233
f 176/21/233 177/20/122 178/18/234
f 177/20/122 79/19/120 178/18/234
f 79/19/120 76/17/117 178/18/234
f 178/18/234 76/17/117 179/16/235
f 76/17/117 74/6/6 179/16/235
f 74/6/6 4/4/4 179/16/235
f 179/16/235 4/4/4 180/15/236
f 4/4/4 3/2/2 180/15/236
f 3/2/2 217/14/237 180/15/236
f 180/15/236 217/14/237 181/12/238
f 217/14/237 182/13/125 181/12/238
f 182/13/125 82/11/124 181/12/238
f 181/12/238 82/11/124 174/10/231
f 82/11/124 73/9/115 174/10/231
f 174/10/231 73/9/115 65/8/106
f 176/21/233 178/18/234 174/10/231
f 174/10/231 178/18/234 181/12/238
f 178/18/234 179/16/235 181/12/238
f 181/12/238 179/16/235 180/15/236
f 183/80/105 184/81/239 65/8/106
f 65/8/106 184/81/239 173/25/230
f 184/81/239 185/82/240 173/25/230
f 173/25/230 185/82/240 175/24/232
f 175/24/232 185/82/240 70/23/111
f 185/82/240 186/83/112 70/23/111
f 187/239/241 188/240/242 189/241/243
f 188/240/242 190/242/244 189/241/243
f 189/241/243 190/242/244 191/243/245
f 192/244/7 193/245/246 5/246/5
f 5/246/5 193/245/246 2/247/3
f 193/245/246 194/248/247 2/247/3
f 2/247/3 194/248/247 1/249/1
f 1/249/1 194/248/247 195/250/248
f 195/250/248 194/248/247 221/251/249
f 194/248/247 193/245/246 221/251/249
f 221/251/249 193/245/246 220/252/250
f 220/252/250 193/245/246 196/250/251
f 193/245/246 192/244/7 196/250/251
f 196/250/251 192/244/7 191/243/245
f 192/244/7 197/253/252 191/243/245
f 191/243/245 197/253/252 189/241/243
f 189/241/243 197/253/252 187/239/241
f 197/253/252 1/249/1 187/239/241
f 1/249/1 195/250/248 187/239/241
f 195/250/248 219/254/253 187/239/241
f 187/239/241 219/254/253 188/240/242
f 219/254/253 198/255/254 188/240/242
f 188/240/242 198/255/254 190/242/244
f 198/255/254 218/256/255 190/242/244
f 218/256/255 199/257/256 190/242/244
f 190/242/244 199/257/256 191/243/245
f 199/257/256 196/250/251 191/243/245
f 521/258/69 261/259/68 27/260/45
f 261/259/68 200/261/257 27/260/45
f 27/260/45 200/261/257 201/262/46
f 201/262/46 200/261/257 88/163/137
f 88/163/137 200/261/257 113/164/175
f 113/164/175 200/261/257 202/263/258
f 202/263/258 200/261/257 250/264/259
f 200/261/257 261/259/68 250/264/259
f 203/244/14 204/243/260 205/253/261
f 204/243/260 206/241/262 205/253/261
f 206/241/262 207/239/263 205/253/261
f 205/253/261 207/239/263 208/249/8
f 208/249/8 207/239/263 103/250/158
f 103/250/158 207/239/263 209/254/157
f 207/239/263 210/240/264 209/254/157
f 209/254/157 210/240/264 101/255/156
f 210/240/264 211/242/265 101/255/156
f 101/255/156 211/242/265 100/256/154
f 100/256/154 211/242/265 102/257/155
f 211/242/265 204/243/260 102/257/155
f 102/257/155 204/243/260 212/250/159
f 204/243/260 203/244/14 212/250/159
f 212/250/159 203/244/14 213/245/266
f 203/244/14 8/246/12 213/245/266
f 8/246/12 6/247/9 213/245/266
f 213/245/266 6/247/9 214/248/267
f 6/247/9 208/249/8 214/248/267
f 208/249/8 103/250/158 214/248/267
f 103/250/158 104/251/161 214/248/267
f 214/248/267 104/251/161 213/245/266
f 104/251/161 215/252/160 213/245/266
f 213/245/266 215/252/160 212/250/159
f 207/239/263 206/241/262 210/240/264
f 210/240/264 206/241/262 211/242/265
f 206/241/262 204/243/260 211/242/265
f 277/43/49 298/265/268 216/44/50
f 298/265/268 307/266/269 216/44/50
f 307/266/269 256/267/270 216/44/50
f 216/44/50 256/267/270 257/268/271
f 182/106/125 217/269/237 78/100/119
f 78/100/119 217/269/237 77/99/118
f 77/99/118 217/269/237 75/96/116
f 217/269/237 3/270/2 75/96/116
f 3/270/2 1/271/1 75/96/116
f 1/271/1 197/272/252 75/96/116
f 75/96/116 197/272/252 192/95/7
f 218/140/255 198/142/254 199/141/256
f 198/142/254 219/143/253 199/141/256
f 219/143/253 195/144/248 199/141/256
f 199/141/256 195/144/248 196/145/251
f 196/145/251 195/144/248 220/146/250
f 195/144/248 221/147/249 220/146/250
f 64/106/20 60/100/102 12/269/21
f 60/100/102 59/99/101 12/269/21
f 59/99/101 57/96/100 12/269/21
f 12/269/21 57/96/100 222/270/10
f 222/270/10 57/96/100 208/271/8
f 208/271/8 57/96/100 205/272/261
f 57/96/100 203/95/14 205/272/261
f 223/273/272 127/274/190 224/275/273
f 127/274/190 126/276/189 224/275/273
f 224/275/273 126/276/189 225/277/274
f 126/276/189 226/278/186 225/277/274
f 226/278/186 123/127/143 225/277/274
f 123/127/143 227/128/144 225/277/274
f 227/128/144 96/130/146 225/277/274
f 96/130/146 228/279/275 225/277/274
f 228/279/275 229/280/276 225/277/274
f 225/277/274 229/280/276 224/275/273
f 229/280/276 230/281/277 224/275/273
f 224/275/273 230/281/277 223/273/272
f 231/282/278 232/283/279 133/284/196
f 133/284/196 232/283/279 233/285/197
f 232/283/279 234/286/280 233/285/197
f 233/285/197 234/286/280 235/287/198
f 235/287/198 234/286/280 236/133/149
f 236/133/149 234/286/280 237/131/147
f 237/131/147 234/286/280 96/130/146
f 96/130/146 234/286/280 228/279/275
f 228/279/275 234/286/280 229/280/276
f 234/286/280 232/283/279 229/280/276
f 229/280/276 232/283/279 230/281/277
f 232/283/279 231/282/278 230/281/277
f 24/35/36 247/32/281 22/34/35
f 518/288/282 239/28/41 238/29/42
f 83/258/126 240/260/283 85/259/127
f 161/289/172 134/192/201 241/290/171
f 241/290/171 134/192/201 118/291/181
f 134/192/201 135/194/202 118/291/181
f 118/291/181 135/194/202 242/292/180
f 135/194/202 148/210/211 242/292/180
f 148/210/211 149/211/212 242/292/180
f 242/292/180 149/211/212 243/293/178
f 149/211/212 154/217/214 243/293/178
f 243/293/178 154/217/214 117/294/168
f 154/217/214 244/295/167 117/294/168
f 475/296/43 26/297/40 249/298/229
f 285/299/71 526/300/72 245/301/284
f 268/302/285 284/300/59 246/299/58
f 247/32/281 24/35/36 248/33/286
f 24/35/36 472/37/38 248/33/286
f 248/33/286 472/37/38 249/36/229
f 247/303/281 248/304/286 25/305/39
f 25/305/39 248/304/286 26/297/40
f 248/304/286 249/298/229 26/297/40
f 240/38/283 33/40/37 251/306/287
f 33/40/37 472/41/38 251/306/287
f 251/306/287 472/41/38 252/307/133
f 113/164/175 202/263/258 515/308/288
f 515/308/288 202/263/258 418/309/289
f 202/263/258 250/264/259 418/309/289
f 251/310/287 252/114/133 253/118/290
f 252/114/133 87/113/132 253/118/290
f 476/49/55 254/48/54 255/311/291
f 254/48/54 521/64/69 255/311/291
f 240/38/283 291/312/292 33/40/37
f 256/267/270 258/313/293 257/268/271
f 257/268/271 258/313/293 259/314/294
f 258/313/293 260/315/295 259/314/294
f 260/315/295 250/316/259 259/314/294
f 250/316/259 261/63/68 259/314/294
f 259/314/294 261/63/68 262/317/296
f 261/63/68 254/48/54 262/317/296
f 254/48/54 263/50/56 262/317/296
f 263/50/56 264/318/297 262/317/296
f 262/317/296 264/318/297 259/314/294
f 259/314/294 264/318/297 257/268/271
f 257/268/271 264/318/297 265/319/298
f 264/318/297 263/50/56 265/319/298
f 265/319/298 263/50/56 266/320/299
f 263/50/56 32/51/57 266/320/299
f 266/320/299 32/51/57 267/321/300
f 267/321/300 32/51/57 290/322/301
f 32/51/57 476/49/55 290/322/301
f 273/323/302 275/58/303 309/56/304
f 275/58/303 276/59/305 309/56/304
f 309/56/304 276/59/305 308/57/306
f 276/59/305 268/301/285 308/57/306
f 308/57/306 268/301/285 269/302/307
f 268/301/285 246/300/58 269/302/307
f 269/302/307 246/300/58 289/299/308
f 270/324/309 271/325/310 267/321/300
f 267/321/300 271/325/310 266/320/299
f 271/325/310 31/47/53 266/320/299
f 266/320/299 31/47/53 265/319/298
f 31/47/53 272/326/311 265/319/298
f 265/319/298 272/326/311 257/268/271
f 257/268/271 272/326/311 216/44/50
f 216/44/50 272/326/311 30/46/52
f 272/326/311 31/47/53 30/46/52
f 273/323/302 274/58/312 275/56/303
f 274/58/312 282/59/313 275/56/303
f 275/56/303 282/59/313 276/57/305
f 282/59/313 283/301/314 276/57/305
f 276/57/305 283/301/314 268/302/285
f 283/301/314 284/300/59 268/302/285
f 270/324/309 277/43/49 271/325/310
f 277/43/49 29/45/51 271/325/310
f 271/325/310 29/45/51 31/47/53
f 473/300/315 278/301/316 474/299/317
f 474/299/317 278/301/316 525/302/318
f 278/301/316 279/59/319 525/302/318
f 525/302/318 279/59/319 280/57/320
f 279/59/319 281/327/321 280/57/320
f 280/57/320 281/327/321 523/56/322
f 281/327/321 273/328/302 523/56/322
f 273/323/302 281/58/321 274/56/312
f 281/58/321 279/59/319 274/56/312
f 274/56/312 279/59/319 282/57/313
f 279/59/319 278/301/316 282/57/313
f 282/57/313 278/301/316 283/302/314
f 278/301/316 473/300/315 283/302/314
f 283/302/314 473/300/315 284/299/59
f 285/300/71 417/301/323 37/299/70
f 37/299/70 417/301/323 286/302/324
f 417/301/323 416/59/61 286/302/324
f 286/302/324 416/59/61 287/57/325
f 416/59/61 288/58/60 287/57/325
f 287/57/325 288/58/60 310/56/326
f 288/58/60 273/323/302 310/56/326
f 476/329/55 289/330/308 290/331/301
f 289/330/308 246/52/58 290/331/301
f 290/331/301 246/52/58 291/332/292
f 246/52/58 33/54/37 291/332/292
f 481/333/327 356/334/328 479/335/329
f 356/334/328 292/336/330 479/335/329
f 479/335/329 292/336/330 293/337/331
f 292/336/330 294/338/332 293/337/331
f 293/337/331 294/338/332 295/339/333
f 295/339/333 294/338/332 296/340/334
f 294/338/332 297/74/76 296/340/334
f 296/340/334 297/74/76 491/72/74
f 298/265/268 277/43/49 299/341/335
f 299/341/335 277/43/49 86/111/130
f 277/43/49 270/324/309 86/111/130
f 86/111/130 270/324/309 300/110/129
f 270/324/309 267/321/300 300/110/129
f 300/110/129 267/321/300 84/109/128
f 267/321/300 290/322/301 84/109/128
f 290/322/301 291/342/292 84/109/128
f 84/109/128 291/342/292 83/107/126
f 381/333/336 494/335/337 427/334/338
f 427/334/338 494/335/337 301/336/339
f 494/335/337 302/337/340 301/336/339
f 301/336/339 302/337/340 303/338/341
f 302/337/340 304/339/342 303/338/341
f 304/339/342 305/340/343 303/338/341
f 303/338/341 305/340/343 45/74/89
f 305/340/343 44/72/88 45/74/89
f 258/313/293 256/267/270 306/343/344
f 256/267/270 307/266/269 306/343/344
f 306/343/344 307/266/269 34/344/66
f 34/344/66 307/266/269 466/345/345
f 307/266/269 298/265/268 466/345/345
f 466/345/345 298/265/268 299/341/335
f 37/299/70 286/302/324 289/300/308
f 289/300/308 286/302/324 269/301/307
f 286/302/324 287/57/325 269/301/307
f 269/301/307 287/57/325 308/59/306
f 308/59/306 287/57/325 309/58/304
f 287/57/325 310/56/326 309/58/304
f 309/58/304 310/56/326 273/328/302
f 113/164/175 515/308/288 116/167/177
f 116/167/177 515/308/288 311/170/179
f 515/308/288 513/346/346 311/170/179
f 513/346/346 512/308/347 311/170/179
f 311/170/179 512/308/347 312/167/182
f 512/308/347 120/164/184 312/167/182
f 87/165/132 120/164/184 253/163/290
f 313/347/348 315/348/349 314/349/350
f 314/349/350 315/348/349 485/350/351
f 315/348/349 316/351/352 485/350/351
f 316/351/352 317/352/353 485/350/351
f 485/350/351 317/352/353 318/353/354
f 383/354/355 385/355/356 497/353/357
f 497/353/357 385/355/356 319/352/358
f 385/355/356 427/334/338 319/352/358
f 427/334/338 301/336/339 319/352/358
f 319/352/358 301/336/339 320/351/359
f 301/336/339 303/338/341 320/351/359
f 320/351/359 303/338/341 321/348/360
f 303/338/341 45/74/89 321/348/360
f 45/74/89 322/77/92 321/348/360
f 321/348/360 322/77/92 323/347/361
f 322/77/92 324/79/94 323/347/361
f 323/347/361 325/349/362 321/348/360
f 325/349/362 326/350/363 321/348/360
f 321/348/360 326/350/363 320/351/359
f 320/351/359 326/350/363 319/352/358
f 326/350/363 497/353/357 319/352/358
f 483/354/364 318/353/354 354/355/365
f 318/353/354 317/352/353 354/355/365
f 354/355/365 317/352/353 356/334/328
f 356/334/328 317/352/353 292/336/330
f 317/352/353 316/351/352 292/336/330
f 292/336/330 316/351/352 294/338/332
f 316/351/352 315/348/349 294/338/332
f 294/338/332 315/348/349 297/74/76
f 297/74/76 315/348/349 327/77/79
f 315/348/349 313/347/348 327/77/79
f 327/77/79 313/347/348 328/79/81
f 329/356/366 331/357/367 330/358/368
f 330/358/368 331/357/367 332/359/369
f 332/359/369 331/357/367 333/360/370
f 331/357/367 334/361/371 333/360/370
f 333/360/370 334/361/371 335/362/372
f 334/361/371 336/363/373 335/362/372
f 335/362/372 336/363/373 337/364/374
f 336/363/373 338/365/375 337/364/374
f 338/365/375 360/366/376 337/364/374
f 337/364/374 360/366/376 339/367/377
f 339/367/377 360/366/376 340/368/378
f 360/366/376 361/369/379 340/368/378
f 340/368/378 361/369/379 341/370/380
f 361/369/379 342/371/381 341/370/380
f 342/371/381 343/372/382 341/370/380
f 341/370/380 343/372/382 340/368/378
f 340/368/378 343/372/382 344/373/383
f 343/372/382 342/371/381 344/373/383
f 342/371/381 345/374/384 344/373/383
f 345/374/384 346/375/385 344/373/383
f 344/373/383 346/375/385 347/376/386
f 346/375/385 348/377/387 347/376/386
f 347/376/386 348/377/387 349/378/388
f 348/377/387 457/379/389 349/378/388
f 340/368/378 344/373/383 339/367/377
f 344/373/383 347/376/386 339/367/377
f 339/367/377 347/376/386 337/364/374
f 347/376/386 349/378/388 337/364/374
f 337/364/374 349/378/388 350/380/390
f 349/378/388 351/381/391 350/380/390
f 351/381/391 481/382/327 350/380/390
f 481/382/327 352/383/392 350/380/390
f 352/383/392 483/384/364 350/380/390
f 350/380/390 483/384/364 353/385/393
f 483/384/364 354/386/365 353/385/393
f 353/385/393 354/386/365 355/387/394
f 354/386/365 356/388/328 355/387/394
f 355/387/394 356/388/328 357/389/395
f 357/389/395 356/388/328 457/390/389
f 356/388/328 447/391/396 457/390/389
f 447/391/396 449/392/397 457/390/389
f 449/392/397 358/393/398 457/390/389
f 457/390/389 358/393/398 454/394/399
f 358/393/398 359/395/400 454/394/399
f 454/394/399 359/395/400 452/396/401
f 457/390/389 348/397/387 357/389/395
f 357/389/395 348/397/387 338/398/375
f 348/397/387 346/399/385 338/398/375
f 346/399/385 345/400/384 338/398/375
f 338/398/375 345/400/384 360/401/376
f 360/401/376 345/400/384 361/402/379
f 345/400/384 342/403/381 361/402/379
f 362/356/402 363/358/403 443/357/404
f 363/358/403 364/359/405 443/357/404
f 364/359/405 365/360/406 443/357/404
f 443/357/404 365/360/406 366/361/407
f 365/360/406 367/362/408 366/361/407
f 366/361/407 367/362/408 442/363/409
f 367/362/408 368/364/410 442/363/409
f 442/363/409 368/364/410 393/365/411
f 393/365/411 368/364/410 394/366/412
f 368/364/410 369/367/413 394/366/412
f 369/367/413 370/368/414 394/366/412
f 394/366/412 370/368/414 395/369/415
f 370/368/414 371/370/416 395/369/415
f 395/369/415 371/370/416 372/371/417
f 372/371/417 371/370/416 373/372/418
f 371/370/416 370/368/414 373/372/418
f 370/368/414 374/373/419 373/372/418
f 373/372/418 374/373/419 372/371/417
f 372/371/417 374/373/419 375/374/420
f 375/374/420 374/373/419 376/375/421
f 374/373/419 377/376/422 376/375/421
f 376/375/421 377/376/422 392/377/423
f 377/376/422 378/378/424 392/377/423
f 392/377/423 378/378/424 388/379/425
f 370/368/414 369/367/413 374/373/419
f 374/373/419 369/367/413 377/376/422
f 369/367/413 368/364/410 377/376/422
f 377/376/422 368/364/410 378/378/424
f 368/364/410 379/380/426 378/378/424
f 378/378/424 379/380/426 380/381/427
f 380/381/427 379/380/426 381/382/336
f 381/382/336 379/380/426 382/383/428
f 382/383/428 379/380/426 383/384/355
f 379/380/426 384/385/429 383/384/355
f 383/384/355 384/385/429 385/386/356
f 384/385/429 386/387/430 385/386/356
f 385/386/356 386/387/430 427/388/338
f 386/387/430 387/389/431 427/388/338
f 387/389/431 388/390/425 427/388/338
f 427/388/338 388/390/425 428/391/432
f 428/391/432 388/390/425 430/392/433
f 430/392/433 388/390/425 431/393/434
f 388/390/425 389/394/435 431/393/434
f 431/393/434 389/394/435 390/395/436
f 389/394/435 391/396/437 390/395/436
f 388/390/425 387/389/431 392/397/423
f 387/389/431 393/398/411 392/397/423
f 392/397/423 393/398/411 376/399/421
f 376/399/421 393/398/411 375/400/420
f 393/398/411 394/401/412 375/400/420
f 394/401/412 395/402/415 375/400/420
f 375/400/420 395/402/415 372/403/417
f 396/404/438 398/405/439 397/406/440
f 397/406/440 398/405/439 399/407/441
f 399/407/441 398/405/439 400/408/442
f 398/405/439 401/409/443 400/408/442
f 401/409/443 402/410/444 400/408/442
f 400/408/442 402/410/444 403/411/445
f 403/411/445 402/410/444 404/412/446
f 402/410/444 405/413/447 404/412/446
f 406/414/448 407/415/449 408/416/450
f 407/415/449 409/417/451 408/416/450
f 409/417/451 410/418/452 408/416/450
f 408/416/450 410/418/452 411/419/453
f 411/419/453 410/418/452 412/420/454
f 410/418/452 413/421/455 412/420/454
f 413/421/455 414/422/456 412/420/454
f 412/420/454 414/422/456 415/423/457
f 416/57/61 417/302/323 524/59/63
f 524/59/63 417/302/323 245/301/284
f 417/302/323 285/299/71 245/301/284
f 250/316/259 260/315/295 418/424/289
f 418/424/289 260/315/295 419/425/458
f 260/315/295 258/313/293 419/425/458
f 419/425/458 258/313/293 420/426/459
f 258/313/293 421/427/460 420/426/459
f 420/426/459 421/427/460 508/428/461
f 508/428/461 421/427/460 422/429/462
f 422/429/462 421/427/460 423/430/463
f 421/427/460 258/313/293 423/430/463
f 423/430/463 424/431/464 422/429/462
f 424/431/464 469/432/465 422/429/462
f 469/432/465 425/433/466 422/429/462
f 422/429/462 425/433/466 508/428/461
f 508/428/461 425/433/466 426/434/467
f 426/434/467 425/433/466 299/341/335
f 425/433/466 469/432/465 299/341/335
f 381/382/336 427/435/338 380/381/427
f 427/435/338 428/436/432 380/381/427
f 380/381/427 428/436/432 429/437/468
f 428/436/432 430/438/433 429/437/468
f 430/438/433 431/439/434 429/437/468
f 429/437/468 431/439/434 432/440/469
f 432/440/469 431/439/434 433/441/470
f 431/439/434 390/442/436 433/441/470
f 390/442/436 391/443/437 433/441/470
f 433/441/470 391/443/437 434/444/471
f 391/443/437 389/445/435 434/444/471
f 389/445/435 435/446/472 434/444/471
f 434/444/471 435/446/472 433/441/470
f 433/441/470 435/446/472 432/440/469
f 432/440/469 435/446/472 429/437/468
f 435/446/472 436/447/473 429/437/468
f 436/447/473 378/378/424 429/437/468
f 429/437/468 378/378/424 380/381/427
f 389/445/435 388/448/425 435/446/472
f 435/446/472 388/448/425 436/447/473
f 388/448/425 378/378/424 436/447/473
f 365/360/406 364/359/405 367/362/408
f 364/359/405 437/449/474 367/362/408
f 367/362/408 437/449/474 368/364/410
f 437/449/474 438/450/475 368/364/410
f 368/364/410 438/450/475 379/380/426
f 379/380/426 438/450/475 384/385/429
f 438/450/475 439/451/476 384/385/429
f 384/385/429 439/451/476 386/387/430
f 386/387/430 439/451/476 387/389/431
f 439/451/476 440/452/477 387/389/431
f 387/389/431 440/452/477 393/398/411
f 440/452/477 441/453/478 393/398/411
f 393/398/411 441/453/478 442/454/409
f 442/454/409 441/453/478 366/455/407
f 366/455/407 441/453/478 443/456/404
f 443/456/404 441/453/478 362/457/402
f 441/453/478 444/458/479 362/457/402
f 444/458/479 445/459/480 362/457/402
f 362/457/402 445/459/480 363/358/403
f 363/358/403 445/459/480 364/359/405
f 364/359/405 445/459/480 437/449/474
f 437/449/474 445/459/480 438/450/475
f 445/459/480 444/458/479 438/450/475
f 438/450/475 444/458/479 446/460/481
f 444/458/479 441/453/478 446/460/481
f 441/453/478 440/452/477 446/460/481
f 440/452/477 439/451/476 446/460/481
f 446/460/481 439/451/476 438/450/475
f 481/382/327 351/381/391 356/435/328
f 356/435/328 351/381/391 447/436/396
f 351/381/391 448/437/482 447/436/396
f 447/436/396 448/437/482 449/438/397
f 449/438/397 448/437/482 358/439/398
f 448/437/482 450/440/483 358/439/398
f 450/440/483 451/441/484 358/439/398
f 358/439/398 451/441/484 359/442/400
f 359/442/400 451/441/484 452/443/401
f 451/441/484 453/444/485 452/443/401
f 452/443/401 453/444/485 454/445/399
f 454/445/399 453/444/485 455/446/486
f 453/444/485 451/441/484 455/446/486
f 451/441/484 450/440/483 455/446/486
f 450/440/483 448/437/482 455/446/486
f 455/446/486 448/437/482 456/447/487
f 456/447/487 448/437/482 349/378/388
f 448/437/482 351/381/391 349/378/388
f 454/445/399 455/446/486 457/448/389
f 455/446/486 456/447/487 457/448/389
f 457/448/389 456/447/487 349/378/388
f 333/360/370 335/362/372 332/359/369
f 332/359/369 335/362/372 458/449/488
f 335/362/372 337/364/374 458/449/488
f 458/449/488 337/364/374 459/450/489
f 337/364/374 350/380/390 459/450/489
f 350/380/390 353/385/393 459/450/489
f 459/450/489 353/385/393 460/451/490
f 353/385/393 355/387/394 460/451/490
f 355/387/394 357/389/395 460/451/490
f 460/451/490 357/389/395 461/452/491
f 357/389/395 338/398/375 461/452/491
f 461/452/491 338/398/375 462/453/492
f 338/398/375 336/454/373 462/453/492
f 336/454/373 334/455/371 462/453/492
f 334/455/371 331/456/367 462/453/492
f 331/456/367 329/457/366 462/453/492
f 462/453/492 329/457/366 463/458/493
f 463/458/493 329/457/366 464/459/494
f 329/457/366 330/358/368 464/459/494
f 330/358/368 332/359/369 464/459/494
f 332/359/369 458/449/488 464/459/494
f 458/449/488 459/450/489 464/459/494
f 464/459/494 459/450/489 463/458/493
f 459/450/489 465/460/495 463/458/493
f 463/458/493 465/460/495 462/453/492
f 462/453/492 465/460/495 461/452/491
f 461/452/491 465/460/495 460/451/490
f 465/460/495 459/450/489 460/451/490
f 34/62/66 466/461/345 467/60/64
f 466/461/345 299/462/335 467/60/64
f 467/60/64 299/462/335 468/463/496
f 299/462/335 469/464/465 468/463/496
f 469/464/465 424/62/464 468/463/496
f 424/62/464 470/465/497 468/463/496
f 468/463/496 470/465/497 467/60/64
f 467/60/64 470/465/497 35/61/65
f 35/61/65 470/465/497 36/60/67
f 36/60/67 470/465/497 471/463/498
f 470/465/497 424/62/464 471/463/498
f 424/62/464 423/464/463 471/463/498
f 423/464/463 258/462/293 471/463/498
f 471/463/498 258/462/293 36/60/67
f 258/462/293 306/461/344 36/60/67
f 36/60/67 306/461/344 34/62/66
f 284/53/59 473/466/315 472/55/38
f 472/55/38 473/466/315 249/467/229
f 473/466/315 474/468/317 249/467/229
f 249/467/229 474/468/317 475/70/43
f 474/468/317 526/69/72 475/70/43
f 28/66/47 37/65/70 255/469/291
f 37/65/70 289/470/308 255/469/291
f 255/469/291 289/470/308 476/471/55
f 296/472/334 477/473/499 295/474/333
f 295/474/333 477/473/499 293/475/331
f 477/473/499 478/476/500 293/475/331
f 293/475/331 478/476/500 479/477/329
f 478/476/500 480/478/501 479/477/329
f 479/477/329 480/478/501 481/479/327
f 481/479/327 480/478/501 352/480/392
f 480/478/501 482/481/502 352/480/392
f 352/480/392 482/481/502 483/482/364
f 483/482/364 482/481/502 318/483/354
f 482/481/502 484/484/503 318/483/354
f 318/483/354 484/484/503 485/485/351
f 485/485/351 484/484/503 486/486/504
f 486/486/504 484/484/503 478/476/500
f 484/484/503 482/481/502 478/476/500
f 478/476/500 482/481/502 480/478/501
f 478/476/500 477/473/499 486/486/504
f 477/473/499 487/487/505 486/486/504
f 486/486/504 487/487/505 485/485/351
f 485/485/351 487/487/505 314/488/350
f 314/488/350 487/487/505 313/489/348
f 487/487/505 488/490/506 313/489/348
f 313/489/348 488/490/506 328/219/81
f 328/219/81 488/490/506 489/221/216
f 488/490/506 490/491/507 489/221/216
f 489/221/216 490/491/507 159/224/219
f 159/224/219 490/491/507 491/225/74
f 491/225/74 490/491/507 296/472/334
f 296/472/334 490/491/507 477/473/499
f 477/473/499 490/491/507 487/487/505
f 490/491/507 488/490/506 487/487/505
f 305/472/343 304/474/342 492/473/508
f 304/474/342 302/475/340 492/473/508
f 492/473/508 302/475/340 493/476/509
f 302/475/340 494/477/337 493/476/509
f 493/476/509 494/477/337 495/478/510
f 494/477/337 381/479/336 495/478/510
f 381/479/336 382/480/428 495/478/510
f 495/478/510 382/480/428 496/481/511
f 382/480/428 383/482/355 496/481/511
f 383/482/355 497/483/357 496/481/511
f 496/481/511 497/483/357 498/484/512
f 497/483/357 326/485/363 498/484/512
f 326/485/363 499/486/513 498/484/512
f 499/486/513 493/476/509 498/484/512
f 498/484/512 493/476/509 496/481/511
f 493/476/509 495/478/510 496/481/511
f 493/476/509 499/486/513 492/473/508
f 492/473/508 499/486/513 500/487/514
f 499/486/513 326/485/363 500/487/514
f 326/485/363 325/488/362 500/487/514
f 325/488/362 323/489/361 500/487/514
f 500/487/514 323/489/361 501/490/515
f 323/489/361 324/219/94 501/490/515
f 324/219/94 502/221/223 501/490/515
f 501/490/515 502/221/223 503/491/516
f 502/221/223 167/224/226 503/491/516
f 167/224/226 44/225/88 503/491/516
f 44/225/88 305/472/343 503/491/516
f 305/472/343 492/473/508 503/491/516
f 492/473/508 500/487/514 503/491/516
f 503/491/516 500/487/514 501/490/515
f 504/112/131 505/492/517 86/111/130
f 86/111/130 505/492/517 299/341/335
f 505/492/517 506/493/518 299/341/335
f 299/341/335 506/493/518 426/434/467
f 506/493/518 507/494/519 426/434/467
f 426/434/467 507/494/519 508/428/461
f 508/428/461 507/494/519 420/426/459
f 420/426/459 507/494/519 419/425/458
f 419/425/458 507/494/519 509/495/520
f 507/494/519 506/493/518 509/495/520
f 509/495/520 506/493/518 510/496/521
f 510/496/521 506/493/518 511/497/522
f 506/493/518 505/492/517 511/497/522
f 511/497/522 505/492/517 504/112/131
f 511/497/522 512/498/347 510/496/521
f 512/498/347 513/499/346 510/496/521
f 510/496/521 513/499/346 509/495/520
f 513/499/346 514/500/523 509/495/520
f 509/495/520 514/500/523 419/425/458
f 419/425/458 514/500/523 418/424/289
f 418/424/289 514/500/523 515/501/288
f 514/500/523 513/499/346 515/501/288
f 240/260/283 251/262/287 516/261/524
f 251/262/287 253/163/290 516/261/524
f 253/163/290 120/164/184 516/261/524
f 516/261/524 120/164/184 517/263/525
f 120/164/184 512/308/347 517/263/525
f 512/308/347 511/309/522 517/263/525
f 511/309/522 504/264/131 517/263/525
f 517/263/525 504/264/131 516/261/524
f 504/264/131 85/259/127 516/261/524
f 516/261/524 85/259/127 240/260/283
f 291/502/292 240/260/283 83/258/126
f 518/288/282 238/29/42 519/27/526
f 238/29/42 520/31/44 519/27/526
f 520/31/44 28/503/47 519/27/526
f 519/27/526 28/503/47 255/504/291
f 255/502/291 521/258/69 27/260/45
f 522/58/62 273/323/302 288/56/60
f 23/27/34 291/505/292 33/30/37
f 273/323/302 522/56/62 523/58/322
f 522/56/62 524/57/63 523/58/322
f 523/58/322 524/57/63 280/59/320
f 524/57/63 245/302/284 280/59/320
f 280/59/320 245/302/284 525/301/318
f 245/302/284 526/299/72 525/301/318
f 525/301/318 526/299/72 474/300/317
f 255/312/291 27/38/45 28/40/47
