# Blender v2.83.1 OBJ File: ''
# www.blender.org
mtllib Cylinder001.mtl
o Cylinder001
v -1.112949 1.992246 -0.229108
v 1.112948 1.992247 -0.229108
v -1.112949 0.000101 -0.229108
v 1.112949 0.000101 -0.229108
v -1.112948 0.000101 2.658311
v -0.535156 0.000101 1.400117
v -0.535156 0.000101 2.432250
v 0.535156 0.000101 1.400116
v 0.535156 0.000101 2.432250
v 1.112949 0.000101 2.658311
vt 0.015097 0.979521
vt 0.015198 0.512074
vt 0.077803 0.980258
vt 0.077903 0.512810
vt 0.034490 0.247871
vt 0.015307 0.007190
vt 0.034527 0.075446
vt 0.088149 0.878905
vt 0.088379 0.007243
vt 0.992054 0.879143
vt 0.992284 0.007481
vt 0.058763 0.075730
vt 0.058725 0.248156
vt 0.078012 0.007925
vn -0.0000 -0.0000 1.0000
vn -0.0000 0.7071 0.7071
vn -0.0000 1.0000 0.0000
usemtl Default_OBJ
s 1
f 1/1/1 3/2/2 2/3/1
f 3/2/2 4/4/2 2/3/1
f 3/2/2 6/5/3 4/4/2
f 5/6/3 7/7/3 3/2/2
f 7/7/3 6/5/3 3/2/2
f 6/8/3 7/9/3 8/10/3
f 7/9/3 9/11/3 8/10/3
f 9/12/3 7/7/3 5/6/3
f 8/13/3 9/12/3 10/14/3
f 10/14/3 9/12/3 5/6/3
f 4/4/2 8/13/3 10/14/3
f 6/5/3 8/13/3 4/4/2
