# Blender v2.76 (sub 0) OBJ File: ''
# www.blender.org
mtllib Gino.mtl
o polygon2.010
v -0.027100 0.852051 -0.302002
v -0.032227 0.852051 0.347412
v -0.033691 0.731690 -0.291015
v -0.034668 0.728027 0.325440
v -0.026123 0.415527 -0.306396
v -0.041992 0.422119 0.297119
v -0.521729 0.422119 0.288330
v -0.278809 0.422119 0.353272
v -0.497803 0.728027 0.298340
v -0.034668 0.728027 0.325440
v -0.495117 0.852051 0.307617
v -0.032227 0.852051 0.347412
v 0.527344 0.036133 0.576660
v 0.507812 0.284180 0.578857
v 0.284668 0.036133 0.657715
v 0.282715 0.327148 0.622559
v 0.057129 0.284180 0.578857
v 0.066650 0.438721 0.240234
v -0.527344 0.036133 0.576660
v -0.284668 0.036133 0.657715
v -0.507812 0.284180 0.578857
v -0.282715 0.327148 0.622559
v -0.490967 0.438721 0.240234
v -0.066650 0.438721 0.240234
v 0.521729 0.422119 0.288330
v 0.529053 0.415527 -0.296875
v 0.500000 0.728027 0.298340
v 0.501465 0.731690 -0.281250
v 0.495117 0.852051 0.307617
v 0.495361 0.852051 -0.282471
v 0.529053 0.415527 -0.296875
v 0.026123 0.415527 -0.306396
v 0.501465 0.731690 -0.281250
v 0.033691 0.731690 -0.291015
v 0.495361 0.852051 -0.282471
v 0.027100 0.852051 -0.302002
v -0.041992 0.036133 0.576660
v -0.041504 0.042725 -0.281738
v -0.057129 0.284180 0.578857
v -0.037598 0.442627 -0.264404
v -0.066650 0.438721 0.240234
v -0.521729 0.422119 0.288330
v -0.529053 0.415527 -0.296875
v -0.278809 0.422119 0.353272
v -0.026123 0.415527 -0.306396
v -0.041992 0.422119 0.297119
v 0.041992 0.036133 0.576660
v 0.041504 0.042725 -0.281738
v 0.284668 0.036133 0.657715
v 0.527344 0.042725 -0.281738
v 0.527344 0.036133 0.576660
v 0.527344 0.036133 0.576660
v 0.527344 0.042725 -0.281738
v 0.507812 0.284180 0.578857
v 0.501221 0.442627 -0.264404
v 0.490967 0.438721 0.240234
v 0.041992 0.422119 0.297119
v 0.026123 0.415527 -0.306396
v 0.278809 0.422119 0.353272
v 0.529053 0.415527 -0.296875
v 0.521729 0.422119 0.288330
v 0.521729 0.422119 0.288330
v 0.500000 0.728027 0.298340
v 0.278809 0.422119 0.353272
v 0.034912 0.728027 0.325440
v 0.041992 0.422119 0.297119
v -0.527344 0.042725 -0.281738
v -0.501221 0.442627 -0.264404
v -0.041504 0.042725 -0.281738
v -0.037598 0.442627 -0.264404
v -0.527344 0.036133 0.576660
v -0.507812 0.284180 0.578857
v -0.527344 0.042725 -0.281738
v -0.501221 0.442627 -0.264404
v -0.521729 0.422119 0.288330
v -0.497803 0.728027 0.298340
v -0.529053 0.415527 -0.296875
v -0.501465 0.731690 -0.281250
v -0.529053 0.415527 -0.296875
v -0.501465 0.731690 -0.281250
v -0.026123 0.415527 -0.306396
v -0.033691 0.731690 -0.291015
v -0.027100 0.852051 -0.302002
v -0.033691 0.731690 -0.291015
v -0.495361 0.852051 -0.282471
v -0.501465 0.731690 -0.281250
v -0.495361 0.852051 -0.282471
v -0.501465 0.731690 -0.281250
v -0.495117 0.852051 0.307617
v -0.497803 0.728027 0.298340
v 0.066650 0.438721 0.240234
v 0.282715 0.327148 0.622559
v 0.490967 0.438721 0.240234
v 0.507812 0.284180 0.578857
v -0.041992 0.036133 0.576660
v -0.284668 0.036133 0.657715
v -0.041504 0.042725 -0.281738
v -0.527344 0.042725 -0.281738
v -0.041992 0.036133 0.576660
v -0.057129 0.284180 0.578857
v -0.284668 0.036133 0.657715
v -0.282715 0.327148 0.622559
v 0.527344 0.042725 -0.281738
v 0.041504 0.042725 -0.281738
v 0.501221 0.442627 -0.264404
v 0.037598 0.442627 -0.264404
v 0.041992 0.036133 0.576660
v 0.057129 0.284180 0.578857
v 0.041504 0.042725 -0.281738
v 0.037598 0.442627 -0.264404
v 0.041992 0.422119 0.297119
v 0.034912 0.728027 0.325440
v 0.026123 0.415527 -0.306396
v 0.033691 0.731690 -0.291015
v 0.027100 0.852051 -0.302002
v 0.033691 0.731690 -0.291015
v 0.032227 0.852051 0.347412
v 0.034912 0.728027 0.325440
v 0.032227 0.852051 0.347412
v 0.034912 0.728027 0.325440
v 0.495117 0.852051 0.307617
v 0.500000 0.728027 0.298340
v -0.527344 0.042725 -0.281738
v -0.284668 0.036133 0.657715
v -0.527344 0.036133 0.576660
v -0.057129 0.284180 0.578857
v -0.066650 0.438721 0.240234
v -0.282715 0.327148 0.622559
v -0.041992 0.422119 0.297119
v -0.034668 0.728027 0.325440
v -0.278809 0.422119 0.353272
v -0.490967 0.438721 0.240234
v -0.501221 0.442627 -0.264404
v -0.507812 0.284180 0.578857
v 0.041992 0.036133 0.576660
v 0.284668 0.036133 0.657715
v 0.057129 0.284180 0.578857
v 0.066650 0.438721 0.240234
v 0.037598 0.442627 -0.264404
v 0.057129 0.284180 0.578857
vt 0.990234 -0.510742
vt 0.806641 -0.510742
vt 0.987305 -0.573242
vt 0.812500 -0.575195
vt 0.991211 -0.724609
vt 0.815430 -0.726562
vt 0.553711 -0.726562
vt 0.656250 -0.726562
vt 0.560547 -0.575195
vt 0.779297 -0.575195
vt 0.562500 -0.510742
vt 0.780273 -0.510742
vt 0.962891 -0.474609
vt 0.952148 -0.345703
vt 0.835938 -0.474609
vt 0.834961 -0.335938
vt 0.717773 -0.345703
vt 0.722656 -0.264648
vt 0.943359 -0.264648
vt 0.471680 -0.226562
vt 0.718750 -0.224609
vt 0.468750 -0.076172
vt 0.714844 -0.074219
vt 0.463867 -0.010742
vt 0.717773 -0.010742
vt 0.722656 -0.224609
vt 0.958984 -0.224609
vt 0.736328 -0.074219
vt 0.958984 -0.074219
vt 0.737305 -0.010742
vt 0.957031 -0.010742
vt 0.669922 -0.474609
vt 0.221680 -0.471680
vt 0.670898 -0.345703
vt 0.231445 -0.262695
vt 0.498047 -0.264648
vt 0.141602 -0.959961
vt 0.143555 -0.826172
vt 0.094727 -0.974609
vt 0.041992 -0.824219
vt 0.042969 -0.961914
vt 0.067383 -0.416016
vt 0.067383 -0.293945
vt 0.101562 -0.427734
vt 0.136719 -0.293945
vt 0.136719 -0.416016
vt 0.220703 -0.970703
vt 0.668945 -0.966797
vt 0.219727 -0.840820
vt 0.660156 -0.757812
vt 0.392578 -0.760742
vt 0.443359 -0.226562
vt 0.436523 -0.076172
vt 0.340820 -0.226562
vt 0.216797 -0.076172
vt 0.213867 -0.226562
vt 0.964844 -0.966797
vt 0.960938 -0.757812
vt 0.711914 -0.966797
vt 0.709961 -0.757812
vt 0.524414 -0.726562
vt 0.527344 -0.575195
vt 0.277344 -0.724609
vt 0.281250 -0.573242
vt 0.269531 -0.724609
vt 0.255859 -0.573242
vt 0.033203 -0.724609
vt 0.033203 -0.573242
vt 0.033203 -0.510742
vt 0.252930 -0.510742
vt 0.278320 -0.510742
vt 0.532227 -0.510742
vt 0.708984 -0.474609
vt 0.189453 -0.226562
vt 0.192383 -0.076172
vt 0.013672 -0.224609
vt 0.017578 -0.074219
vt 0.014648 -0.010742
vt 0.198242 -0.010742
vt 0.215820 -0.010742
vt 0.434570 -0.010742
vt 0.782227 -0.726562
vn 0.821900 -0.130800 -0.554400
vn 0.665800 -0.109400 0.738100
vn 0.699100 -0.023400 -0.714700
vn 0.605300 -0.044900 0.794700
vn 0.704700 0.035200 -0.708600
vn 0.775400 -0.076100 0.626900
vn -0.787200 0.041000 0.615300
vn -0.029300 0.009800 0.999500
vn -0.747800 0.052700 0.661900
vn -0.734400 -0.037100 0.677700
vn 0.665800 -0.109300 0.738100
vn 0.708700 -0.488000 0.509500
vn 0.814200 0.285100 0.505700
vn 0.000000 -0.583700 0.812000
vn 0.000000 0.701200 0.712900
vn -0.812200 0.269400 0.517400
vn -0.493900 0.818000 0.294800
vn -0.708700 -0.488000 0.509500
vn 0.000000 -0.583600 0.812000
vn -0.814200 0.285000 0.505700
vn -0.502300 0.816900 0.283400
vn 0.493900 0.818000 0.294800
vn 0.787300 0.037100 0.615400
vn 0.894400 0.093700 -0.437400
vn 0.748700 0.054800 0.660700
vn 0.713500 0.062600 -0.697900
vn 0.734500 -0.033200 0.677800
vn 0.630500 -0.042900 -0.775000
vn -0.704700 0.035100 -0.708600
vn -0.699100 -0.023500 -0.714700
vn -0.821900 -0.130800 -0.554400
vn 0.704700 -0.497800 0.505600
vn 0.590100 -0.551000 -0.590100
vn 0.812200 0.269500 0.517400
vn 0.902100 0.099600 -0.419800
vn -0.004000 -0.999900 0.011800
vn -0.002000 -0.999900 0.009800
vn -0.000000 -1.000000 0.009800
vn 0.001900 -1.000000 0.009800
vn 0.001900 -1.000000 0.009700
vn -0.704700 -0.497800 0.505600
vn -0.590100 -0.551000 -0.590100
vn 0.693000 -0.630500 -0.349500
vn 0.708600 -0.488100 0.509500
vn 0.708700 -0.488100 0.509500
vn 0.693000 -0.630600 -0.349400
vn 0.704800 0.109300 -0.700900
vn 0.502300 0.817000 0.283400
vn -0.001900 -1.000000 0.009700
vn -0.001900 -1.000000 0.009800
vn 0.002000 -1.000000 0.009800
vn 0.004000 -0.999900 0.011800
vn 0.748700 0.054700 0.660700
vn 0.029300 0.009800 0.999500
vn -0.605300 -0.044900 0.794700
vn -0.775400 -0.076200 0.626900
vn -0.693100 -0.630500 -0.349500
vn -0.704800 0.109400 -0.700900
vn 0.590000 -0.551000 -0.590100
vn -0.708700 -0.488100 0.509500
vn -0.814200 0.285100 0.505700
vn -0.693000 -0.630600 -0.349400
vn -0.704800 0.109300 -0.700900
vn -0.894900 0.095800 -0.435800
vn -0.714600 0.058500 -0.697100
vn -0.714600 0.058600 -0.697000
vn 0.704700 0.035000 -0.708600
vn 0.699100 -0.023500 -0.714700
vn -0.630500 -0.042900 -0.775000
vn -0.714600 0.058500 -0.697000
vn -0.734400 -0.037200 0.677700
vn -0.747800 0.052700 0.661800
vn 0.502300 0.816900 0.283400
vn 0.814300 0.285100 0.505700
vn 0.812200 0.269400 0.517400
vn -0.000000 0.701200 0.713000
vn 0.693100 -0.630500 -0.349500
vn -0.590000 -0.551000 -0.590100
vn 0.704800 0.109400 -0.700900
vn -0.902100 0.099600 -0.419800
vn -0.812200 0.269500 0.517400
vn -0.775300 -0.076100 0.626900
vn -0.699100 -0.023400 -0.714700
vn -0.665700 -0.111300 0.737900
vn -0.708600 -0.488100 0.509500
vn 0.775400 -0.076200 0.626900
vn -0.029400 0.009800 0.999500
vn -0.502300 0.817000 0.283400
usemtl Material55.010
s 1
f 1/1/1 2/2/2 3/3/3
f 2/2/2 4/4/4 3/3/3
f 3/3/3 4/4/4 5/5/5
f 4/4/4 6/6/6 5/5/5
f 7/7/7 8/8/8 9/9/9
f 8/8/8 10/10/4 9/9/9
f 9/9/9 10/10/4 11/11/10
f 10/10/4 12/12/11 11/11/10
f 13/13/12 14/14/13 15/15/14
f 14/14/13 16/16/15 15/15/14
f 15/15/14 16/16/15 17/17/16
f 16/16/15 18/18/17 17/17/16
f 19/13/18 20/15/19 21/14/20
f 20/15/19 22/16/15 21/14/20
f 21/14/20 22/16/15 23/19/21
f 22/16/15 24/18/22 23/19/21
f 25/20/23 26/21/24 27/22/25
f 26/21/24 28/23/26 27/22/25
f 27/22/25 28/23/26 29/24/27
f 28/23/26 30/25/28 29/24/27
f 31/26/24 32/27/29 33/28/26
f 32/27/29 34/29/30 33/28/26
f 33/28/26 34/29/30 35/30/28
f 34/29/30 36/31/31 35/30/28
f 37/32/32 38/33/33 39/34/34
f 38/33/33 40/35/35 39/34/34
f 39/34/34 40/35/35 41/36/22
f 42/37/36 43/38/37 44/39/38
f 43/38/37 45/40/39 44/39/38
f 44/39/38 45/40/39 46/41/40
f 47/42/41 48/43/42 49/44/19
f 48/43/42 50/45/43 49/44/19
f 49/44/19 50/45/43 51/46/44
f 52/47/45 53/48/46 54/49/13
f 53/48/46 55/50/47 54/49/13
f 54/49/13 55/50/47 56/51/48
f 57/41/49 58/40/50 59/39/38
f 58/40/50 60/38/51 59/39/38
f 59/39/38 60/38/51 61/37/52
f 62/52/23 63/53/53 64/54/54
f 63/53/53 65/55/55 64/54/54
f 64/54/54 65/55/55 66/56/56
f 67/57/57 68/58/58 69/59/59
f 68/58/58 70/60/35 69/59/59
f 71/47/60 72/49/61 73/48/62
f 72/49/61 74/50/63 73/48/62
f 75/61/7 76/62/9 77/63/64
f 76/62/9 78/64/65 77/63/64
f 79/65/64 80/66/66 81/67/67
f 80/66/66 82/68/3 81/67/67
f 83/69/1 84/68/68 85/70/69
f 84/68/68 86/66/66 85/70/69
f 87/71/69 88/64/70 89/72/71
f 88/64/70 90/62/72 89/72/71
f 91/18/17 92/16/15 93/19/73
f 92/16/15 94/14/74 93/19/73
f 95/42/32 96/44/19 97/43/33
f 96/44/19 98/45/62 97/43/33
f 99/73/32 100/17/75 101/15/14
f 100/17/75 102/16/76 101/15/14
f 103/57/77 104/59/78 105/58/79
f 104/59/78 106/60/80 105/58/79
f 107/32/41 108/34/81 109/33/42
f 108/34/81 110/35/80 109/33/42
f 111/74/82 112/75/55 113/76/29
f 112/75/55 114/77/83 113/76/29
f 115/78/31 116/77/83 117/79/84
f 116/77/83 118/75/55 117/79/84
f 119/80/84 120/55/55 121/81/27
f 120/55/55 122/53/53 121/81/27
f 123/45/62 124/44/19 125/46/85
f 126/17/75 127/18/22 128/16/15
f 129/82/86 130/10/4 131/8/87
f 132/51/88 133/50/63 134/49/61
f 135/73/41 136/15/19 137/17/81
f 138/36/17 139/35/80 140/34/16
o polygon1.021
v -0.912842 4.443889 -0.280495
v -0.835449 3.992229 -0.193581
v -0.842285 4.509074 0.106468
v -0.771240 4.056437 0.249290
v -0.702148 4.574503 0.429466
v -0.644287 4.083537 0.505394
v -0.351074 4.581339 0.536399
v 0.000000 4.099650 0.644310
v 0.000000 4.588419 0.643333
v 0.351074 4.581339 0.536399
v 0.000000 4.796671 0.375999
v 0.702148 4.574503 0.429466
v 0.690674 4.730266 0.094017
v 0.842285 4.509074 0.106468
v 0.854981 4.635050 -0.311745
v 0.912842 4.443889 -0.280495
v 0.825440 4.381877 -0.543679
v 0.835449 3.992229 -0.193581
v 0.714111 3.918987 -0.641335
v 0.820801 3.711467 0.037864
v 0.786133 3.434611 -0.219460
v 0.784912 3.651652 -0.268044
v 0.729981 3.344768 -0.540749
v 0.714844 3.610393 -0.582009
v 0.345459 3.265178 -0.757790
v 0.347168 3.589152 -0.813454
v -0.005127 3.568156 -0.859109
v -0.820801 3.711467 0.037864
v -0.784912 3.665812 -0.268044
v -0.786133 3.441691 -0.219460
v -0.714844 3.610393 -0.582009
v -0.729981 3.344768 -0.540749
v -0.347900 3.265178 -0.757790
v -0.698486 3.079387 -0.480691
v -0.343506 2.941203 -0.626932
v 0.698486 3.079387 -0.480691
v 0.343506 2.941203 -0.626932
v 0.345459 3.265178 -0.757790
v 0.000000 2.912883 -0.657938
v -0.002686 3.248088 -0.795876
v -0.347900 3.265178 -0.757790
v -0.005127 3.568156 -0.859109
v -0.352295 3.589152 -0.813454
v -0.307373 3.774699 0.651390
v 0.000000 3.773723 0.678001
v 0.000000 4.099650 0.644310
v 0.307373 3.774699 0.651390
v 0.644287 4.083537 0.505394
v 0.667236 3.764933 0.536399
v 0.796387 3.751018 0.327659
v -0.854981 4.635050 -0.311745
v -0.842285 4.509074 0.106468
v -0.690674 4.730266 0.094017
v -0.702148 4.574503 0.429466
v 0.000000 4.796671 0.375999
v -0.351074 4.581339 0.536399
v 0.000000 4.588419 0.643333
v -0.714111 3.918987 -0.641335
v -0.368897 4.265666 -0.916726
v 0.000000 3.860637 -0.885476
v 0.000000 4.211467 -1.026833
v 0.368897 4.265666 -0.916726
v -0.002441 4.413859 -0.998757
v 0.678955 4.521525 -0.812233
v 0.854981 4.635050 -0.311745
v 0.825440 4.381877 -0.543679
v 0.678955 4.521525 -0.812233
v 0.738037 4.319622 -0.806618
v 0.368897 4.265666 -0.916726
v 0.714111 3.918987 -0.641335
v 0.000000 3.860637 -0.885476
v -0.761231 3.235148 -0.170632
v -0.570312 3.096477 -0.152566
v -0.786133 3.441691 -0.219460
v -0.576660 3.437297 -0.203103
v -0.820801 3.711467 0.037864
v -0.563965 3.705363 0.037132
v -0.307373 3.774699 0.651390
v -0.796387 3.751018 0.327659
v 0.000000 3.773723 0.678001
v 0.796387 3.751018 0.327659
v 0.307373 3.774699 0.651390
v 0.667236 3.764933 0.536399
v -0.714844 3.610393 -0.582009
v -0.714111 3.918987 -0.641335
v -0.352295 3.589152 -0.813454
v 0.000000 3.860637 -0.885476
v -0.005127 3.568156 -0.859109
v 0.347168 3.589152 -0.813454
v 0.000000 2.863322 -0.152567
v -0.570312 3.096477 -0.152566
v -0.698486 3.079387 -0.480691
v -0.761231 3.235148 -0.170632
v -0.729981 3.344768 -0.540749
v -0.786133 3.441691 -0.219460
v 0.761231 3.235148 -0.170632
v 0.570312 3.096477 -0.152566
v 0.698486 3.079387 -0.480691
v 0.000000 2.863322 -0.152567
v 0.343506 2.941203 -0.626932
v 0.000000 2.912883 -0.657938
v 0.784912 3.651652 -0.268044
v 0.835449 3.992229 -0.193581
v 0.820801 3.711467 0.037864
v 0.771240 4.056437 0.249290
v 0.796387 3.751018 0.327659
v 0.644287 4.083537 0.505394
v -0.667236 3.764933 0.536399
v -0.644287 4.083537 0.505394
v -0.796387 3.751018 0.327659
v -0.771240 4.056437 0.249290
v -0.820801 3.711467 0.037864
v -0.690674 4.730266 0.094017
v 0.000000 4.796671 0.375999
v 0.000000 4.739298 -0.366188
v 0.690674 4.730266 0.094017
v 0.854981 4.635050 -0.311745
v -0.835449 3.992229 -0.193581
v -0.912842 4.443889 -0.280495
v -0.825440 4.381877 -0.543679
v -0.854981 4.635050 -0.311745
v -0.658447 4.521525 -0.812233
v 0.784912 3.651652 -0.268044
v 0.714844 3.610393 -0.582009
v 0.714111 3.918987 -0.641335
v 0.347168 3.589152 -0.813454
v 0.000000 3.860637 -0.885476
v 0.771240 4.056437 0.249290
v 0.842285 4.509074 0.106468
v 0.644287 4.083537 0.505394
v 0.702148 4.574503 0.429466
v 0.351074 4.581339 0.536399
v -0.658447 4.521525 -0.812233
v -0.738037 4.319622 -0.806618
v -0.825440 4.381877 -0.543679
v -0.714111 3.918987 -0.641335
v -0.835449 3.992229 -0.193581
v 0.786133 3.434611 -0.219460
v 0.761231 3.235148 -0.170632
v 0.729981 3.344768 -0.540749
v 0.698486 3.079387 -0.480691
v 0.345459 3.265178 -0.757790
v -0.774902 3.338420 0.191428
v -0.820801 3.711467 0.037864
v -0.572998 3.332316 0.196067
v -0.563965 3.705363 0.037132
v -0.714844 3.610393 -0.582009
v -0.784912 3.665812 -0.268044
v -0.714111 3.918987 -0.641335
v -0.835449 3.992229 -0.193581
v 0.774902 3.338420 0.191428
v 0.586914 3.332316 0.196067
v 0.820801 3.711467 0.037864
v 0.623779 3.705363 0.037132
v 0.755615 3.355998 0.335471
v 0.774902 3.338420 0.191428
v 0.796387 3.751018 0.327659
v 0.820801 3.711467 0.037864
v 0.623779 3.705363 0.037132
v 0.576660 3.437297 -0.203103
v 0.820801 3.711467 0.037864
v 0.786133 3.434611 -0.219460
v 0.761231 3.235148 -0.170632
v 0.786133 3.434611 -0.219460
v 0.570312 3.096477 -0.152566
v 0.576660 3.437297 -0.203103
v -0.820801 3.711467 0.037864
v -0.774902 3.338420 0.191428
v -0.796387 3.751018 0.327659
v -0.755615 3.355998 0.335471
v -0.784912 3.665812 -0.268044
v -0.820801 3.711467 0.037864
v -0.835449 3.992229 -0.193581
v -0.771240 4.056437 0.249290
v -0.667236 3.764933 0.536399
v -0.307373 3.774699 0.651390
v -0.644287 4.083537 0.505394
v 0.000000 4.099650 0.644310
v -0.690674 4.730266 0.094017
v 0.000000 4.739298 -0.366188
v -0.854981 4.635050 -0.311745
v -0.658447 4.521525 -0.812233
v -0.658447 4.521525 -0.812233
v 0.000000 4.739298 -0.366188
v -0.002441 4.413859 -0.998757
v 0.678955 4.521525 -0.812233
v -0.698486 3.079387 -0.480691
v -0.343506 2.941203 -0.626932
v 0.000000 2.863322 -0.152567
v 0.000000 2.912883 -0.657938
v -0.002441 4.413859 -0.998757
v -0.368897 4.265666 -0.916726
v -0.658447 4.521525 -0.812233
v -0.738037 4.319622 -0.806618
v 0.771240 4.056437 0.249290
v 0.835449 3.992229 -0.193581
v 0.842285 4.509074 0.106468
v 0.912842 4.443889 -0.280495
v -0.755615 3.355998 0.335471
v -0.572998 3.332316 0.196067
v -0.573486 3.787395 0.347190
v -0.573486 3.787395 0.347190
v -0.796387 3.751018 0.327659
v -0.755615 3.355998 0.335471
v -0.667236 3.764933 0.536399
v -0.796387 3.751018 0.327659
v -0.307373 3.774699 0.651390
v 0.755615 3.355998 0.335471
v 0.586914 3.332316 0.196067
v 0.774902 3.338420 0.191428
v 0.573486 3.787395 0.347190
v 0.586914 3.332316 0.196067
v 0.755615 3.355998 0.335471
v 0.573486 3.787395 0.347190
v 0.755615 3.355998 0.335471
v 0.796387 3.751018 0.327659
v -0.774902 3.338420 0.191428
v -0.572998 3.332316 0.196067
v -0.755615 3.355998 0.335471
v 0.854981 4.635050 -0.311745
v 0.678955 4.521525 -0.812233
v 0.000000 4.739298 -0.366188
v 0.835449 3.992229 -0.193581
v 0.784912 3.651652 -0.268044
v 0.714111 3.918987 -0.641335
v -0.738037 4.319622 -0.806618
v -0.368897 4.265666 -0.916726
v -0.714111 3.918987 -0.641335
v 0.000000 4.099650 0.644310
v 0.644287 4.083537 0.505394
v 0.351074 4.581339 0.536399
v -0.912842 4.443889 -0.280495
v -0.842285 4.509074 0.106468
v -0.854981 4.635050 -0.311745
v -0.352295 3.589152 -0.813454
v -0.347900 3.265178 -0.757790
v -0.714844 3.610393 -0.582009
v -0.343506 2.941203 -0.626932
v -0.347900 3.265178 -0.757790
v 0.000000 2.912883 -0.657938
v 0.000000 4.211467 -1.026833
v -0.368897 4.265666 -0.916726
v -0.002441 4.413859 -0.998757
v -0.005127 3.568156 -0.859109
v 0.345459 3.265178 -0.757790
v -0.002686 3.248088 -0.795876
v 0.738037 4.319622 -0.806618
v 0.825440 4.381877 -0.543679
v 0.714111 3.918987 -0.641335
vt 0.046875 -0.447266
vt 0.046875 -0.688477
vt 0.110352 -0.441406
vt 0.109375 -0.688477
vt 0.173828 -0.436523
vt 0.171875 -0.688477
vt 0.236328 -0.413086
vt 0.297852 -0.688477
vt 0.297852 -0.390625
vt 0.369141 -0.418945
vt 0.297852 -0.309570
vt 0.439453 -0.447266
vt 0.439453 -0.309570
vt 0.508789 -0.447266
vt 0.578125 -0.309570
vt 0.578125 -0.447266
vt 0.651367 -0.447266
vt 0.578125 -0.688477
vt 0.723633 -0.688477
vt 0.073242 -0.010742
vt 0.115234 -0.073242
vt 0.114258 -0.010742
vt 0.159180 -0.085938
vt 0.155273 -0.010742
vt 0.189453 -0.100586
vt 0.185547 -0.010742
vt 0.191406 -0.010742
vt 0.113281 -0.010742
vt 0.115234 -0.071289
vt 0.160156 -0.157227
vt 0.183594 -0.188477
vt 0.188477 -0.194336
vt 0.194336 -0.103516
vt 0.250000 -0.948242
vt 0.333008 -0.948242
vt 0.333008 -0.726562
vt 0.418945 -0.948242
vt 0.450195 -0.726562
vt 0.489258 -0.948242
vt 0.515625 -0.948242
vt 0.046875 -0.309570
vt 0.171875 -0.309570
vt 0.992188 -0.688477
vt 0.921875 -0.447266
vt 0.852539 -0.688477
vt 0.852539 -0.447266
vt 0.788086 -0.447266
vt 0.852539 -0.309570
vt 0.723633 -0.309570
vt 0.723633 -0.447266
vt 0.115234 -0.125977
vt 0.118164 -0.162109
vt 0.113281 -0.072266
vt 0.275391 -0.112305
vt 0.283203 -0.116211
vt 0.271484 -0.112305
vt 0.282227 -0.116211
vt 0.938477 -0.948242
vt 0.938477 -0.726562
vt 0.860352 -0.948242
vt 0.779297 -0.726562
vt 0.783203 -0.948242
vt 0.727539 -0.948242
vt 0.125977 -0.222656
vt 0.614258 -0.948242
vt 0.561523 -0.726562
vt 0.541992 -0.948242
vt 0.505859 -0.726562
vt 0.178711 -0.948242
vt 0.225586 -0.726562
vt 0.360352 -0.948242
vt 0.393555 -0.726562
vt 0.597656 -0.056641
vt 0.762695 -0.029297
vt 0.762695 -0.103516
vt 0.927734 -0.056641
vt 0.960938 -0.107422
vt 0.670898 -0.948242
vt 0.664062 -0.726562
vt 0.508789 -0.688477
vt 0.439453 -0.688477
vt 0.066406 -0.110352
vt 0.065430 -0.112305
vt 0.046875 -0.110352
vt 0.035156 -0.010742
vt 0.563477 -0.107422
vt 0.607422 -0.172852
vt 0.761719 -0.219727
vt 0.921875 -0.172852
vt 0.992188 -0.309570
vt 0.992188 -0.447266
vt 0.031250 -0.010742
vt 0.339844 -0.126953
vt 0.347656 -0.125977
vt 0.355469 -0.121094
vn -0.995800 0.048800 -0.078100
vn -0.992000 -0.115200 -0.050800
vn -0.951300 0.207100 0.228500
vn -0.960300 0.031200 0.277200
vn -0.662200 0.449300 0.599700
vn -0.570400 0.119200 0.812700
vn -0.259600 0.374800 0.890000
vn 0.000000 0.099700 0.995000
vn 0.000000 0.445700 0.895200
vn 0.259600 0.374700 0.890000
vn -0.000000 0.912800 0.408500
vn 0.578600 0.539400 0.611800
vn 0.453000 0.882400 0.126900
vn 0.949200 0.171900 0.263600
vn 0.751600 0.638400 -0.166000
vn 0.995700 0.048800 -0.078100
vn 0.948400 0.023400 -0.316100
vn 0.992400 -0.113300 -0.048900
vn 0.754300 -0.173900 -0.633100
vn 0.993400 -0.019500 -0.113400
vn 0.988500 -0.068400 -0.134800
vn 0.986100 -0.009800 -0.166000
vn 0.898500 -0.121100 -0.421900
vn 0.723000 -0.082100 -0.685900
vn 0.322000 -0.249800 -0.913200
vn 0.341800 -0.162100 -0.925700
vn 0.000000 -0.181800 -0.983300
vn -0.993400 -0.019600 -0.113000
vn -0.986300 -0.029300 -0.162100
vn -0.986400 -0.044900 -0.158200
vn -0.820800 -0.072300 -0.566700
vn -0.874800 -0.136700 -0.464700
vn -0.324300 -0.250100 -0.912300
vn -0.674400 -0.694000 -0.252200
vn -0.294900 -0.361300 -0.884600
vn 0.674100 -0.693600 -0.254000
vn 0.295100 -0.359600 -0.885200
vn -0.000000 -0.378800 -0.925500
vn 0.000000 -0.289100 -0.957300
vn -0.345700 -0.164100 -0.923900
vn -0.201100 0.146500 0.968600
vn 0.000000 0.101600 0.994800
vn 0.201100 0.146500 0.968600
vn 0.627300 0.103600 0.771900
vn 0.615100 0.121100 0.779100
vn 0.929600 0.132800 0.343700
vn -0.744400 0.644700 -0.173900
vn -0.453000 0.882400 0.126900
vn -0.000000 0.445600 0.895200
vn -0.754300 -0.173900 -0.633100
vn -0.301000 -0.134800 -0.944000
vn 0.000000 -0.177700 -0.984100
vn -0.000000 -0.121200 -0.992600
vn 0.300800 -0.140600 -0.943300
vn -0.001900 0.426000 -0.904700
vn 0.504100 0.511900 -0.695600
vn 0.701600 -0.068400 -0.709300
vn 0.081900 0.238200 0.967800
vn 0.003900 0.193500 0.981100
vn -0.023500 -0.115400 0.993000
vn -0.056600 -0.443400 0.894500
vn -0.041000 -0.679700 0.732400
vn -0.013700 -0.667000 0.745000
vn -0.001900 -0.997100 0.076100
vn -0.002100 -0.997400 0.072200
vn -0.000000 -0.996800 0.080100
vn 0.001900 -0.997400 0.072200
vn 0.002000 -0.997100 0.076100
vn -0.005800 -0.997900 0.064400
vn -0.820100 -0.105500 -0.562400
vn -0.335900 -0.031300 -0.941400
vn -0.000000 -0.089800 -0.996000
vn 0.332400 -0.035200 -0.942500
vn -0.000000 -0.998000 0.062500
vn -0.482000 -0.844900 0.232200
vn -0.923100 -0.384400 0.005800
vn 0.922200 -0.386800 0.003900
vn 0.482000 -0.844900 0.232200
vn 0.213000 -0.977000 -0.005900
vn 0.000000 -0.995200 -0.097600
vn 0.979400 -0.084100 -0.183800
vn 0.992400 -0.113300 -0.048800
vn 0.999200 0.011700 0.039100
vn 0.967000 0.048800 0.250000
vn -0.615100 0.121100 0.779100
vn -0.570400 0.119100 0.812700
vn -0.929600 0.132800 0.343700
vn -0.999300 0.009800 0.037100
vn -0.453000 0.882500 0.126900
vn -0.000000 0.968800 -0.248000
vn 0.453000 0.882500 0.126900
vn 0.751600 0.638400 -0.165900
vn -0.945000 0.042900 -0.324100
vn -0.484500 0.533300 -0.693500
vn 0.979400 -0.084000 -0.183800
vn 0.817500 -0.107300 -0.565800
vn 0.259600 0.374700 0.890100
vn -0.484400 0.533300 -0.693500
vn -0.696700 -0.039100 -0.716300
vn -0.945000 0.043000 -0.324100
vn -0.992000 -0.115200 -0.050700
vn 0.321900 -0.249800 -0.913200
vn 0.009800 -0.378800 -0.925400
vn -0.002000 -0.386800 -0.922100
vn -0.002000 -0.386800 -0.922200
vn -0.011700 -0.391000 -0.920300
vn -0.820100 -0.105400 -0.562400
vn -0.978700 -0.087900 -0.185600
vn -0.009900 -0.378900 -0.925400
vn 0.003900 -0.386800 -0.922200
vn 0.003900 -0.386800 -0.922100
vn 0.015600 -0.392400 -0.919700
vn 0.984700 -0.097700 0.144600
vn 0.988800 -0.089900 0.119200
vn 0.992000 -0.082000 0.095700
vn 0.017600 -0.667900 0.744000
vn 0.052800 -0.439600 0.896700
vn 0.033200 -0.675800 0.736400
vn 0.013700 -0.107400 0.994100
vn -0.087900 0.246200 0.965200
vn -0.003900 0.197300 0.980300
vn 0.052800 -0.439500 0.896700
vn -0.992000 -0.082000 0.095700
vn -0.988800 -0.089900 0.119200
vn -0.984700 -0.097700 0.144600
vn -0.999300 0.009700 0.037100
vn -0.615100 0.121000 0.779100
vn -0.000000 0.968700 -0.248100
vn -0.213000 -0.977000 -0.005900
vn -0.002000 0.426000 -0.904700
vn -0.301000 -0.134900 -0.944000
vn -0.696700 -0.039000 -0.716300
vn 0.967000 0.048800 0.250100
vn 0.949200 0.171900 0.263700
vn 0.995800 0.048800 -0.078100
vn 0.564700 -0.260100 0.783200
vn -0.088000 0.009800 0.996100
vn 0.005800 -0.997900 0.064400
vn -0.002000 -0.997400 0.072200
vn 0.035100 -0.991600 0.124900
vn -0.590500 -0.270000 0.760500
vn 0.088000 0.009800 0.996100
vn -0.033200 -0.991600 0.124900
vn 0.504100 0.511900 -0.695500
vn 0.979400 -0.084100 -0.183700
vn -0.696800 -0.039000 -0.716200
vn 0.627300 0.103500 0.771900
vn 0.259600 0.374800 0.890000
vn -0.995700 0.048800 -0.078100
vn -0.951300 0.207000 0.228500
vn 0.948400 0.023400 -0.316200
usemtl Material.004
s 1
f 141/83/89 142/84/90 143/85/91
f 142/84/90 144/86/92 143/85/91
f 143/85/91 144/86/92 145/87/93
f 144/86/92 146/88/94 145/87/93
f 145/87/93 146/88/94 147/89/95
f 146/88/94 148/90/96 147/89/95
f 147/89/95 148/90/96 149/91/97
f 148/90/96 150/92/98 149/91/97
f 149/91/97 150/92/98 151/93/99
f 150/92/98 152/94/100 151/93/99
f 151/93/99 152/94/100 153/95/101
f 152/94/100 154/96/102 153/95/101
f 153/95/101 154/96/102 155/97/103
f 154/96/102 156/98/104 155/97/103
f 155/97/103 156/98/104 157/99/105
f 156/98/104 158/100/106 157/99/105
f 157/99/105 158/100/106 159/101/107
f 160/102/108 161/103/109 162/104/110
f 161/103/109 163/105/111 162/104/110
f 162/104/110 163/105/111 164/106/112
f 163/105/111 165/107/113 164/106/112
f 164/106/112 165/107/113 166/108/114
f 165/107/113 167/109/115 166/108/114
f 168/102/116 169/110/117 170/111/118
f 169/110/117 171/106/119 170/111/118
f 170/111/118 171/106/119 172/105/120
f 171/106/119 173/107/121 172/105/120
f 172/105/120 173/107/121 174/112/122
f 173/107/121 175/113/123 174/112/122
f 176/112/124 177/113/125 178/107/113
f 177/113/125 179/114/126 178/107/113
f 178/107/113 179/114/126 180/115/127
f 179/114/126 181/107/121 180/115/127
f 180/115/127 181/107/121 182/109/115
f 181/107/121 183/108/128 182/109/115
f 184/116/129 185/117/130 186/118/96
f 185/117/130 187/119/131 186/118/96
f 186/118/96 187/119/131 188/120/132
f 187/119/131 189/121/133 188/120/132
f 188/120/132 189/121/133 190/122/134
f 191/123/135 192/85/91 193/124/136
f 192/85/91 194/87/93 193/124/136
f 193/124/136 194/87/93 195/93/99
f 194/87/93 196/89/95 195/93/99
f 195/93/99 196/89/95 197/91/137
f 198/125/138 199/126/139 200/127/140
f 199/126/139 201/128/141 200/127/140
f 200/127/140 201/128/141 202/129/142
f 201/128/141 203/130/143 202/129/142
f 202/129/142 203/130/143 204/131/144
f 205/97/103 206/99/105 207/131/144
f 206/99/105 208/132/145 207/131/144
f 207/131/144 208/132/145 209/129/142
f 208/132/145 210/101/107 209/129/142
f 209/129/142 210/101/107 211/127/140
f 212/133/146 213/134/147 214/111/148
f 213/134/147 215/135/149 214/111/148
f 214/111/148 215/135/149 216/102/150
f 215/135/149 217/102/151 216/102/150
f 218/136/152 219/137/153 220/138/154
f 219/137/153 221/137/155 220/138/154
f 220/138/154 221/137/155 222/136/156
f 221/137/155 223/139/157 222/136/156
f 224/140/158 225/141/138 226/142/159
f 225/141/138 227/143/140 226/142/159
f 226/142/159 227/143/140 228/144/160
f 227/143/140 229/145/161 228/144/160
f 230/146/162 231/134/163 232/112/122
f 231/134/163 233/133/164 232/112/122
f 232/112/122 233/133/164 234/105/120
f 233/133/164 235/111/118 234/105/120
f 236/133/165 237/134/166 238/112/124
f 237/134/166 239/146/162 238/112/124
f 238/112/124 239/146/162 240/113/167
f 239/146/162 241/114/168 240/113/167
f 242/147/169 243/148/170 244/149/171
f 243/148/170 245/150/172 244/149/171
f 244/149/171 245/150/172 246/122/134
f 245/150/172 247/120/132 246/122/134
f 248/151/173 249/152/174 250/153/175
f 249/152/174 251/154/92 250/153/175
f 250/153/175 251/154/92 252/149/176
f 253/155/177 254/156/99 255/157/178
f 254/156/99 256/158/179 255/157/178
f 255/157/178 256/158/179 257/159/180
f 258/100/90 259/98/89 260/99/181
f 259/98/89 261/97/135 260/99/181
f 260/99/181 261/97/135 262/131/182
f 263/147/183 264/160/184 265/161/107
f 264/160/184 266/145/161 265/161/107
f 265/161/107 266/145/161 267/143/140
f 268/162/172 269/96/102 270/163/132
f 269/96/102 271/94/100 270/163/132
f 270/163/132 271/94/100 272/92/185
f 273/131/186 274/132/187 275/99/188
f 274/132/187 276/101/138 275/99/188
f 275/99/188 276/101/138 277/100/189
f 278/103/109 279/133/165 280/105/111
f 279/133/165 281/112/124 280/105/111
f 280/105/111 281/112/124 282/107/190
f 283/164/191 284/102/192 285/165/193
f 284/102/192 286/102/194 285/165/193
f 287/160/195 288/147/196 289/161/138
f 288/147/196 290/148/90 289/161/138
f 291/164/197 292/165/198 293/102/199
f 292/165/198 294/102/200 293/102/199
f 295/166/201 296/164/202 297/167/202
f 296/164/202 298/102/203 297/167/202
f 299/102/204 300/135/205 301/102/206
f 300/135/205 302/103/207 301/102/206
f 303/133/208 304/103/207 305/134/209
f 304/103/207 306/135/210 305/134/209
f 307/102/211 308/164/212 309/167/212
f 308/164/212 310/166/213 309/167/212
f 311/147/196 312/149/214 313/148/90
f 312/149/214 314/154/92 313/148/90
f 315/151/215 316/116/129 317/152/94
f 316/116/129 318/118/96 317/152/94
f 319/155/177 320/157/216 321/168/135
f 320/157/216 322/169/182 321/168/135
f 323/169/182 324/157/178 325/170/143
f 324/157/178 326/171/144 325/170/143
f 327/112/122 328/113/217 329/146/162
f 328/113/217 330/114/168 329/146/162
f 331/130/218 332/126/219 333/172/186
f 332/126/219 334/173/220 333/172/186
f 335/162/221 336/100/106 337/96/222
f 336/100/106 338/98/223 337/96/222
f 339/166/224 340/165/224 341/174/224
f 342/174/225 343/167/225 344/166/225
f 345/175/226 346/176/227 347/177/152
f 348/166/228 349/165/228 350/164/228
f 351/174/229 352/165/229 353/166/229
f 354/174/230 355/166/230 356/167/230
f 357/164/231 358/165/231 359/166/231
f 360/159/180 361/171/232 362/157/178
f 363/148/106 364/147/233 365/161/107
f 366/173/234 367/126/219 368/125/138
f 369/90/96 370/163/235 371/92/236
f 372/83/237 373/85/238 374/123/135
f 375/108/128 376/107/121 377/106/119
f 378/113/123 379/107/121 380/114/126
f 381/128/141 382/126/219 383/130/143
f 384/109/115 385/107/113 386/115/127
f 387/132/145 388/99/239 389/101/107
o polygon0.021
v -0.214111 2.471436 -0.122070
v -0.339600 2.405029 -0.124023
v -0.342041 2.666260 -0.107666
v -0.450684 2.620361 -0.134277
v -0.342041 2.666260 0.106202
v -0.450684 2.620361 0.114991
v -0.339600 2.423584 0.101807
v -0.775635 2.452393 0.120118
v -0.701904 2.272217 0.120118
v -0.823242 2.222168 0.123047
v -0.759766 2.248291 -0.121093
v -0.872070 2.200684 -0.130127
v 0.214111 2.471436 -0.122070
v 0.342041 2.666260 -0.107666
v 0.339600 2.405029 -0.124023
v 0.450684 2.620361 -0.134277
v 0.716797 2.484619 -0.133545
v 0.775635 2.452393 0.120118
v 0.834229 2.416016 -0.143554
v 0.893555 2.383057 0.120850
v 0.940918 2.357178 -0.149658
v 1.170410 2.227295 0.141114
v 1.170410 2.227295 -0.147705
v -1.115967 2.089844 -0.145263
v -0.872070 2.200684 -0.130127
v -1.115967 2.089844 0.147217
v -0.823242 2.222168 0.123047
v -0.893555 2.383057 0.120850
v -0.775635 2.452393 0.120118
v -0.834229 2.416016 -0.143554
v -0.716797 2.484619 -0.133545
v -0.759766 2.248291 -0.121093
v -0.645264 2.293213 -0.111816
v -1.441406 1.943848 -0.099121
v -1.115967 2.089844 -0.145263
v -1.441406 1.943848 0.119873
v -1.115967 2.089844 0.147217
v -1.364014 2.193604 0.165772
v -1.170410 2.227295 0.141114
v -1.364014 2.193604 -0.151367
v -1.170410 2.227295 -0.147705
v -1.115967 2.089844 -0.145263
v -1.115967 2.089844 -0.145263
v -1.441406 1.943848 -0.099121
v -1.364014 2.193604 -0.151367
v -1.511719 2.032227 -0.094482
v -1.364014 2.193604 0.165772
v -1.511719 2.032227 0.124024
v -1.441406 1.943848 0.119873
v -1.441406 1.943848 -0.099121
v 1.115967 2.089844 -0.145263
v 1.115967 2.089844 0.147217
v 0.871826 2.200684 -0.130127
v 0.823242 2.222168 0.123047
v 0.759766 2.248291 -0.121093
v 0.701904 2.272217 0.120118
v 0.645264 2.293213 -0.111816
v 0.339600 2.405029 -0.124023
v -0.759766 2.248291 -0.121093
v -0.872070 2.200684 -0.130127
v -0.834229 2.416016 -0.143554
v -0.940918 2.357178 -0.149658
v -0.893555 2.383057 0.120850
v -1.170410 2.227295 0.141114
v -1.115967 2.089844 0.147217
v -0.339600 2.423584 0.101807
v -0.339600 2.405029 -0.124023
v -0.214355 2.473145 0.101319
v -0.214111 2.471436 -0.122070
v -0.197021 2.585693 0.001954
v -0.342041 2.666260 -0.107666
v -0.342041 2.666260 0.106202
v 1.115967 2.089844 -0.145263
v 1.170410 2.227295 -0.147705
v 1.364014 2.193604 -0.151367
v 1.170410 2.227295 0.141114
v 1.364014 2.193604 0.165772
v 1.115967 2.089844 0.147217
v 1.441406 1.943848 0.119873
v 1.115967 2.089844 -0.145263
v 1.364014 2.193604 -0.151367
v 1.441406 1.943848 -0.099121
v 1.511719 2.032227 -0.094482
v 1.511719 2.032227 0.124024
v 1.364014 2.193604 0.165772
v 1.441406 1.943848 0.119873
v 0.129150 2.974609 0.116700
v 0.144775 2.708984 0.119873
v 0.129150 2.974609 -0.093017
v 0.143555 2.710205 -0.106445
v -0.129150 2.974609 -0.093017
v -0.143555 2.710205 -0.106445
v 0.214355 2.473145 0.101319
v 0.339600 2.423584 0.101807
v 0.342041 2.666260 0.106202
v 0.450684 2.620361 0.114991
v 0.450684 2.620361 -0.134277
v 0.775635 2.452393 0.120118
v 0.759766 2.248291 -0.121093
v 0.834229 2.416016 -0.143554
v 0.871826 2.200684 -0.130127
v 0.940918 2.357178 -0.149658
v 1.115967 2.089844 -0.145263
v 1.170410 2.227295 -0.147705
v 0.339600 2.405029 -0.124023
v 0.428223 1.684814 -0.262695
v 0.000000 2.408203 -0.222900
v 0.000000 1.685303 -0.302734
v -0.428223 1.684814 -0.262695
v 0.311035 2.676514 -0.120361
v 0.143555 2.710205 -0.106445
v 0.311035 2.676514 0.118897
v 0.144775 2.708984 0.119873
v 0.000000 2.408203 0.247803
v -0.311035 2.676514 -0.120361
v -0.143555 2.710205 -0.106445
v 0.000000 2.408203 -0.222900
v 0.143555 2.710205 -0.106445
v 0.311035 2.676514 -0.120361
v -0.339600 2.408203 0.129639
v -0.433105 1.681152 0.287110
v 0.000000 2.408203 0.247803
v 0.000000 1.680664 0.350098
v 0.433105 1.681152 0.287110
v -0.872070 2.200684 -0.130127
v -1.115967 2.089844 -0.145263
v -0.940918 2.357178 -0.149658
v -1.170410 2.227295 -0.147705
v -1.170410 2.227295 0.141114
v 0.339600 2.405029 -0.124023
v 0.701904 2.272217 0.120118
v 0.339600 2.423584 0.101807
v 0.775635 2.452393 0.120118
v 0.450684 2.620361 0.114991
v 0.342041 2.666260 -0.107666
v 0.214111 2.471436 -0.122070
v 0.197021 2.584961 -0.001709
v 0.214355 2.473145 0.101319
v 0.342041 2.666260 0.106202
v -0.645264 2.293213 -0.111816
v -0.716797 2.484619 -0.133545
v -0.339600 2.405029 -0.124023
v -0.450684 2.620361 -0.134277
v -0.450684 2.620361 0.114991
v -0.450684 2.620361 -0.134277
v -0.775635 2.452393 0.120118
v -0.716797 2.484619 -0.133545
v -0.129150 2.974609 0.116700
v -0.129150 2.974609 -0.093017
v -0.144775 2.708984 0.119873
v -0.143555 2.710205 -0.106445
v -0.339600 2.408203 0.129639
v -0.311035 2.676514 0.118897
v -0.339600 2.405029 -0.124023
v -0.311035 2.676514 -0.120361
v 0.000000 2.408203 0.247803
v 0.144775 2.708984 0.119873
v -0.144775 2.708984 0.119873
v -0.129150 2.974609 0.116700
v 0.339600 2.423584 0.101807
v 0.214355 2.473145 0.101319
v 0.339600 2.405029 -0.124023
v 0.214111 2.471436 -0.122070
v 0.339600 2.408203 0.129639
v 0.339600 2.405029 -0.124023
v 0.311035 2.676514 0.118897
v 0.311035 2.676514 -0.120361
v -0.311035 2.676514 -0.120361
v -0.311035 2.676514 0.118897
v -0.143555 2.710205 -0.106445
v -0.144775 2.708984 0.119873
v -0.339600 2.408203 0.129639
v 0.000000 2.408203 0.247803
v -0.311035 2.676514 0.118897
v -0.144775 2.708984 0.119873
v -0.428223 1.684814 -0.262695
v -0.433105 1.681152 0.287110
v -0.339600 2.405029 -0.124023
v -0.339600 2.408203 0.129639
v 0.339600 2.408203 0.129639
v 0.433105 1.681152 0.287110
v 0.339600 2.405029 -0.124023
v 0.428223 1.684814 -0.262695
v -0.311035 2.676514 -0.120361
v 0.000000 2.408203 -0.222900
v -0.339600 2.405029 -0.124023
v -0.428223 1.684814 -0.262695
v 0.339600 2.405029 -0.124023
v 0.716797 2.484619 -0.133545
v 0.645264 2.293213 -0.111816
v 0.759766 2.248291 -0.121093
v 0.701904 2.272217 0.120118
v 0.823242 2.222168 0.123047
v 0.775635 2.452393 0.120118
v 0.893555 2.383057 0.120850
v 1.441406 1.943848 -0.099121
v 1.441406 1.943848 0.119873
v 1.115967 2.089844 -0.145263
v 1.115967 2.089844 0.147217
v 0.311035 2.676514 0.118897
v 0.000000 2.408203 0.247803
v 0.339600 2.408203 0.129639
v 0.433105 1.681152 0.287110
v -0.339600 2.423584 0.101807
v -0.701904 2.272217 0.120118
v -0.339600 2.405029 -0.124023
v -0.645264 2.293213 -0.111816
v 1.170410 2.227295 0.141114
v 0.893555 2.383057 0.120850
v 1.115967 2.089844 0.147217
v 0.823242 2.222168 0.123047
v 1.364014 2.193604 -0.151367
v 1.364014 2.193604 0.165772
v 1.511719 2.032227 -0.094482
v 0.834229 2.416016 -0.143554
v 0.759766 2.248291 -0.121093
v 0.716797 2.484619 -0.133545
v -1.441406 1.943848 -0.099121
v -1.511719 2.032227 0.124024
v -1.511719 2.032227 -0.094482
v 0.342041 2.666260 -0.107666
v 0.342041 2.666260 0.106202
v 0.450684 2.620361 -0.134277
v 1.441406 1.943848 0.119873
v 1.441406 1.943848 -0.099121
v 1.511719 2.032227 0.124024
v 0.342041 2.666260 -0.107666
v 0.197021 2.584961 -0.001709
v 0.342041 2.666260 0.106202
v -0.645264 2.293213 -0.111816
v -0.701904 2.272217 0.120118
v -0.759766 2.248291 -0.121093
v -0.214355 2.473145 0.101319
v -0.197021 2.585693 0.001954
v -0.342041 2.666260 0.106202
v -0.214355 2.473145 0.101319
v -0.342041 2.666260 0.106202
v -0.339600 2.423584 0.101807
v 0.000000 2.408203 -0.222900
v 0.311035 2.676514 -0.120361
v 0.339600 2.405029 -0.124023
v 0.129150 2.974609 0.116700
v -0.129150 2.974609 0.116700
v 0.144775 2.708984 0.119873
vt 0.007812 -0.641602
vt 0.046875 -0.635742
vt 0.006836 -0.702148
vt 0.065430 -0.702148
vt 0.006836 -0.825195
vt 0.065430 -0.825195
vt 0.046875 -0.900391
vt 0.201172 -0.825195
vt 0.198242 -0.900391
vt 0.249023 -0.900391
vt 0.222656 -0.979492
vt 0.269531 -0.979492
vt 0.175781 -0.702148
vt 0.225586 -0.702148
vt 0.250000 -0.825195
vt 0.269531 -0.702148
vt 0.399414 -0.825195
vt 0.399414 -0.702148
vt 0.399414 -0.982422
vt 0.399414 -0.900391
vt 0.222656 -0.635742
vt 0.174805 -0.635742
vt 0.524414 -0.164062
vt 0.468750 -0.171875
vt 0.524414 -0.136719
vt 0.468750 -0.135742
vt 0.496094 -0.110352
vt 0.466797 -0.106445
vt 0.496094 -0.055664
vt 0.466797 -0.058594
vt 0.468750 -0.031250
vt 0.524414 -0.031250
vt 0.525391 -0.068359
vt 0.525391 -0.107422
vt 0.174805 -0.979492
vt 0.046875 -0.982422
vt 0.269531 -0.635742
vt 0.013672 -0.979492
vt 0.037109 -0.979492
vt 0.013672 -0.961914
vt 0.037109 -0.961914
vt 0.025391 -0.937500
vt 0.037109 -0.913086
vt 0.013672 -0.913086
vt 0.087891 -0.001953
vt 0.087891 -0.073242
vt 0.169922 -0.001953
vt 0.168945 -0.072266
vt 0.314453 -0.001953
vt 0.314453 -0.072266
vt 0.007812 -0.890625
vt 0.399414 -0.635742
vt 0.070312 -0.226562
vt 0.035156 -0.591797
vt 0.242188 -0.225586
vt 0.242188 -0.591797
vt 0.449219 -0.591797
vt 0.900391 -0.036133
vt 0.822266 -0.019531
vt 0.899414 -0.089844
vt 0.821289 -0.073242
vt 0.742188 -0.225586
vt 0.399414 -0.100586
vt 0.314453 -0.083008
vt 0.168945 -0.083008
vt 0.084961 -0.100586
vt 0.570312 -0.225586
vt 0.535156 -0.593750
vt 0.742188 -0.593750
vt 0.949219 -0.593750
vt 0.395508 -0.001953
vt 0.395508 -0.073242
vt 0.461914 -0.338867
vt 0.461914 -0.203125
vt 0.522461 -0.338867
vt 0.522461 -0.203125
vt 0.802734 -0.073242
vt 0.681641 -0.073242
vt 0.688477 -0.001953
vt 0.583984 -0.036133
vt 0.584961 -0.089844
vt 0.662109 -0.019531
vt 0.662109 -0.073242
vt 0.434570 -0.984375
vt 0.685547 -0.984375
vt 0.475586 -0.618164
vt 0.661133 -0.617188
vt 0.745117 -0.617188
vt 0.717773 -0.984375
vt 0.929688 -0.618164
vt 0.968750 -0.984375
vt 0.414062 -0.226562
vt 0.914062 -0.225586
vt 0.795898 -0.001953
vn 0.796900 -0.181700 -0.576200
vn 0.318500 -0.660400 -0.680000
vn 0.269600 0.666100 -0.695400
vn -0.333900 0.829800 -0.447100
vn 0.117200 0.762000 0.636900
vn -0.263700 0.636700 0.724600
vn 0.201000 -0.409800 0.889800
vn -0.324400 0.623400 0.711400
vn 0.342000 -0.818800 0.461200
vn 0.300600 -0.638300 0.708600
vn 0.332000 -0.671900 -0.662100
vn 0.341600 -0.665600 -0.663600
vn -0.794100 -0.183400 -0.579500
vn -0.267800 0.664500 -0.697700
vn -0.318500 -0.660500 -0.680000
vn 0.333900 0.829800 -0.447100
vn 0.164100 0.340000 -0.926000
vn 0.324400 0.623500 0.711400
vn 0.289300 0.594200 -0.750500
vn 0.322600 0.637300 0.699900
vn 0.312700 0.601900 -0.734800
vn 0.261900 0.858100 0.441700
vn 0.230400 0.656100 -0.718600
vn 0.251800 -0.587600 -0.769000
vn 0.341600 -0.665500 -0.663600
vn 0.287100 -0.543000 0.789100
vn 0.300600 -0.638400 0.708600
vn -0.322600 0.637300 0.699800
vn -0.289300 0.594200 -0.750500
vn -0.164100 0.339900 -0.926000
vn 0.332100 -0.671800 -0.662100
vn 0.275400 -0.691400 -0.668000
vn -0.415900 -0.714700 -0.562300
vn 0.251800 -0.587500 -0.769000
vn -0.025400 -0.815200 0.578600
vn -0.415600 0.526800 0.741400
vn -0.261900 0.858100 0.441700
vn -0.337700 0.581800 -0.739900
vn -0.230400 0.656100 -0.718600
vn 0.251700 -0.587500 -0.769000
vn 0.251800 -0.587500 -0.769100
vn -0.415900 -0.714700 -0.562400
vn -0.909600 0.218600 -0.353300
vn -0.894900 -0.261800 0.361500
vn -0.025400 -0.815200 0.578700
vn -0.416000 -0.714600 -0.562400
vn -0.251800 -0.587500 -0.769000
vn -0.287100 -0.543000 0.789100
vn -0.341500 -0.665600 -0.663600
vn -0.300600 -0.638300 0.708600
vn -0.332100 -0.671800 -0.662100
vn -0.342000 -0.818800 0.461200
vn -0.275400 -0.691400 -0.668000
vn -0.318500 -0.660400 -0.680000
vn -0.312700 0.601900 -0.734800
vn -0.322600 0.637300 0.699900
vn 0.287200 -0.543000 0.789100
vn 0.200900 -0.409800 0.889800
vn 0.738300 -0.457000 0.496100
vn 0.796900 -0.181600 -0.576200
vn 0.864800 0.501700 0.019500
vn 0.337700 0.581800 -0.739900
vn 0.415600 0.526800 0.741400
vn 0.025400 -0.815200 0.578600
vn -0.251800 -0.587500 -0.769100
vn 0.415900 -0.714700 -0.562300
vn 0.909600 0.218600 -0.353300
vn 0.894900 -0.261800 0.361500
vn 0.025400 -0.815200 0.578700
vn 0.705300 0.048800 0.707300
vn 0.468500 0.386400 0.794500
vn 0.891300 0.072300 -0.447600
vn 0.277600 0.568900 -0.774200
vn -0.704100 0.076200 -0.706000
vn -0.326300 0.658600 -0.678100
vn -0.742100 -0.455000 0.492100
vn -0.201000 -0.409800 0.889800
vn -0.121100 0.763400 0.634500
vn 0.263700 0.636700 0.724600
vn 0.324500 0.623400 0.711400
vn -0.332000 -0.671900 -0.662100
vn -0.341600 -0.665600 -0.663600
vn 0.911700 0.144400 -0.384600
vn 0.745700 0.197200 -0.636400
vn 0.000000 0.207000 -0.978300
vn -0.000000 0.146600 -0.989200
vn -0.745700 0.197100 -0.636400
vn 0.519700 0.527500 -0.672100
vn 0.277600 0.568900 -0.774100
vn 0.654600 0.613600 0.441600
vn 0.468500 0.386500 0.794400
vn -0.000000 0.230600 0.973100
vn -0.519700 0.527500 -0.672100
vn -0.326400 0.658500 -0.678100
vn -0.805900 0.167800 0.567800
vn -0.765800 0.199300 0.611500
vn 0.000000 0.230600 0.973000
vn -0.000000 0.128900 0.991700
vn 0.765800 0.199200 0.611500
vn 0.341500 -0.665600 -0.663600
vn 0.324400 0.623400 0.711400
vn 0.263800 0.636700 0.724600
vn -0.865800 0.500300 0.011700
vn -0.121000 0.763400 0.634500
vn -0.263600 0.636700 0.724600
vn -0.324500 0.623400 0.711400
vn -0.446900 0.037100 0.893800
vn -0.704100 0.076300 -0.706000
vn -0.554400 0.454800 0.697000
vn -0.654600 0.613600 0.441600
vn -0.911700 0.144500 -0.384600
vn -0.000000 0.230500 0.973100
vn -0.554400 0.454900 0.696900
vn -0.200900 -0.409800 0.889800
vn -0.742100 -0.455100 0.492200
vn 0.805900 0.167800 0.567800
vn 0.911700 0.144500 -0.384600
vn -0.654600 0.613500 0.441600
vn -0.745700 0.197200 -0.636400
vn 0.765800 0.199300 0.611500
vn -0.911700 0.144400 -0.384600
vn 0.164100 0.339900 -0.926000
vn -0.300600 -0.638400 0.708600
vn -0.300800 -0.638300 0.708600
vn 0.337800 0.581800 -0.739900
vn 0.415600 0.526900 0.741400
vn -0.894900 -0.261800 0.361400
vn -0.909600 0.218600 -0.353400
vn -0.267700 0.664500 -0.697700
vn 0.416000 -0.714600 -0.562400
vn 0.894900 -0.261800 0.361400
vn -0.121100 0.763300 0.634500
vn 0.275300 -0.691400 -0.667900
vn 0.705300 0.048800 0.707200
usemtl Material53.010
s 1
f 390/178/240 391/179/241 392/180/242
f 391/179/241 393/181/243 392/180/242
f 392/180/242 393/181/243 394/182/244
f 393/181/243 395/183/245 394/182/244
f 394/182/244 395/183/245 396/184/246
f 395/183/245 397/185/247 396/184/246
f 396/184/246 397/185/247 398/186/248
f 397/185/247 399/187/249 398/186/248
f 398/186/248 399/187/249 400/188/250
f 399/187/249 401/189/251 400/188/250
f 402/178/252 403/180/253 404/179/254
f 403/180/253 405/181/255 404/179/254
f 404/179/254 405/181/255 406/190/256
f 405/181/255 407/185/257 406/190/256
f 406/190/256 407/185/257 408/191/258
f 407/185/257 409/192/259 408/191/258
f 408/191/258 409/192/259 410/193/260
f 409/192/259 411/194/261 410/193/260
f 410/193/260 411/194/261 412/195/262
f 413/196/263 414/189/264 415/197/265
f 414/189/264 416/187/266 415/197/265
f 415/197/265 416/187/266 417/192/267
f 416/187/266 418/185/247 417/192/267
f 417/192/267 418/185/247 419/191/268
f 418/185/247 420/190/269 419/191/268
f 419/191/268 420/190/269 421/198/270
f 420/190/269 422/199/271 421/198/270
f 423/200/272 424/201/273 425/202/274
f 424/201/273 426/203/265 425/202/274
f 425/202/274 426/203/265 427/204/275
f 426/203/265 428/205/276 427/204/275
f 427/204/275 428/205/276 429/206/277
f 428/205/276 430/207/278 429/206/277
f 429/206/277 430/207/278 431/208/279
f 432/208/280 433/209/281 434/206/277
f 433/209/281 435/210/282 434/206/277
f 434/206/277 435/210/282 436/204/275
f 435/210/282 437/211/283 436/204/275
f 436/204/275 437/211/283 438/202/284
f 437/211/283 439/209/285 438/202/284
f 440/196/286 441/197/287 442/189/288
f 441/197/287 443/187/289 442/189/288
f 442/189/288 443/187/289 444/188/290
f 443/187/289 445/186/291 444/188/290
f 444/188/290 445/186/291 446/212/292
f 445/186/291 447/213/293 446/212/292
f 448/198/250 449/214/251 450/191/268
f 449/214/251 451/193/294 450/191/268
f 450/191/268 451/193/294 452/192/295
f 451/193/294 453/194/276 452/192/295
f 452/192/295 453/194/276 454/197/296
f 455/215/297 456/216/241 457/217/298
f 456/216/241 458/218/299 457/217/298
f 457/217/298 458/218/299 459/219/300
f 458/218/299 460/220/242 459/219/300
f 459/219/300 460/220/242 461/221/244
f 462/208/286 463/207/262 464/206/301
f 463/207/262 465/205/261 464/206/301
f 464/206/301 465/205/261 466/204/302
f 465/205/261 467/203/287 466/204/302
f 466/204/302 467/203/287 468/202/303
f 469/208/304 470/206/301 471/209/305
f 470/206/301 472/210/306 471/209/305
f 471/209/305 472/210/306 473/211/307
f 472/210/306 474/204/302 473/211/307
f 473/211/307 474/204/302 475/202/308
f 476/222/309 477/223/310 478/224/311
f 477/223/310 479/225/312 478/224/311
f 478/224/311 479/225/312 480/226/313
f 479/225/312 481/227/314 480/226/313
f 482/228/315 483/184/316 484/182/317
f 483/184/316 485/183/318 484/182/317
f 484/182/317 485/183/318 486/181/255
f 485/183/318 487/185/319 486/181/255
f 488/198/320 489/191/258 490/214/321
f 489/191/258 491/193/260 490/214/321
f 490/214/321 491/193/260 492/229/286
f 491/193/260 493/195/262 492/229/286
f 494/230/322 495/231/323 496/232/324
f 495/231/323 497/233/325 496/232/324
f 496/232/324 497/233/325 498/234/326
f 499/235/327 500/236/328 501/237/329
f 500/236/328 502/238/330 501/237/329
f 501/237/329 502/238/330 503/239/331
f 504/240/332 505/241/333 506/232/324
f 505/241/333 507/242/312 506/232/324
f 506/232/324 507/242/312 508/243/327
f 509/244/334 510/245/335 511/239/336
f 510/245/335 512/246/337 511/239/336
f 511/239/336 512/246/337 513/247/338
f 514/214/339 515/229/273 516/193/294
f 515/229/273 517/195/278 516/193/294
f 516/193/294 517/195/278 518/194/276
f 519/213/254 520/186/291 521/184/316
f 520/186/291 522/185/340 521/184/316
f 521/184/316 522/185/340 523/183/341
f 524/220/253 525/218/252 526/219/342
f 525/218/252 527/217/315 526/219/342
f 526/219/342 527/217/315 528/221/343
f 529/199/271 530/190/269 531/179/241
f 530/190/269 532/181/243 531/179/241
f 533/183/344 534/181/243 535/185/345
f 534/181/243 536/190/269 535/185/345
f 537/248/346 538/226/347 539/249/348
f 538/226/347 540/227/333 539/249/348
f 541/250/334 542/251/349 543/252/350
f 542/251/349 544/253/332 543/252/350
f 545/239/351 546/254/330 547/255/352
f 546/254/330 548/256/346 547/255/352
f 549/215/353 550/217/354 551/216/293
f 550/217/354 552/218/252 551/216/293
f 553/250/355 554/252/356 555/251/329
f 554/252/356 556/253/327 555/251/329
f 557/257/332 558/258/349 559/259/314
f 558/258/349 560/260/352 559/259/314
f 561/244/334 562/239/351 563/258/357
f 562/239/351 564/260/352 563/258/357
f 565/261/358 566/262/335 567/263/350
f 566/262/335 568/264/334 567/263/350
f 569/265/355 570/266/359 571/267/356
f 570/266/359 572/268/323 571/267/356
f 573/240/332 574/232/324 575/269/360
f 574/232/324 576/234/326 575/269/360
f 577/179/293 578/190/361 579/199/292
f 578/190/361 580/198/320 579/199/292
f 581/186/291 582/187/362 583/185/340
f 582/187/362 584/192/259 583/185/340
f 585/200/305 586/202/303 587/201/286
f 586/202/303 588/203/287 587/201/286
f 589/237/329 590/239/336 591/270/355
f 590/239/336 592/247/359 591/270/355
f 593/184/246 594/186/248 595/213/241
f 594/186/248 596/212/271 595/213/241
f 597/194/261 598/192/259 599/197/287
f 598/192/259 600/187/363 599/197/287
f 601/206/364 602/204/365 603/210/306
f 604/191/258 605/198/320 606/190/256
f 607/209/272 608/211/366 609/210/367
f 610/180/368 611/182/343 612/181/255
f 613/202/308 614/209/369 615/211/370
f 616/220/253 617/219/342 618/221/371
f 619/212/372 620/186/248 621/188/250
f 622/217/298 623/219/300 624/221/244
f 625/228/298 626/182/244 627/184/246
f 628/232/324 629/243/327 630/230/322
f 631/271/373 632/256/346 633/254/330
o polygon0.020
v 0.000000 2.787639 0.354269
v 0.000000 2.787639 -0.402078
v 0.421143 2.870158 0.365011
v 0.421143 2.870158 -0.411844
v 0.573975 2.986125 0.379660
v 0.573975 2.986125 -0.430155
v 0.649414 3.139201 0.397970
v 0.649414 3.139201 -0.450417
v 0.687988 3.816447 0.398216
v 0.686279 3.634318 -0.170876
v 0.649414 3.139201 0.397970
v 0.687988 3.816447 0.398216
v 0.482666 3.138713 0.533225
v 0.521240 3.816447 0.537376
v 0.000000 3.138713 0.605003
v 0.000000 3.816447 0.573265
v -0.521240 3.816447 0.537376
v -0.498047 3.944132 0.536155
v -0.687988 3.816447 0.398216
v 0.421143 2.870158 0.365011
v 0.447022 2.970012 0.510763
v 0.000000 2.787639 0.354269
v 0.000000 2.930461 0.536642
v -0.447022 2.970012 0.510763
v 0.000000 3.138713 0.605003
v -0.482666 3.138713 0.533225
v -0.521240 3.816447 0.537376
v -0.687988 3.816447 0.398216
v -0.687988 3.816447 0.398216
v -0.649414 3.139201 0.397970
v -0.482666 3.138713 0.533225
v -0.573975 2.986125 0.379660
v -0.447022 2.970012 0.510763
v -0.421143 2.870158 0.365011
v 0.000000 2.787639 0.354269
v 0.649414 3.139201 -0.450417
v 0.573975 2.986125 -0.430155
v 0.474609 3.114299 -0.510964
v 0.421143 2.870158 -0.411844
v 0.000000 2.787639 -0.402078
v -0.421143 2.870158 -0.411844
v -0.573975 2.986125 0.379660
v -0.573975 2.986125 -0.430155
v -0.649414 3.139201 0.397970
v -0.649414 3.139201 -0.450417
v 0.421143 2.870158 0.365011
v 0.573975 2.986125 0.379660
v 0.447022 2.970012 0.510763
v 0.482666 3.138713 0.533225
v 0.000000 3.138713 0.605003
v -0.686279 3.634318 -0.170876
v -0.649414 3.139201 -0.450417
v -0.687988 3.816447 0.398216
v -0.649414 3.139201 0.397970
v 0.000000 2.787639 0.354269
v -0.421143 2.870158 0.365011
v 0.000000 2.787639 -0.402078
v -0.421143 2.870158 -0.411844
v -0.649414 3.139201 -0.450417
v -0.474609 3.114299 -0.510964
v -0.573975 2.986125 -0.430155
v -0.421143 2.870158 -0.411844
v 0.474609 3.114299 -0.510964
v 0.000000 2.787639 -0.402078
v 0.000000 3.083781 -0.568094
v -0.474609 3.114299 -0.510964
v 0.687988 3.816447 0.398216
v 0.498047 3.944132 0.536155
v 0.521240 3.816447 0.537376
v 0.000000 3.816447 0.573265
v 0.498047 3.944132 0.536155
v 0.000000 3.944132 0.535911
v 0.000000 3.816447 0.573265
v -0.498047 3.944132 0.536155
v -0.421143 2.870158 -0.411844
v -0.474609 3.114299 -0.510964
v 0.000000 2.787639 -0.402078
v 0.482666 3.138713 0.533225
v 0.573975 2.986125 0.379660
v 0.649414 3.139201 0.397970
v -0.573975 2.986125 0.379660
v -0.421143 2.870158 -0.411844
v -0.421143 2.870158 0.365011
v 0.000000 2.930461 0.536642
v 0.447022 2.970012 0.510763
v 0.000000 3.138713 0.605003
vt 0.918945 -0.921875
vt 0.986328 -0.921875
vt 0.918945 -0.801758
vt 0.986328 -0.801758
vt 0.918945 -0.734375
vt 0.986328 -0.734375
vt 0.918945 -0.627930
vt 0.986328 -0.627930
vt 0.918945 -0.246094
vt 0.986328 -0.246094
vt 0.887695 -0.627930
vt 0.788086 -0.625977
vt 0.806641 -0.246094
vt 0.500000 -0.631836
vt 0.500000 -0.246094
vt 0.193359 -0.246094
vt 0.207031 -0.170898
vt 0.081055 -0.246094
vt 0.751953 -0.801758
vt 0.767578 -0.743164
vt 0.500000 -0.851562
vt 0.500000 -0.767578
vt 0.233398 -0.743164
vt 0.211914 -0.625977
vt 0.112305 -0.627930
vt 0.157227 -0.734375
vt 0.249023 -0.801758
vt 0.298828 -0.948242
vt 0.292969 -0.958008
vt 0.288086 -0.950195
vt 0.281250 -0.967773
vt 0.248047 -0.973633
vt 0.013672 -0.801758
vt 0.081055 -0.734375
vt 0.013672 -0.734375
vt 0.081055 -0.627930
vt 0.013672 -0.627930
vt 0.842773 -0.734375
vt 0.013672 -0.246094
vt 0.081055 -0.921875
vt 0.081055 -0.801758
vt 0.013672 -0.921875
vt 0.197266 -0.948242
vt 0.208984 -0.950195
vt 0.203125 -0.958008
vt 0.214844 -0.967773
vt 0.248047 -0.952148
vt 0.792969 -0.170898
vt 0.500000 -0.170898
vn 0.000000 -0.913800 0.406100
vn 0.000000 -1.000000 0.000000
vn 0.351600 -0.914300 0.201200
vn 0.478200 -0.878300 -0.000000
vn 0.715000 -0.617300 0.328200
vn 0.818600 -0.574400 0.000000
vn 0.892600 -0.302700 0.334000
vn 0.979900 -0.199100 0.007800
vn 0.857600 -0.021500 0.513800
vn 0.995800 -0.087900 0.025400
vn 0.498300 -0.150500 0.853800
vn 0.326000 0.027300 0.945000
vn -0.000000 -0.111300 0.993800
vn 0.000000 0.117300 0.993100
vn -0.326000 0.027300 0.945000
vn -0.248000 0.150400 0.957000
vn -0.857700 -0.021500 0.513800
vn 0.351700 -0.914200 0.201200
vn 0.316500 -0.562600 0.763800
vn -0.000000 -0.574400 0.818600
vn -0.316500 -0.562600 0.763800
vn -0.498300 -0.150500 0.853800
vn -0.326100 0.027300 0.944900
vn -0.857600 -0.021500 0.513800
vn -0.892600 -0.302700 0.334000
vn -0.498300 -0.150500 0.853900
vn -0.715000 -0.617300 0.328200
vn -0.351600 -0.914300 0.201200
vn 0.349600 -0.290900 -0.890600
vn 0.277400 -0.349700 -0.894800
vn 0.187400 -0.394200 -0.899700
vn 0.129000 -0.396800 -0.908800
vn -0.000000 -0.437800 -0.899100
vn -0.478200 -0.878300 0.000000
vn -0.818600 -0.574400 0.000000
vn -0.892600 -0.302800 0.334000
vn -0.979900 -0.199100 0.007800
vn 0.316400 -0.562600 0.763800
vn 0.498200 -0.150500 0.853900
vn -0.995800 -0.087900 0.025400
vn -0.349600 -0.290900 -0.890600
vn -0.187400 -0.394200 -0.899700
vn -0.277400 -0.349700 -0.894800
vn -0.129000 -0.396700 -0.908800
vn 0.187300 -0.394200 -0.899700
vn -0.000000 -0.488000 -0.872800
vn -0.187300 -0.394200 -0.899700
vn 0.857700 -0.021500 0.513800
vn 0.248000 0.150400 0.957000
vn 0.326100 0.027300 0.944900
vn 0.000000 0.281200 0.959600
vn -0.129000 -0.396800 -0.908800
usemtl Material65.004
s 1
f 634/272/374 635/273/375 636/274/376
f 635/273/375 637/275/377 636/274/376
f 636/274/376 637/275/377 638/276/378
f 637/275/377 639/277/379 638/276/378
f 638/276/378 639/277/379 640/278/380
f 639/277/379 641/279/381 640/278/380
f 640/278/380 641/279/381 642/280/382
f 641/279/381 643/281/383 642/280/382
f 644/282/380 645/280/382 646/283/384
f 645/280/382 647/284/385 646/283/384
f 646/283/384 647/284/385 648/285/386
f 647/284/385 649/286/387 648/285/386
f 648/285/386 649/286/387 650/287/388
f 649/286/387 651/288/389 650/287/388
f 650/287/388 651/288/389 652/289/390
f 653/290/391 654/291/392 655/292/374
f 654/291/392 656/293/393 655/292/374
f 655/292/374 656/293/393 657/294/394
f 656/293/393 658/285/386 657/294/394
f 657/294/394 658/285/386 659/295/395
f 658/285/386 660/287/396 659/295/395
f 659/295/395 660/287/396 661/289/397
f 662/289/397 663/296/398 664/295/399
f 663/296/398 665/297/400 664/295/399
f 664/295/399 665/297/400 666/294/394
f 665/297/400 667/298/401 666/294/394
f 666/294/394 667/298/401 668/292/374
f 669/299/402 670/300/403 671/301/404
f 670/300/403 672/302/405 671/301/404
f 671/301/404 672/302/405 673/303/406
f 674/304/407 675/305/400 676/306/408
f 675/305/400 677/307/409 676/306/408
f 676/306/408 677/307/409 678/308/410
f 679/290/376 680/309/378 681/291/411
f 680/309/378 682/283/412 681/291/411
f 681/291/411 682/283/412 683/285/386
f 684/310/413 685/308/410 686/289/397
f 685/308/410 687/307/409 686/289/397
f 688/311/374 689/312/401 690/313/375
f 689/312/401 691/304/407 690/313/375
f 692/314/414 693/315/415 694/316/416
f 693/315/415 695/317/417 694/316/416
f 696/301/418 697/303/406 698/318/419
f 697/303/406 699/315/420 698/318/419
f 700/280/421 701/319/422 702/284/423
f 701/319/422 703/286/387 702/284/423
f 704/319/422 705/320/424 706/286/387
f 705/320/424 707/288/389 706/286/387
f 708/317/425 709/315/415 710/303/406
f 711/283/384 712/309/378 713/282/380
f 714/305/400 715/304/407 716/312/401
f 717/293/393 718/291/392 719/285/386
o polygon1.020
v -0.495117 0.852051 0.307617
v -0.032227 0.852051 0.347412
v -0.479248 1.254883 0.322022
v 0.000000 1.253906 0.388428
v -0.465576 1.468018 0.316651
v 0.000000 1.680664 0.350098
v -0.433105 1.681152 0.287110
v 0.433105 1.681152 0.287110
v 0.000000 1.680664 0.350098
v 0.465576 1.468018 0.316651
v 0.000000 1.253906 0.388428
v 0.479248 1.254883 0.322022
v 0.032227 0.852051 0.347412
v 0.495117 0.852051 0.307617
v -0.433105 1.681152 0.287110
v -0.428223 1.684814 -0.262695
v -0.465576 1.468018 0.316651
v -0.460449 1.471924 -0.293945
v -0.479248 1.254883 0.322022
v -0.479492 1.259277 -0.314697
v -0.027100 0.852051 -0.302002
v -0.495361 0.852051 -0.282471
v 0.000000 1.260010 -0.375000
v -0.479492 1.259277 -0.314697
v -0.460449 1.471924 -0.293945
v 0.495117 0.852051 0.307617
v 0.495361 0.852051 -0.282471
v 0.479248 1.254883 0.322022
v 0.479492 1.259277 -0.314697
v 0.460449 1.471924 -0.293945
v -0.495117 0.852051 0.307617
v -0.479248 1.254883 0.322022
v -0.495361 0.852051 -0.282471
v -0.479492 1.259277 -0.314697
v -0.428223 1.684814 -0.262695
v 0.000000 1.685303 -0.302734
v -0.460449 1.471924 -0.293945
v 0.000000 1.260010 -0.375000
v 0.428223 1.684814 -0.262695
v 0.460449 1.471924 -0.293945
v 0.000000 1.685303 -0.302734
v 0.000000 1.260010 -0.375000
v 0.433105 1.681152 0.287110
v 0.465576 1.468018 0.316651
v 0.428223 1.684814 -0.262695
v 0.460449 1.471924 -0.293945
v 0.000000 1.260010 -0.375000
v 0.000000 1.253906 0.388428
v -0.027100 0.852051 -0.302002
v -0.032227 0.852051 0.347412
v 0.032227 0.852051 0.347412
v 0.000000 1.253906 0.388428
v 0.027100 0.852051 -0.302002
v 0.000000 1.260010 -0.375000
v 0.027100 0.852051 -0.302002
v 0.000000 1.260010 -0.375000
v 0.495361 0.852051 -0.282471
v 0.479492 1.259277 -0.314697
v 0.479492 1.259277 -0.314697
v 0.000000 1.260010 -0.375000
v 0.460449 1.471924 -0.293945
v 0.465576 1.468018 0.316651
v 0.479248 1.254883 0.322022
v 0.460449 1.471924 -0.293945
vt 0.030273 -0.968750
vt 0.248047 -0.968750
vt 0.021484 -0.764648
vt 0.255859 -0.765625
vt 0.027344 -0.657227
vt 0.256836 -0.548828
vt 0.049805 -0.548828
vt 0.463867 -0.548828
vt 0.485352 -0.657227
vt 0.491211 -0.764648
vt 0.262695 -0.968750
vt 0.481445 -0.968750
vt 0.748047 -0.048828
vt 0.497070 -0.046875
vt 0.753906 -0.157227
vt 0.485352 -0.155273
vt 0.755859 -0.264648
vt 0.479492 -0.262695
vt 0.251953 -0.468750
vt 0.471680 -0.468750
vt 0.244141 -0.261719
vt 0.478516 -0.262695
vt 0.472656 -0.155273
vt 0.496094 -0.968750
vt 0.750000 -0.968750
vt 0.767578 -0.762695
vt 0.761719 -0.655273
vt 0.750977 -0.468750
vt 0.497070 -0.468750
vt 0.450195 -0.046875
vt 0.243164 -0.046875
vt 0.036133 -0.046875
vt 0.014648 -0.155273
vt 0.500000 -0.548828
vt 0.493164 -0.657227
vt 0.750000 -0.546875
vt 0.992188 -0.260742
vt 0.777344 -0.264648
vt 0.974609 -0.468750
vt 0.791992 -0.468750
vt 0.786133 -0.966797
vt 0.778320 -0.761719
vt 0.969727 -0.966797
vt 0.993164 -0.758789
vt 0.237305 -0.468750
vt 0.016602 -0.468750
vt 0.008789 -0.262695
vn -0.734400 -0.037200 0.677700
vn 0.665800 -0.109300 0.738100
vn -0.826300 0.027400 0.562600
vn 0.000000 -0.039100 0.999200
vn -0.746100 0.142600 0.650400
vn -0.000000 0.128800 0.991700
vn -0.765800 0.199200 0.611500
vn 0.765800 0.199200 0.611500
vn 0.746100 0.142500 0.650400
vn 0.826300 0.027400 0.562600
vn -0.665700 -0.111300 0.737900
vn 0.734500 -0.033200 0.677800
vn -0.765800 0.199300 0.611400
vn -0.745700 0.197200 -0.636400
vn -0.732700 0.164100 -0.660400
vn -0.826300 0.027300 0.562600
vn -0.749500 0.054700 -0.659700
vn 0.821900 -0.130800 -0.554400
vn -0.630500 -0.043000 -0.775000
vn 0.000000 -0.009800 -1.000000
vn 0.630500 -0.042900 -0.775000
vn 0.749500 0.054700 -0.659700
vn 0.732700 0.164100 -0.660400
vn -0.734400 -0.037100 0.677700
vn -0.630500 -0.042900 -0.775000
vn -0.749500 0.054600 -0.659700
vn 0.000000 0.146600 -0.989200
vn 0.745700 0.197200 -0.636400
vn 0.765800 0.199300 0.611400
vn 0.746100 0.142600 0.650400
vn 0.732700 0.164200 -0.660400
vn 0.000000 -0.009700 -1.000000
vn -0.821900 -0.130800 -0.554400
vn 0.630500 -0.043000 -0.775000
vn 0.749500 0.054600 -0.659700
vn 0.826300 0.027300 0.562600
usemtl Material54.010
s 1
f 720/321/426 721/322/427 722/323/428
f 721/322/427 723/324/429 722/323/428
f 722/323/428 723/324/429 724/325/430
f 723/324/429 725/326/431 724/325/430
f 724/325/430 725/326/431 726/327/432
f 727/328/433 728/326/431 729/329/434
f 728/326/431 730/324/429 729/329/434
f 729/329/434 730/324/429 731/330/435
f 730/324/429 732/331/436 731/330/435
f 731/330/435 732/331/436 733/332/437
f 734/333/438 735/334/439 736/335/430
f 735/334/439 737/336/440 736/335/430
f 736/335/430 737/336/440 738/337/441
f 737/336/440 739/338/442 738/337/441
f 740/339/443 741/340/444 742/341/445
f 741/340/444 743/342/442 742/341/445
f 742/341/445 743/342/442 744/343/440
f 745/344/437 746/345/446 747/330/435
f 746/345/446 748/346/447 747/330/435
f 747/330/435 748/346/447 749/347/448
f 750/348/449 751/337/441 752/349/450
f 751/337/441 753/338/451 752/349/450
f 754/350/439 755/351/452 756/343/440
f 755/351/452 757/341/445 756/343/440
f 758/352/453 759/353/448 760/351/452
f 759/353/448 761/341/445 760/351/452
f 762/354/454 763/355/455 764/356/453
f 763/355/455 765/347/456 764/356/453
f 766/357/457 767/358/429 768/359/443
f 767/358/429 769/360/427 768/359/443
f 770/361/436 771/362/429 772/363/458
f 771/362/429 773/364/445 772/363/458
f 774/365/458 775/341/457 776/366/459
f 775/341/457 777/367/447 776/366/459
f 778/367/460 779/341/457 780/353/448
f 781/355/455 782/330/461 783/347/448
