# Wavefront OBJ file
# Exported by Maverick Model 3D 1.3.12
# Thu Jan 30 15:38:49 2020

mtllib car.mtl

# 98 Vertices
v -10.647738 3.70767 9.92754
v 10.435553 2.782286 -9.924588
v 10.545592 3.224456 9.803466
v -10.780194 3.266012 -9.80038
v 4.958457 3.489121 21.850609
v -5.80564 2.748392 -21.838339
v 5.217816 2.497053 -21.902879
v -4.796815 3.711544 21.907722
v 9.468086 3.447319 23.153607
v 10.326212 2.381704 -23.260155
v -10.898918 2.865579 -23.139311
v -9.31522 3.875495 23.260155
v 5.000103 11.73636 22.221969
v -4.728455 11.958173 22.278922
v 5.053115 11.554311 11.153216
v -4.675443 11.776125 11.210172
v 11.049173 5.911574 13.111878
v 10.94728 1.416524 13.213194
v 10.992302 3.643194 12.231357
v 10.975899 1.517216 17.709321
v 10.940485 0.535915 15.482241
v 11.032776 3.785595 18.589842
v 11.077792 6.012266 17.608005
v 11.084587 6.892875 15.338958
v 8.943593 1.462209 13.224924
v 8.988615 3.688879 12.243087
v 8.936798 0.5816 15.493972
v 8.972213 1.562901 17.721052
v 9.029089 3.83128 18.601573
v 9.074106 6.057951 17.619736
v 9.080901 6.93856 15.350688
v 9.045492 5.957258 13.123608
v -8.972213 6.368068 13.229094
v -9.074106 1.873019 13.33041
v -9.029089 4.099689 12.348575
v -9.045489 1.97371 17.826537
v -9.080901 0.992409 15.599457
v -8.988615 4.242089 18.707058
v -8.943593 6.46876 17.725221
v -8.936801 7.349369 15.456173
v -11.077795 1.918703 13.34214
v -11.032773 4.145373 12.360306
v -11.084587 1.038094 15.611188
v -11.049175 2.019395 17.838268
v -10.992299 4.287774 18.718789
v -10.94728 6.514445 17.736952
v -10.940485 7.395054 15.467904
v -10.975899 6.413752 13.240824
v -8.149145 0.966226 -17.518653
v -8.120525 1.066918 -13.022527
v -8.148694 0.405284 -15.256811
v -8.0687 3.112569 -12.136985
v -8.109171 2.970169 -18.495471
v -10.152831 1.011911 -17.506923
v -10.112857 3.015853 -18.48374
v -10.152378 0.450968 -15.245081
v -10.124212 1.112603 -13.010797
v -10.072386 3.158254 -12.125255
v 9.626207 0.560942 -17.622721
v 9.654826 0.661634 -13.126594
v 9.626657 0.0 -15.360878
v 9.706649 2.707285 -12.241053
v 9.666175 2.564885 -18.599538
v 7.62252 0.606627 -17.610991
v 7.662489 2.610569 -18.587807
v 7.622971 0.045685 -15.349147
v 7.65114 0.707319 -13.114863
v 7.702962 2.75297 -12.229323
v -4.18522 15.531808 -3.484221
v 4.808834 15.32674 -3.536877
v 8.773997 13.732319 -5.1288
v -8.237288 14.120182 -5.029206
v 4.885565 16.167706 6.294652
v 8.857087 14.024661 7.92489
v -4.108488 16.372774 6.34731
v -8.154198 14.412524 8.024484
v -4.863645 11.268084 -11.518972
v -5.628084 9.33479 -22.295271
v -6.899865 12.259106 -23.040196
v 4.862271 11.04633 -11.57591
v 6.763736 12.062831 -23.072271
v 5.365184 9.084139 -22.359629
v -7.143445 2.77877 -23.15645
v 6.544135 2.466754 -23.233162
v -10.681642 12.368042 -23.033559
v -10.580891 11.155247 -9.978332
v 10.612312 10.672035 -10.102407
v 10.546372 11.999296 -23.10992
v 5.070355 9.519298 22.023144
v 6.283622 10.784211 22.674625
v -5.803223 11.17278 22.692357
v -4.6582 9.741112 22.0801
v 6.144596 3.521695 23.168274
v -5.968309 3.797784 23.235768
v 9.631327 10.731268 22.669497
v 10.724082 11.114166 9.625636
v -10.469279 11.59738 9.749713
v -9.149691 11.272466 22.72642

# 510 Texture Coordinates
vt 0.716145 0.700993
vt 0.529273 0.998399
vt 0.716145 0.997163
vt 0.529273 0.998399
vt 0.716145 0.700993
vt 0.529305 0.717836
vt 0.716145 0.700993
vt 0.716145 0.997163
vt 0.541481 0.917432
vt 0.357858 0.535637
vt 0.120928 0.543414
vt 0.04588 0.746485
vt 0.04588 0.746485
vt 0.429418 0.751206
vt 0.357858 0.535637
vt 0.541481 0.917432
vt 0.541481 0.781107
vt 0.716145 0.700993
vt 0.541481 0.917432
vt 0.716145 0.997163
vt 0.529273 0.998399
vt 0.120928 0.543414
vt 0.050031 0.506275
vt 0.04588 0.746485
vt 0.357858 0.535637
vt 0.429418 0.751206
vt 0.429391 0.513532
vt 0.541481 0.781107
vt 0.529305 0.717836
vt 0.716145 0.700993
vt 0.148856 0.500496
vt 0.148856 0.720542
vt 0.379965 0.500496
vt 0.379965 0.720542
vt 0.379965 0.500496
vt 0.148856 0.720542
vt 0.148856 0.720542
vt 0.148856 0.500496
vt 0.379965 0.500496
vt 0.379965 0.500496
vt 0.379965 0.720542
vt 0.148856 0.720542
vt 0.556525 0.276834
vt 0.72372 0.276834
vt 0.640122 0.311462
vt 0.556525 0.276834
vt 0.72372 0.109639
vt 0.72372 0.276834
vt 0.72372 0.276834
vt 0.72372 0.109639
vt 0.758347 0.193237
vt 0.640122 0.075012
vt 0.72372 0.109639
vt 0.556525 0.109639
vt 0.556525 0.109639
vt 0.556525 0.276834
vt 0.521897 0.193237
vt 0.556525 0.109639
vt 0.72372 0.109639
vt 0.556525 0.276834
vt 0.945133 0.776407
vt 0.956355 0.776407
vt 0.956355 0.866092
vt 0.945133 0.776407
vt 0.956355 0.866092
vt 0.945133 0.866092
vt 0.933911 0.7763
vt 0.945133 0.776407
vt 0.945133 0.866092
vt 0.933911 0.7763
vt 0.945133 0.866092
vt 0.933911 0.865766
vt 0.92269 0.776407
vt 0.933911 0.7763
vt 0.933911 0.865766
vt 0.92269 0.776407
vt 0.933911 0.865766
vt 0.92269 0.866092
vt 0.911468 0.776407
vt 0.92269 0.776407
vt 0.92269 0.866092
vt 0.911468 0.776407
vt 0.92269 0.866092
vt 0.911468 0.866092
vt 0.900246 0.776407
vt 0.911468 0.776407
vt 0.911468 0.866092
vt 0.900246 0.776407
vt 0.911468 0.866092
vt 0.900246 0.866092
vt 0.889024 0.776407
vt 0.900246 0.776407
vt 0.900246 0.866092
vt 0.889024 0.776407
vt 0.900246 0.866092
vt 0.889024 0.866092
vt 0.967577 0.776407
vt 0.978799 0.776407
vt 0.978799 0.866092
vt 0.967577 0.776407
vt 0.978799 0.866092
vt 0.967577 0.866092
vt 0.956355 0.776407
vt 0.967577 0.776407
vt 0.967577 0.866092
vt 0.956355 0.776407
vt 0.967577 0.866092
vt 0.956355 0.866092
vt 0.72372 0.109639
vt 0.556525 0.109639
vt 0.72372 0.276834
vt 0.72372 0.109639
vt 0.72372 0.276834
vt 0.758347 0.193237
vt 0.640122 0.075012
vt 0.556525 0.109639
vt 0.72372 0.109639
vt 0.556525 0.276834
vt 0.556525 0.109639
vt 0.521897 0.193237
vt 0.72372 0.276834
vt 0.556525 0.109639
vt 0.556525 0.276834
vt 0.72372 0.276834
vt 0.556525 0.276834
vt 0.640122 0.311462
vt 0.556525 0.276834
vt 0.72372 0.276834
vt 0.640122 0.311462
vt 0.556525 0.276834
vt 0.72372 0.109639
vt 0.72372 0.276834
vt 0.72372 0.276834
vt 0.72372 0.109639
vt 0.758347 0.193237
vt 0.640122 0.075012
vt 0.72372 0.109639
vt 0.556525 0.109639
vt 0.556525 0.109639
vt 0.556525 0.276834
vt 0.521897 0.193237
vt 0.556525 0.109639
vt 0.72372 0.109639
vt 0.556525 0.276834
vt 0.945133 0.776407
vt 0.956355 0.776407
vt 0.956355 0.866092
vt 0.945133 0.776407
vt 0.956355 0.866092
vt 0.945133 0.866092
vt 0.933911 0.7763
vt 0.945133 0.776407
vt 0.945133 0.866092
vt 0.933911 0.7763
vt 0.945133 0.866092
vt 0.933911 0.865766
vt 0.92269 0.776407
vt 0.933911 0.7763
vt 0.933911 0.865766
vt 0.92269 0.776407
vt 0.933911 0.865766
vt 0.92269 0.866092
vt 0.911468 0.776407
vt 0.92269 0.776407
vt 0.92269 0.866092
vt 0.911468 0.776407
vt 0.92269 0.866092
vt 0.911468 0.866092
vt 0.900246 0.776407
vt 0.911468 0.776407
vt 0.911468 0.866092
vt 0.900246 0.776407
vt 0.911468 0.866092
vt 0.900246 0.866092
vt 0.889024 0.776407
vt 0.900246 0.776407
vt 0.900246 0.866092
vt 0.889024 0.776407
vt 0.900246 0.866092
vt 0.889024 0.866092
vt 0.967577 0.776407
vt 0.978799 0.776407
vt 0.978799 0.866092
vt 0.967577 0.776407
vt 0.978799 0.866092
vt 0.967577 0.866092
vt 0.956355 0.776407
vt 0.967577 0.776407
vt 0.967577 0.866092
vt 0.956355 0.776407
vt 0.967577 0.866092
vt 0.956355 0.866092
vt 0.72372 0.109639
vt 0.556525 0.109639
vt 0.72372 0.276834
vt 0.72372 0.109639
vt 0.72372 0.276834
vt 0.758347 0.193237
vt 0.640122 0.075012
vt 0.556525 0.109639
vt 0.72372 0.109639
vt 0.556525 0.276834
vt 0.556525 0.109639
vt 0.521897 0.193237
vt 0.72372 0.276834
vt 0.556525 0.109639
vt 0.556525 0.276834
vt 0.72372 0.276834
vt 0.556525 0.276834
vt 0.640122 0.311462
vt 0.72372 0.276834
vt 0.72372 0.109639
vt 0.758347 0.193237
vt 0.640122 0.075012
vt 0.72372 0.109639
vt 0.72372 0.276834
vt 0.640122 0.311462
vt 0.640122 0.075012
vt 0.72372 0.276834
vt 0.945133 0.776407
vt 0.956355 0.776407
vt 0.956355 0.866092
vt 0.945133 0.776407
vt 0.956355 0.866092
vt 0.945133 0.866092
vt 0.933911 0.7763
vt 0.945133 0.776407
vt 0.945133 0.866092
vt 0.933911 0.7763
vt 0.945133 0.866092
vt 0.933911 0.865766
vt 0.92269 0.776407
vt 0.933911 0.7763
vt 0.933911 0.865766
vt 0.92269 0.776407
vt 0.933911 0.865766
vt 0.92269 0.866092
vt 0.911468 0.776407
vt 0.92269 0.776407
vt 0.92269 0.866092
vt 0.911468 0.776407
vt 0.92269 0.866092
vt 0.911468 0.866092
vt 0.72372 0.109639
vt 0.640122 0.075012
vt 0.72372 0.276834
vt 0.72372 0.109639
vt 0.72372 0.276834
vt 0.758347 0.193237
vt 0.72372 0.276834
vt 0.640122 0.075012
vt 0.640122 0.311462
vt 0.72372 0.276834
vt 0.72372 0.109639
vt 0.758347 0.193237
vt 0.640122 0.075012
vt 0.72372 0.109639
vt 0.72372 0.276834
vt 0.640122 0.311462
vt 0.640122 0.075012
vt 0.72372 0.276834
vt 0.945133 0.776407
vt 0.956355 0.776407
vt 0.956355 0.866092
vt 0.945133 0.776407
vt 0.956355 0.866092
vt 0.945133 0.866092
vt 0.933911 0.7763
vt 0.945133 0.776407
vt 0.945133 0.866092
vt 0.933911 0.7763
vt 0.945133 0.866092
vt 0.933911 0.865766
vt 0.92269 0.776407
vt 0.933911 0.7763
vt 0.933911 0.865766
vt 0.92269 0.776407
vt 0.933911 0.865766
vt 0.92269 0.866092
vt 0.911468 0.776407
vt 0.92269 0.776407
vt 0.92269 0.866092
vt 0.911468 0.776407
vt 0.92269 0.866092
vt 0.911468 0.866092
vt 0.72372 0.109639
vt 0.640122 0.075012
vt 0.72372 0.276834
vt 0.72372 0.109639
vt 0.72372 0.276834
vt 0.758347 0.193237
vt 0.72372 0.276834
vt 0.640122 0.075012
vt 0.640122 0.311462
vt 0.328107 0.778509
vt 0.190053 0.778509
vt 0.128522 0.746474
vt 0.128522 0.746474
vt 0.389638 0.746474
vt 0.328107 0.778509
vt 0.190101 0.517446
vt 0.190101 0.714387
vt 0.128522 0.746474
vt 0.128522 0.746474
vt 0.12857 0.48541
vt 0.190101 0.517446
vt 0.190101 0.714387
vt 0.328155 0.714387
vt 0.389638 0.746474
vt 0.389638 0.746474
vt 0.128522 0.746474
vt 0.190101 0.714387
vt 0.328155 0.714387
vt 0.328155 0.517446
vt 0.389686 0.48541
vt 0.389686 0.48541
vt 0.389638 0.746474
vt 0.328155 0.714387
vt 0.135166 0.689622
vt 0.135166 0.496234
vt 0.107409 0.501536
vt 0.364013 0.689622
vt 0.391785 0.504856
vt 0.364013 0.496234
vt 0.028675 -0.001073
vt 0.106853 -0.00111
vt 0.134541 -0.001975
vt 0.391785 0.215001
vt 0.391788 -0.001111
vt 0.364017 -0.001975
vt 0.364017 -0.001975
vt 0.364013 0.206379
vt 0.391785 0.215001
vt 0.106853 -0.00111
vt 0.107409 0.211681
vt 0.135166 0.206379
vt 0.135166 0.206379
vt 0.134541 -0.001975
vt 0.106853 -0.00111
vt 0.135166 0.689622
vt 0.107409 0.501536
vt 0.028675 0.502207
vt 0.028675 0.502207
vt -0.000074 0.720495
vt 0.135166 0.689622
vt 0.391785 0.504856
vt 0.364013 0.689622
vt 0.498467 0.720495
vt 0.498467 0.720495
vt 0.470519 0.505526
vt 0.391785 0.504856
vt 0.364013 0.689622
vt 0.135166 0.689622
vt -0.000074 0.720495
vt -0.000074 0.720495
vt 0.498467 0.720495
vt 0.364013 0.689622
vt 0.391788 -0.001111
vt 0.391785 0.215001
vt 0.470519 0.215671
vt 0.470519 0.215671
vt 0.470519 -0.001073
vt 0.391788 -0.001111
vt 0.089647 0.211681
vt 0.089091 -0.00111
vt 0.01486 -0.001073
vt 0.01486 -0.001073
vt 0.01486 0.212352
vt 0.089647 0.211681
vt 0.751698 0.014755
vt 0.948092 0.005529
vt 0.945889 0.292295
vt 0.945889 0.292295
vt 0.786006 0.297115
vt 0.751698 0.014755
vt 0.948092 0.005529
vt 0.749245 0.01583
vt 0.786006 0.297115
vt 0.786006 0.297115
vt 0.945889 0.292295
vt 0.948092 0.005529
vt 0.364013 0.496234
vt 0.135166 0.496234
vt 0.135166 0.689622
vt 0.135166 0.689622
vt 0.364013 0.689622
vt 0.364013 0.496234
vt 0.135166 0.206379
vt 0.364013 0.206379
vt 0.364017 -0.001975
vt 0.364017 -0.001975
vt 0.134541 -0.001975
vt 0.135166 0.206379
vt 0.364013 0.689622
vt 0.363227 0.497577
vt 0.390983 0.500282
vt 0.135166 0.689622
vt 0.106608 0.503602
vt 0.134379 0.497577
vt 0.469718 0.288782
vt 0.39154 0.288745
vt 0.363852 0.28788
vt 0.106608 0.503602
vt 0.106605 0.288744
vt 0.134376 0.28788
vt 0.134376 0.28788
vt 0.134379 0.497577
vt 0.106608 0.503602
vt 0.39154 0.288745
vt 0.390983 0.500282
vt 0.363227 0.497577
vt 0.363227 0.497577
vt 0.363852 0.28788
vt 0.39154 0.288745
vt 0.364013 0.689622
vt 0.390983 0.500282
vt 0.469717 0.500953
vt 0.469717 0.500953
vt 0.498467 0.720495
vt 0.364013 0.689622
vt 0.106608 0.503602
vt 0.135166 0.689622
vt -0.000074 0.720495
vt -0.000074 0.720495
vt 0.027873 0.504272
vt 0.106608 0.503602
vt 0.135166 0.689622
vt 0.364013 0.689622
vt 0.498467 0.720495
vt 0.498467 0.720495
vt -0.000074 0.720495
vt 0.135166 0.689622
vt 0.098711 0.288744
vt 0.098713 0.503602
vt 0.019979 0.504272
vt 0.019979 0.504272
vt 0.019979 0.288782
vt 0.098711 0.288744
vt 0.390983 0.500282
vt 0.39154 0.288745
vt 0.469718 0.288782
vt 0.469718 0.288782
vt 0.469717 0.500953
vt 0.390983 0.500282
vt 0.04871 0.995949
vt 0.448871 0.995949
vt 0.498467 0.720495
vt 0.498467 0.720495
vt -0.000074 0.720495
vt 0.04871 0.995949
vt 0.582372 0.401865
vt 0.580403 0.67286
vt 0.782068 0.707954
vt 0.782068 0.707954
vt 0.786006 0.297115
vt 0.582372 0.401865
vt 0.448871 0.995949
vt 0.04871 0.995949
vt -0.000074 0.720495
vt -0.000074 0.720495
vt 0.498467 0.720495
vt 0.448871 0.995949
vt 0.580403 0.67286
vt 0.582372 0.401865
vt 0.786006 0.297115
vt 0.786006 0.297115
vt 0.782068 0.707954
vt 0.580403 0.67286
vt 0.799116 0.990306
vt 0.948092 0.994712
vt 0.94589 0.710364
vt 0.94589 0.710364
vt 0.782068 0.707954
vt 0.799116 0.990306
vt 0.948092 0.994712
vt 0.796663 0.98923
vt 0.782068 0.707954
vt 0.782068 0.707954
vt 0.94589 0.710364
vt 0.948092 0.994712
vt 0.767166 0.730383
vt 0.767166 0.995463
vt 0.53565 0.995463
vt 0.53565 0.995463
vt 0.53565 0.730383
vt 0.767166 0.730383
vt 0.786006 0.297115
vt 0.782068 0.707954
vt 0.94589 0.710364
vt 0.94589 0.710364
vt 0.945889 0.292295
vt 0.786006 0.297115
vt 0.363227 0.497577
vt 0.134379 0.497577
vt 0.134376 0.28788
vt 0.134376 0.28788
vt 0.363852 0.28788
vt 0.363227 0.497577
vt 0.782068 0.707954
vt 0.786006 0.297115
vt 0.945889 0.292295
vt 0.945889 0.292295
vt 0.94589 0.710364
vt 0.782068 0.707954
vt 0.190101 0.714387
vt 0.190101 0.517446
vt 0.328155 0.517446
vt 0.328155 0.517446
vt 0.328155 0.714387
vt 0.190101 0.714387

# 510 Vertex Normals
vn -0.024464 -0.999561 0.016727
vn -0.021009 -0.999373 0.028492
vn -0.019718 -0.999669 0.01651
vn -0.021009 -0.999373 0.028492
vn -0.024464 -0.999561 0.016727
vn -0.02532 -0.999264 0.028809
vn -0.024464 -0.999561 0.016727
vn -0.019718 -0.999669 0.01651
vn -0.183223 -0.90165 0.391734
vn 0.132468 -0.923543 -0.359888
vn -0.111986 -0.604111 -0.788993
vn -0.021009 -0.999373 0.028492
vn -0.021009 -0.999373 0.028492
vn -0.02532 -0.999264 0.028809
vn 0.132468 -0.923543 -0.359888
vn -0.183223 -0.90165 0.391734
vn 0.108415 -0.578279 0.808604
vn -0.024464 -0.999561 0.016727
vn -0.183223 -0.90165 0.391734
vn -0.019718 -0.999669 0.01651
vn -0.017964 -0.999385 0.030109
vn -0.111986 -0.604111 -0.788993
vn -0.014559 -0.99944 0.030141
vn -0.021009 -0.999373 0.028492
vn 0.132468 -0.923543 -0.359888
vn -0.02532 -0.999264 0.028809
vn -0.026916 -0.99952 0.015341
vn 0.108415 -0.578279 0.808604
vn -0.031553 -0.999378 0.015733
vn -0.024464 -0.999561 0.016727
vn -0.022696 -0.999609 0.016332
vn -0.022696 -0.999609 0.016332
vn -0.022696 -0.999609 0.016332
vn -0.022696 -0.999609 0.016332
vn -0.022696 -0.999609 0.016332
vn -0.022696 -0.999609 0.016332
vn 0.022696 0.999609 -0.016332
vn 0.022696 0.999609 -0.016332
vn -0.069677 0.996471 0.046813
vn -0.069677 0.996471 0.046813
vn 0.150878 0.988444 -0.014632
vn 0.022696 0.999609 -0.016332
vn 0.999723 -0.022794 -0.005852
vn 0.999723 -0.022794 -0.005852
vn 0.999723 -0.022793 -0.00585
vn 0.999723 -0.022794 -0.005852
vn 0.999723 -0.022794 -0.005854
vn 0.999723 -0.022794 -0.005852
vn 0.999723 -0.022794 -0.005852
vn 0.999723 -0.022794 -0.005854
vn 0.999723 -0.022796 -0.005853
vn 0.999723 -0.022793 -0.005856
vn 0.999723 -0.022794 -0.005854
vn 0.999723 -0.022794 -0.005854
vn 0.999723 -0.022794 -0.005854
vn 0.999723 -0.022794 -0.005852
vn 0.999723 -0.022796 -0.005853
vn 0.999723 -0.022794 -0.005854
vn 0.999723 -0.022794 -0.005854
vn 0.999723 -0.022794 -0.005852
vn -0.018752 -0.621288 -0.783358
vn -0.003205 0.114525 -0.993415
vn -0.009402 -0.158883 -0.987253
vn -0.018752 -0.621288 -0.783358
vn -0.009402 -0.158883 -0.987253
vn -0.021903 -0.810286 -0.585626
vn -0.023314 -0.993159 -0.11442
vn -0.018752 -0.621288 -0.783358
vn -0.021903 -0.810286 -0.585626
vn -0.023314 -0.993159 -0.11442
vn -0.021903 -0.810286 -0.585626
vn -0.021573 -0.987034 0.159053
vn -0.014219 -0.783251 0.621543
vn -0.023314 -0.993159 -0.11442
vn -0.021573 -0.987034 0.159053
vn -0.014219 -0.783251 0.621543
vn -0.021573 -0.987034 0.159053
vn -0.008606 -0.585592 0.81056
vn 0.003205 -0.114525 0.993415
vn -0.014219 -0.783251 0.621543
vn -0.008606 -0.585592 0.81056
vn 0.003205 -0.114525 0.993415
vn -0.008606 -0.585592 0.81056
vn 0.009402 0.158882 0.987253
vn 0.018752 0.621288 0.783358
vn 0.003205 -0.114525 0.993415
vn 0.009402 0.158882 0.987253
vn 0.018752 0.621288 0.783358
vn 0.009402 0.158882 0.987253
vn 0.021903 0.810286 0.585626
vn 0.023314 0.993159 0.11442
vn 0.018752 0.621288 0.783358
vn 0.021903 0.810286 0.585626
vn 0.023314 0.993159 0.11442
vn 0.021903 0.810286 0.585626
vn 0.021573 0.987034 -0.159053
vn 0.014219 0.783251 -0.621543
vn 0.023314 0.993159 0.11442
vn 0.021573 0.987034 -0.159053
vn 0.014219 0.783251 -0.621543
vn 0.021573 0.987034 -0.159053
vn 0.008606 0.585592 -0.81056
vn -0.003205 0.114525 -0.993415
vn 0.014219 0.783251 -0.621543
vn 0.008606 0.585592 -0.81056
vn -0.003205 0.114525 -0.993415
vn 0.008606 0.585592 -0.81056
vn -0.009402 -0.158883 -0.987253
vn -0.999723 0.022794 0.005854
vn -0.999723 0.022794 0.005853
vn -0.999723 0.022795 0.005853
vn -0.999723 0.022794 0.005854
vn -0.999723 0.022795 0.005853
vn -0.999723 0.022796 0.005853
vn -0.999723 0.022793 0.005856
vn -0.999723 0.022794 0.005853
vn -0.999723 0.022794 0.005854
vn -0.999723 0.022794 0.005852
vn -0.999723 0.022794 0.005853
vn -0.999723 0.022793 0.005852
vn -0.999723 0.022795 0.005853
vn -0.999723 0.022794 0.005853
vn -0.999723 0.022794 0.005852
vn -0.999723 0.022795 0.005853
vn -0.999723 0.022794 0.005852
vn -0.999723 0.022795 0.005853
vn 0.999723 -0.022793 -0.005854
vn 0.999723 -0.022793 -0.005854
vn 0.999723 -0.022793 -0.005856
vn 0.999723 -0.022793 -0.005854
vn 0.999723 -0.022794 -0.005852
vn 0.999723 -0.022793 -0.005854
vn 0.999723 -0.022793 -0.005854
vn 0.999723 -0.022794 -0.005852
vn 0.999723 -0.022794 -0.005852
vn 0.999723 -0.022794 -0.005852
vn 0.999723 -0.022794 -0.005852
vn 0.999723 -0.022794 -0.005853
vn 0.999723 -0.022794 -0.005853
vn 0.999723 -0.022793 -0.005854
vn 0.999723 -0.022793 -0.005853
vn 0.999723 -0.022794 -0.005853
vn 0.999723 -0.022794 -0.005852
vn 0.999723 -0.022793 -0.005854
vn -0.018752 -0.621288 -0.783358
vn -0.003205 0.114525 -0.993415
vn -0.009402 -0.158882 -0.987253
vn -0.018752 -0.621288 -0.783358
vn -0.009402 -0.158882 -0.987253
vn -0.021903 -0.810286 -0.585626
vn -0.023314 -0.993159 -0.11442
vn -0.018752 -0.621288 -0.783358
vn -0.021903 -0.810286 -0.585626
vn -0.023314 -0.993159 -0.11442
vn -0.021903 -0.810286 -0.585626
vn -0.021573 -0.987034 0.159053
vn -0.014219 -0.783251 0.621543
vn -0.023314 -0.993159 -0.11442
vn -0.021573 -0.987034 0.159053
vn -0.014219 -0.783251 0.621543
vn -0.021573 -0.987034 0.159053
vn -0.008606 -0.585592 0.81056
vn 0.003205 -0.114525 0.993415
vn -0.014219 -0.783251 0.621543
vn -0.008606 -0.585592 0.81056
vn 0.003205 -0.114525 0.993415
vn -0.008606 -0.585592 0.81056
vn 0.009402 0.158882 0.987253
vn 0.018752 0.621288 0.783358
vn 0.003205 -0.114525 0.993415
vn 0.009402 0.158882 0.987253
vn 0.018752 0.621288 0.783358
vn 0.009402 0.158882 0.987253
vn 0.021903 0.810286 0.585625
vn 0.023314 0.993159 0.11442
vn 0.018752 0.621288 0.783358
vn 0.021903 0.810286 0.585625
vn 0.023314 0.993159 0.11442
vn 0.021903 0.810286 0.585625
vn 0.021574 0.987034 -0.159053
vn 0.014219 0.783251 -0.621543
vn 0.023314 0.993159 0.11442
vn 0.021574 0.987034 -0.159053
vn 0.014219 0.783251 -0.621543
vn 0.021574 0.987034 -0.159053
vn 0.008606 0.585591 -0.810561
vn -0.003205 0.114525 -0.993415
vn 0.014219 0.783251 -0.621543
vn 0.008606 0.585591 -0.810561
vn -0.003205 0.114525 -0.993415
vn 0.008606 0.585591 -0.810561
vn -0.009402 -0.158882 -0.987253
vn -0.999723 0.022794 0.005854
vn -0.999723 0.022794 0.005853
vn -0.999723 0.022794 0.005853
vn -0.999723 0.022794 0.005854
vn -0.999723 0.022794 0.005853
vn -0.999723 0.022793 0.005853
vn -0.999723 0.022794 0.005854
vn -0.999723 0.022794 0.005853
vn -0.999723 0.022794 0.005854
vn -0.999723 0.022795 0.005853
vn -0.999723 0.022794 0.005853
vn -0.999723 0.022796 0.005853
vn -0.999723 0.022794 0.005853
vn -0.999723 0.022794 0.005853
vn -0.999723 0.022795 0.005853
vn -0.999723 0.022794 0.005853
vn -0.999723 0.022795 0.005853
vn -0.999723 0.022794 0.005851
vn 0.999723 -0.022795 -0.005853
vn 0.999723 -0.022796 -0.005853
vn 0.999723 -0.022798 -0.005853
vn 0.999723 -0.022794 -0.005853
vn 0.999723 -0.022796 -0.005853
vn 0.999723 -0.022795 -0.005853
vn 0.999723 -0.022795 -0.005853
vn 0.999723 -0.022794 -0.005853
vn 0.999723 -0.022795 -0.005853
vn -0.019641 -0.671133 -0.741077
vn -0.015247 -0.437868 -0.89891
vn -0.015247 -0.437868 -0.89891
vn -0.019641 -0.671133 -0.741077
vn -0.015247 -0.437868 -0.89891
vn -0.022653 -0.864708 -0.501764
vn -0.023139 -0.997429 -0.06783
vn -0.019641 -0.671133 -0.741077
vn -0.022653 -0.864708 -0.501764
vn -0.023139 -0.997429 -0.06783
vn -0.022653 -0.864708 -0.501764
vn -0.02199 -0.993385 0.112702
vn -0.016021 -0.841372 0.540219
vn -0.023139 -0.997429 -0.06783
vn -0.02199 -0.993385 0.112702
vn -0.016021 -0.841372 0.540219
vn -0.02199 -0.993385 0.112702
vn -0.010019 -0.637279 0.770568
vn -0.003683 -0.397184 0.917732
vn -0.016021 -0.841372 0.540219
vn -0.010019 -0.637279 0.770568
vn -0.003683 -0.397184 0.917732
vn -0.010019 -0.637279 0.770568
vn -0.003683 -0.397184 0.917732
vn -0.999723 0.022794 0.005853
vn -0.999723 0.022794 0.005853
vn -0.999723 0.022794 0.005853
vn -0.999723 0.022794 0.005853
vn -0.999723 0.022794 0.005853
vn -0.999723 0.022794 0.005853
vn -0.999723 0.022794 0.005853
vn -0.999723 0.022794 0.005853
vn -0.999723 0.022795 0.005853
vn 0.999723 -0.022794 -0.005853
vn 0.999723 -0.022795 -0.005853
vn 0.999723 -0.022798 -0.005853
vn 0.999723 -0.022792 -0.005853
vn 0.999723 -0.022795 -0.005853
vn 0.999723 -0.022794 -0.005853
vn 0.999723 -0.022792 -0.005853
vn 0.999723 -0.022792 -0.005853
vn 0.999723 -0.022794 -0.005853
vn -0.019641 -0.671132 -0.741077
vn -0.015246 -0.437867 -0.89891
vn -0.015246 -0.437867 -0.89891
vn -0.019641 -0.671132 -0.741077
vn -0.015246 -0.437867 -0.89891
vn -0.022653 -0.864708 -0.501764
vn -0.023139 -0.997429 -0.06783
vn -0.019641 -0.671132 -0.741077
vn -0.022653 -0.864708 -0.501764
vn -0.023139 -0.997429 -0.06783
vn -0.022653 -0.864708 -0.501764
vn -0.02199 -0.993385 0.112702
vn -0.016021 -0.841372 0.540219
vn -0.023139 -0.997429 -0.06783
vn -0.02199 -0.993385 0.112702
vn -0.016021 -0.841372 0.540219
vn -0.02199 -0.993385 0.112702
vn -0.010019 -0.637278 0.770568
vn -0.003683 -0.397183 0.917732
vn -0.016021 -0.841372 0.540219
vn -0.010019 -0.637278 0.770568
vn -0.003683 -0.397183 0.917732
vn -0.010019 -0.637278 0.770568
vn -0.003683 -0.397183 0.917732
vn -0.999723 0.022795 0.005853
vn -0.999723 0.022792 0.005853
vn -0.999723 0.022794 0.005853
vn -0.999723 0.022795 0.005853
vn -0.999723 0.022794 0.005853
vn -0.999723 0.022797 0.005853
vn -0.999723 0.022794 0.005853
vn -0.999723 0.022792 0.005853
vn -0.999723 0.022792 0.005853
vn -0.049452 0.935958 -0.348622
vn 0.240625 0.941623 -0.235471
vn 0.405877 0.831416 -0.379488
vn 0.405877 0.831416 -0.379488
vn -0.270891 0.90154 -0.337407
vn -0.049452 0.935958 -0.348622
vn 0.240625 0.941623 -0.235471
vn 0.133283 0.944369 0.300672
vn 0.355206 0.802464 0.479458
vn 0.355206 0.802464 0.479458
vn 0.405877 0.831416 -0.379488
vn 0.240625 0.941623 -0.235471
vn 0.133283 0.944369 0.300672
vn -0.195405 0.966528 0.166257
vn -0.389252 0.787673 0.477551
vn -0.389252 0.787673 0.477551
vn 0.355206 0.802464 0.479458
vn 0.133283 0.944369 0.300672
vn -0.195405 0.966528 0.166257
vn -0.049452 0.935958 -0.348622
vn -0.270891 0.90154 -0.337407
vn -0.270891 0.90154 -0.337407
vn -0.389252 0.787673 0.477551
vn -0.195405 0.966528 0.166257
vn 0.188655 0.981627 -0.028614
vn 0.465597 0.2499 -0.848982
vn 0.408738 0.391525 -0.824404
vn -0.180892 0.983129 0.027117
vn -0.48239 0.596259 -0.641697
vn -0.350317 0.638992 -0.684811
vn -0.026916 -0.99952 0.015341
vn 0.466316 -0.736342 -0.490254
vn 0.132468 -0.923543 -0.359888
vn -0.58019 0.113534 -0.806529
vn -0.258427 0.021698 -0.965787
vn -0.283842 -0.04395 -0.957863
vn -0.257782 -0.501 -0.826164
vn -0.350317 0.638992 -0.684811
vn -0.58019 0.113534 -0.806529
vn 0.421145 -0.020453 -0.906762
vn 0.424554 0.116376 -0.897892
vn 0.465597 0.2499 -0.848982
vn 0.465597 0.2499 -0.848982
vn 0.132468 -0.923543 -0.359888
vn 0.388335 -0.350048 -0.852445
vn 0.188655 0.981627 -0.028614
vn 0.571318 0.820165 -0.030425
vn 0.017054 0.996103 0.086538
vn -0.692158 0.718592 0.067397
vn -0.561189 0.82749 -0.018102
vn 0.188655 0.981627 -0.028614
vn -0.335505 0.941498 0.031904
vn -0.180892 0.983129 0.027117
vn 0.349916 0.928263 -0.126039
vn 0.179215 0.975066 -0.130876
vn 0.017716 0.994687 0.101406
vn -0.335505 0.941498 0.031904
vn -0.180892 0.983129 0.027117
vn 0.188655 0.981627 -0.028614
vn -0.280022 0.959692 -0.024067
vn -0.280022 0.959692 -0.024067
vn 0.179215 0.975066 -0.130876
vn -0.180892 0.983129 0.027117
vn -0.258427 0.021698 -0.965787
vn -0.58019 0.113534 -0.806529
vn -0.008224 0.016379 -0.999832
vn -0.008224 0.016379 -0.999832
vn -0.006781 0.015774 -0.999853
vn -0.258427 0.021698 -0.965787
vn 0.424554 0.116376 -0.897892
vn 0.421145 -0.020453 -0.906762
vn -0.002855 0.011766 -0.999927
vn -0.002855 0.011766 -0.999927
vn -0.001433 0.011161 -0.999937
vn 0.424554 0.116376 -0.897892
vn -0.884863 0.463251 0.049147
vn -0.999707 0.022767 0.008214
vn -0.999682 0.024092 0.007397
vn -0.999682 0.024092 0.007397
vn -0.837992 0.54528 0.020962
vn -0.884863 0.463251 0.049147
vn 0.999715 -0.022668 -0.007455
vn 0.999713 -0.022769 -0.007391
vn 0.995785 0.091314 -0.008615
vn 0.995785 0.091314 -0.008615
vn 0.999726 -0.022539 -0.006295
vn 0.999715 -0.022668 -0.007455
vn -0.350317 0.638992 -0.684811
vn 0.465597 0.2499 -0.848982
vn 0.188655 0.981627 -0.028614
vn 0.188655 0.981627 -0.028614
vn -0.180892 0.983129 0.027117
vn -0.350317 0.638992 -0.684811
vn 0.465597 0.2499 -0.848982
vn -0.350317 0.638992 -0.684811
vn -0.257782 -0.501 -0.826164
vn -0.257782 -0.501 -0.826164
vn 0.132468 -0.923543 -0.359888
vn 0.465597 0.2499 -0.848982
vn -0.069677 0.996471 0.046813
vn -0.430116 0.355994 0.82962
vn -0.331559 0.4919 0.805048
vn 0.150878 0.988444 -0.014632
vn 0.461517 0.618186 0.636277
vn 0.350034 0.678039 0.646328
vn -0.017964 -0.999385 0.030109
vn -0.527689 -0.692351 0.492132
vn -0.183223 -0.90165 0.391734
vn 0.461517 0.618186 0.636277
vn 0.278618 0.063822 0.958279
vn 0.318814 -0.016324 0.947677
vn 0.266369 -0.480231 0.835719
vn 0.350034 0.678039 0.646328
vn 0.588167 0.194666 0.784962
vn -0.448371 0.046164 0.892655
vn -0.331559 0.4919 0.805048
vn -0.430116 0.355994 0.82962
vn -0.430116 0.355994 0.82962
vn -0.183223 -0.90165 0.391734
vn -0.429454 -0.290273 0.855168
vn -0.069677 0.996471 0.046813
vn -0.331559 0.4919 0.805048
vn 0.04517 0.881294 0.470404
vn 0.660745 0.636628 0.397643
vn 0.646699 0.757456 0.089671
vn -0.069677 0.996471 0.046813
vn 0.428979 0.74633 0.50889
vn 0.150878 0.988444 -0.014632
vn -0.682235 0.684075 0.258062
vn -0.148298 0.93637 0.318148
vn 0.022101 0.493396 0.869524
vn 0.428979 0.74633 0.50889
vn 0.150878 0.988444 -0.014632
vn -0.069677 0.996471 0.046813
vn 0.373984 0.922822 0.092382
vn 0.373984 0.922822 0.092382
vn -0.148298 0.93637 0.318148
vn 0.150878 0.988444 -0.014632
vn 0.278618 0.063822 0.958279
vn 0.461517 0.618186 0.636277
vn -0.362859 0.451651 0.815074
vn -0.362859 0.451651 0.815074
vn -0.85427 0.054402 0.516976
vn 0.278618 0.063822 0.958279
vn -0.331559 0.4919 0.805048
vn -0.448371 0.046164 0.892655
vn 0.435167 0.050653 0.898924
vn 0.435167 0.050653 0.898924
vn 0.660745 0.636628 0.397643
vn -0.331559 0.4919 0.805048
vn -0.270891 0.90154 -0.337407
vn 0.405877 0.831416 -0.379488
vn 0.179215 0.975066 -0.130876
vn 0.179215 0.975066 -0.130876
vn -0.280022 0.959692 -0.024067
vn -0.270891 0.90154 -0.337407
vn 0.405877 0.831416 -0.379488
vn 0.355206 0.802464 0.479458
vn 0.646699 0.757456 0.089671
vn 0.646699 0.757456 0.089671
vn 0.691465 0.715285 -0.101208
vn 0.405877 0.831416 -0.379488
vn 0.355206 0.802464 0.479458
vn -0.389252 0.787673 0.477551
vn -0.477389 0.821739 0.311198
vn -0.477389 0.821739 0.311198
vn 0.529101 0.842621 0.100214
vn 0.355206 0.802464 0.479458
vn -0.389252 0.787673 0.477551
vn -0.270891 0.90154 -0.337407
vn -0.561189 0.82749 -0.018102
vn -0.561189 0.82749 -0.018102
vn -0.682235 0.684075 0.258062
vn -0.389252 0.787673 0.477551
vn 0.797409 0.392133 0.458662
vn 0.435167 0.050653 0.898924
vn 0.999048 -0.020742 0.038375
vn 0.999048 -0.020742 0.038375
vn 0.814485 0.544001 0.201686
vn 0.797409 0.392133 0.458662
vn -0.85427 0.054402 0.516976
vn -0.419819 0.075315 0.904478
vn -0.815542 0.47101 0.336216
vn -0.815542 0.47101 0.336216
vn -0.998327 0.02377 0.052714
vn -0.85427 0.054402 0.516976
vn 0.350034 0.678039 0.646328
vn -0.430116 0.355994 0.82962
vn -0.069677 0.996471 0.046813
vn -0.069677 0.996471 0.046813
vn 0.150878 0.988444 -0.014632
vn 0.350034 0.678039 0.646328
vn 0.995785 0.091314 -0.008615
vn 0.881553 0.471714 0.018719
vn 0.999048 -0.020742 0.038375
vn 0.999048 -0.020742 0.038375
vn 0.999726 -0.022539 -0.006295
vn 0.959191 0.282571 0.010357
vn -0.430116 0.355994 0.82962
vn 0.350034 0.678039 0.646328
vn 0.266369 -0.480231 0.835719
vn 0.266369 -0.480231 0.835719
vn -0.183223 -0.90165 0.391734
vn -0.430116 0.355994 0.82962
vn -0.939662 0.338575 0.049011
vn -0.837992 0.54528 0.020962
vn -0.999682 0.024092 0.007397
vn -0.999682 0.024092 0.007397
vn -0.998327 0.02377 0.052714
vn -0.939662 0.338575 0.049011
vn 0.133283 0.944369 0.300672
vn 0.240625 0.941623 -0.235471
vn -0.049452 0.935958 -0.348622
vn -0.049452 0.935958 -0.348622
vn -0.195405 0.966528 0.166257
vn 0.133283 0.944369 0.300672

# (unnamed)_0, 170 grouped triangles

usemtl (unnamed)_0
o (unnamed)_0
g (unnamed)_0

f 1/1/1 2/2/2 3/3/3
f 2/4/4 1/5/5 4/6/6
f 1/7/7 3/8/8 5/9/9
f 6/10/10 7/11/11 2/12/12
f 2/13/13 4/14/14 6/15/15
f 5/16/16 8/17/17 1/18/18
f 5/19/19 3/20/20 9/21/21
f 7/22/22 10/23/23 2/24/24
f 6/25/25 4/26/26 11/27/27
f 8/28/28 12/29/29 1/30/30
f 13/31/31 14/32/32 15/33/33
f 16/34/34 15/35/35 14/36/36
f 14/37/37 13/38/38 15/39/39
f 15/40/40 16/41/41 14/42/42
f 17/43/43 18/44/44 19/45/45
f 17/46/46 20/47/47 18/48/48
f 18/49/49 20/50/50 21/51/51
f 22/52/52 20/53/53 23/54/54
f 23/55/55 17/56/56 24/57/57
f 23/58/58 20/59/59 17/60/60
f 25/61/61 26/62/62 19/63/63
f 25/64/64 19/65/65 18/66/66
f 27/67/67 25/68/68 18/69/69
f 27/70/70 18/71/71 21/72/72
f 28/73/73 27/74/74 21/75/75
f 28/76/76 21/77/77 20/78/78
f 29/79/79 28/80/80 20/81/81
f 29/82/82 20/83/83 22/84/84
f 30/85/85 29/86/86 22/87/87
f 30/88/88 22/89/89 23/90/90
f 31/91/91 30/92/92 23/93/93
f 31/94/94 23/95/95 24/96/96
f 32/97/97 31/98/98 24/99/99
f 32/100/100 24/101/101 17/102/102
f 26/103/103 32/104/104 17/105/105
f 26/106/106 17/107/107 19/108/108
f 28/109/109 30/110/110 25/111/111
f 28/112/112 25/113/113 27/114/114
f 29/115/115 30/116/116 28/117/117
f 32/118/118 30/119/119 31/120/120
f 25/121/121 30/122/122 32/123/123
f 25/124/124 32/125/125 26/126/126
f 33/127/127 34/128/128 35/129/129
f 33/130/130 36/131/131 34/132/132
f 34/133/133 36/134/134 37/135/135
f 38/136/136 36/137/137 39/138/138
f 39/139/139 33/140/140 40/141/141
f 39/142/142 36/143/143 33/144/144
f 41/145/145 42/146/146 35/147/147
f 41/148/148 35/149/149 34/150/150
f 43/151/151 41/152/152 34/153/153
f 43/154/154 34/155/155 37/156/156
f 44/157/157 43/158/158 37/159/159
f 44/160/160 37/161/161 36/162/162
f 45/163/163 44/164/164 36/165/165
f 45/166/166 36/167/167 38/168/168
f 46/169/169 45/170/170 38/171/171
f 46/172/172 38/173/173 39/174/174
f 47/175/175 46/176/176 39/177/177
f 47/178/178 39/179/179 40/180/180
f 48/181/181 47/182/182 40/183/183
f 48/184/184 40/185/185 33/186/186
f 42/187/187 48/188/188 33/189/189
f 42/190/190 33/191/191 35/192/192
f 44/193/193 46/194/194 41/195/195
f 44/196/196 41/197/197 43/198/198
f 45/199/199 46/200/200 44/201/201
f 48/202/202 46/203/203 47/204/204
f 41/205/205 46/206/206 48/207/207
f 41/208/208 48/209/209 42/210/210
f 49/211/211 50/212/212 51/213/213
f 52/214/214 50/215/215 49/216/216
f 53/217/217 52/218/218 49/219/219
f 54/220/220 55/221/221 53/222/222
f 54/223/223 53/224/224 49/225/225
f 56/226/226 54/227/227 49/228/228
f 56/229/229 49/230/230 51/231/231
f 57/232/232 56/233/233 51/234/234
f 57/235/235 51/236/236 50/237/237
f 58/238/238 57/239/239 50/240/240
f 58/241/241 50/242/242 52/243/243
f 57/244/244 58/245/245 54/246/246
f 57/247/247 54/248/248 56/249/249
f 54/250/250 58/251/251 55/252/252
f 59/253/253 60/254/254 61/255/255
f 62/256/256 60/257/257 59/258/258
f 63/259/259 62/260/260 59/261/261
f 64/262/262 65/263/263 63/264/264
f 64/265/265 63/266/266 59/267/267
f 66/268/268 64/269/269 59/270/270
f 66/271/271 59/272/272 61/273/273
f 67/274/274 66/275/275 61/276/276
f 67/277/277 61/278/278 60/279/279
f 68/280/280 67/281/281 60/282/282
f 68/283/283 60/284/284 62/285/285
f 67/286/286 68/287/287 64/288/288
f 67/289/289 64/290/290 66/291/291
f 64/292/292 68/293/293 65/294/294
f 69/295/295 70/296/296 71/297/297
f 71/298/298 72/299/299 69/300/300
f 70/301/301 73/302/302 74/303/303
f 74/304/304 71/305/305 70/306/306
f 73/307/307 75/308/308 76/309/309
f 76/310/310 74/311/311 73/312/312
f 75/313/313 69/314/314 72/315/315
f 72/316/316 76/317/317 75/318/318
f 77/319/319 78/320/320 79/321/321
f 80/322/322 81/323/323 82/324/324
f 11/325/325 83/326/326 6/327/327
f 81/328/328 84/329/329 7/330/330
f 7/331/331 82/332/332 81/333/333
f 83/334/334 79/335/335 78/336/336
f 78/337/337 6/338/338 83/339/339
f 77/340/340 79/341/341 85/342/342
f 85/343/343 86/344/344 77/345/345
f 81/346/346 80/347/347 87/348/348
f 87/349/349 88/350/350 81/351/351
f 80/352/352 77/353/353 86/354/354
f 86/355/355 87/356/356 80/357/357
f 84/358/358 81/359/359 88/360/360
f 88/361/361 10/362/362 84/363/363
f 79/364/364 83/365/365 11/366/366
f 11/367/367 85/368/368 79/369/369
f 85/370/370 11/371/371 4/372/372
f 4/373/373 86/374/374 85/375/375
f 10/376/376 88/377/377 87/378/378
f 87/379/379 2/380/380 10/381/381
f 82/382/382 78/383/383 77/384/384
f 77/385/385 80/386/386 82/387/387
f 78/388/388 82/389/389 7/390/390
f 7/391/391 6/392/392 78/393/393
f 15/394/394 89/395/395 90/396/396
f 16/397/397 91/398/398 92/399/399
f 9/400/400 93/401/401 5/402/402
f 91/403/403 94/404/404 8/405/405
f 8/406/406 92/407/407 91/408/408
f 93/409/409 90/410/410 89/411/411
f 89/412/412 5/413/413 93/414/414
f 15/415/415 90/416/416 95/417/417
f 95/418/418 96/419/419 15/420/420
f 91/421/421 16/422/422 97/423/423
f 97/424/424 98/425/425 91/426/426
f 16/427/427 15/428/428 96/429/429
f 96/430/430 97/431/431 16/432/432
f 94/433/433 91/434/434 98/435/435
f 98/436/436 12/437/437 94/438/438
f 90/439/439 93/440/440 9/441/441
f 9/442/442 95/443/443 90/444/444
f 72/445/445 71/446/446 87/447/447
f 87/448/448 86/449/449 72/450/450
f 71/451/451 74/452/452 96/453/453
f 96/454/454 87/455/455 71/456/456
f 74/457/457 76/458/458 97/459/459
f 97/460/460 96/461/461 74/462/462
f 76/463/463 72/464/464 86/465/465
f 86/466/466 97/467/467 76/468/468
f 95/469/469 9/470/470 3/471/471
f 3/472/472 96/473/473 95/474/474
f 12/475/475 98/476/476 97/477/477
f 97/478/478 1/479/479 12/480/480
f 92/481/481 89/482/482 15/483/483
f 15/484/484 16/485/485 92/486/486
f 87/487/487 96/488/488 3/489/489
f 3/490/490 2/491/491 87/492/492
f 89/493/493 92/494/494 8/495/495
f 8/496/496 5/497/497 89/498/498
f 97/499/499 86/500/500 4/501/501
f 4/502/502 1/503/503 97/504/504
f 73/505/505 70/506/506 69/507/507
f 69/508/508 75/509/509 73/510/510
