# Blender v2.79 (sub 0) OBJ File: 'gSwing.dae'
# www.blender.org
mtllib tire swing.mtl
o gTire
v 0.881592 2.103760 -0.881592
v 0.881104 0.611328 -0.881104
v 1.246582 2.103760 -0.000000
v 1.245850 0.611328 -0.000000
v 0.881592 2.103760 0.881592
v 0.881104 0.611328 0.881103
v 0.000000 2.103760 1.246582
v 0.000000 0.611328 1.245850
v -0.881592 2.103760 0.881592
v -0.881104 0.611328 0.881103
v -1.246582 2.103760 -0.000000
v -1.245850 0.611328 -0.000000
v -0.881592 2.103760 -0.881592
v -0.881104 0.611328 -0.881104
v 0.000000 2.103760 -1.246582
v 0.000000 0.611328 -1.245850
v 0.881592 2.103760 -0.881592
v 0.881104 0.611328 -0.881104
v 1.729492 0.842773 -1.729492
v 1.729492 1.880371 -1.729492
v 2.446045 0.842773 -0.000000
v 2.446045 1.880371 -0.000000
v 1.729492 0.842774 1.729492
v 1.729492 1.880371 1.729492
v 0.000000 0.842774 2.446045
v 0.000000 1.880371 2.446045
v -1.729492 0.842774 1.729492
v -1.729492 1.880371 1.729492
v -2.446045 0.842773 -0.000000
v -2.446045 1.880371 -0.000000
v -1.729492 0.842773 -1.729492
v -1.729492 1.880371 -1.729492
v 0.000000 0.842773 -2.446045
v 0.000000 1.880371 -2.446045
v 1.729492 0.842773 -1.729492
v 1.729492 1.880371 -1.729492
v 2.446045 0.842773 -0.000000
v 1.245850 0.611328 -0.000000
v 1.729492 0.842773 -1.729492
v 0.881104 0.611328 -0.881104
v 0.000000 0.842773 -2.446045
v 0.000000 0.611328 -1.245850
v -1.729492 0.842773 -1.729492
v -0.881104 0.611328 -0.881104
v -2.446045 0.842773 -0.000000
v -1.245850 0.611328 -0.000000
v -1.729492 0.842774 1.729492
v -0.881104 0.611328 0.881103
v 0.000000 0.842774 2.446045
v 0.000000 0.611328 1.245850
v 1.729492 0.842774 1.729492
v 0.881104 0.611328 0.881103
v 2.446045 0.842773 -0.000000
v 1.245850 0.611328 -0.000000
v 1.246582 2.103760 -0.000000
v 2.446045 1.880371 -0.000000
v 0.881592 2.103760 -0.881592
v 1.729492 1.880371 -1.729492
v 0.000000 2.103760 -1.246582
v 0.000000 1.880371 -2.446045
v -0.881592 2.103760 -0.881592
v -1.729492 1.880371 -1.729492
v -1.246582 2.103760 -0.000000
v -2.446045 1.880371 -0.000000
v -0.881592 2.103760 0.881592
v -1.729492 1.880371 1.729492
v 0.000000 2.103760 1.246582
v 0.000000 1.880371 2.446045
v 0.881592 2.103760 0.881592
v 1.729492 1.880371 1.729492
v 1.246582 2.103760 -0.000000
v 2.446045 1.880371 -0.000000
v 0.212402 1.884521 -2.278076
v 0.212402 7.768311 -0.012208
v -0.212402 7.768311 -0.012208
v -0.212402 1.884521 -2.278076
v -1.485596 1.882080 1.790771
v 0.161377 7.782715 0.143798
v -0.143799 7.782715 -0.161378
v -1.790772 1.882080 1.485596
v 1.780273 1.885987 1.453125
v 0.183350 7.677002 -0.143799
v -0.143799 7.677002 0.183349
v 1.453125 1.885987 1.780273
vt 0.275391 0.619141
vt 0.130859 0.619141
vt 0.130859 0.542969
vt 0.275391 0.542969
vt 0.130859 0.466797
vt 0.275391 0.466797
vt 0.130859 0.390625
vt 0.275391 0.390625
vt 0.130859 0.314453
vt 0.275391 0.314453
vt 0.130859 0.236328
vt 0.275391 0.236328
vt 0.130859 0.160156
vt 0.275391 0.160156
vt 0.130859 0.083984
vt 0.275391 0.083984
vt 0.130859 0.007812
vt 0.275391 0.007812
vt 0.121094 1.498047
vt 0.003906 1.498047
vt 0.003906 1.253906
vt 0.121094 1.253906
vt 0.003906 1.003906
vt 0.121094 1.003906
vt 0.003906 0.751953
vt 0.121094 0.751953
vt 0.003906 0.500000
vt 0.121094 0.500000
vt 0.003906 0.250000
vt 0.121094 0.250000
vt 0.003906 -0.001953
vt 0.121094 -0.001953
vt 0.003906 -0.251953
vt 0.121094 -0.251953
vt 0.003906 -0.503906
vt 0.121094 -0.503906
vt 0.892578 0.312500
vt 0.640625 0.300781
vt 0.630859 0.326172
vt 0.804688 0.523438
vt 0.603516 0.335938
vt 0.593750 0.611328
vt 0.578125 0.326172
vt 0.380859 0.523438
vt 0.566406 0.300781
vt 0.292969 0.312500
vt 0.578125 0.273438
vt 0.380859 0.099609
vt 0.603516 0.263672
vt 0.593750 0.011719
vt 0.630859 0.273438
vt 0.804688 0.099609
vt 0.640625 0.300781
vt 0.892578 0.312500
vt 0.640625 0.300781
vt 0.892578 0.312500
vt 0.804688 0.523438
vt 0.630859 0.326172
vt 0.593750 0.611328
vt 0.603516 0.335938
vt 0.380859 0.523438
vt 0.578125 0.326172
vt 0.292969 0.312500
vt 0.566406 0.300781
vt 0.380859 0.099609
vt 0.578125 0.273438
vt 0.593750 0.011719
vt 0.603516 0.263672
vt 0.804688 0.099609
vt 0.630859 0.273438
vt 0.892578 0.312500
vt 0.640625 0.300781
vt 0.996094 0.000000
vt 0.996094 1.000000
vt 0.910156 1.000000
vt 0.910156 0.000000
vt 0.998047 0.000000
vt 0.998047 1.000000
vt 0.908203 1.000000
vt 0.908203 0.000000
vt 0.998047 0.000000
vt 0.998047 1.000000
vt 0.908203 1.000000
vt 0.908203 0.000000
vn -0.9240 0.0004 0.3825
vn -0.9240 0.0004 -0.3825
vn -0.3825 0.0004 -0.9240
vn 0.3825 0.0004 -0.9240
vn 0.9240 0.0004 -0.3825
vn 0.9240 0.0004 0.3825
vn 0.3825 0.0004 0.9240
vn -0.3825 0.0004 0.9240
vn 0.9238 -0.0000 -0.3828
vn 0.9238 0.0000 0.3828
vn 0.3828 0.0000 0.9238
vn -0.3828 0.0000 0.9238
vn -0.9238 0.0000 0.3828
vn -0.9238 -0.0000 -0.3828
vn -0.3828 -0.0000 -0.9238
vn 0.3828 -0.0000 -0.9238
vn 0.1888 -0.9789 -0.0782
vn 0.0782 -0.9789 -0.1888
vn -0.0782 -0.9789 -0.1888
vn -0.1888 -0.9789 -0.0782
vn -0.1888 -0.9789 0.0782
vn -0.0782 -0.9789 0.1888
vn 0.0782 -0.9789 0.1888
vn 0.1888 -0.9789 0.0782
vn 0.1826 0.9803 -0.0756
vn 0.0756 0.9803 -0.1826
vn -0.0756 0.9803 -0.1826
vn -0.1826 0.9803 -0.0756
vn -0.1826 0.9803 0.0756
vn -0.0756 0.9803 0.1826
vn 0.0756 0.9803 0.1826
vn 0.1826 0.9803 0.0756
vn 0.0000 -0.3594 0.9332
vn -0.6577 0.3672 0.6577
vn 0.6588 0.3633 0.6588
usemtl lambert3.001
s off
f 1/1/1 2/2/1 4/3/1 3/4/1
f 3/4/2 4/3/2 6/5/2 5/6/2
f 5/6/3 6/5/3 8/7/3 7/8/3
f 7/8/4 8/7/4 10/9/4 9/10/4
f 9/10/5 10/9/5 12/11/5 11/12/5
f 11/12/6 12/11/6 14/13/6 13/14/6
f 13/14/7 14/13/7 16/15/7 15/16/7
f 15/16/8 16/15/8 18/17/8 17/18/8
f 19/19/9 20/20/9 22/21/9 21/22/9
f 21/22/10 22/21/10 24/23/10 23/24/10
f 23/24/11 24/23/11 26/25/11 25/26/11
f 25/26/12 26/25/12 28/27/12 27/28/12
f 27/28/13 28/27/13 30/29/13 29/30/13
f 29/30/14 30/29/14 32/31/14 31/32/14
f 31/32/15 32/31/15 34/33/15 33/34/15
f 33/34/16 34/33/16 36/35/16 35/36/16
f 37/37/17 38/38/17 40/39/17 39/40/17
f 39/40/18 40/39/18 42/41/18 41/42/18
f 41/42/19 42/41/19 44/43/19 43/44/19
f 43/44/20 44/43/20 46/45/20 45/46/20
f 45/46/21 46/45/21 48/47/21 47/48/21
f 47/48/22 48/47/22 50/49/22 49/50/22
f 49/50/23 50/49/23 52/51/23 51/52/23
f 51/52/24 52/51/24 54/53/24 53/54/24
f 55/55/25 56/56/25 58/57/25 57/58/25
f 57/58/26 58/57/26 60/59/26 59/60/26
f 59/60/27 60/59/27 62/61/27 61/62/27
f 61/62/28 62/61/28 64/63/28 63/64/28
f 63/64/29 64/63/29 66/65/29 65/66/29
f 65/66/30 66/65/30 68/67/30 67/68/30
f 67/68/31 68/67/31 70/69/31 69/70/31
f 69/70/32 70/69/32 72/71/32 71/72/32
f 73/73/33 74/74/33 75/75/33 76/76/33
f 77/77/34 78/78/34 79/79/34 80/80/34
f 81/81/35 82/82/35 83/83/35 84/84/35
o gSwing
v -3.483398 -0.229981 -1.154785
v -3.483398 8.871094 -0.624024
v -3.483398 -0.229980 1.154785
v -3.483398 8.871094 0.624023
v -3.941406 -0.229980 1.154785
v -3.941406 8.871094 0.624023
v -3.941406 -0.229981 -1.154785
v -3.941406 8.871094 -0.624024
v -3.483398 -0.229981 -1.154785
v -3.483398 8.871094 -0.624024
v 3.554199 8.871094 -0.624024
v 3.554199 -0.229981 -1.154785
v 3.554199 8.871094 0.624023
v 3.554199 -0.229980 1.154785
v 4.011719 8.871094 0.624023
v 4.011719 -0.229980 1.154785
v 4.011719 8.871094 -0.624024
v 4.011719 -0.229981 -1.154785
v 3.554199 8.871094 -0.624024
v 3.554199 -0.229981 -1.154785
v -3.734375 8.660156 0.161620
v 3.734375 8.660156 0.161620
v -3.734375 8.660156 -0.161622
v 3.734375 8.660156 -0.161622
v -3.734375 8.445801 -0.000001
v 3.734375 8.445801 -0.000001
v -3.734375 8.660156 0.161620
v 3.734375 8.660156 0.161620
v -0.183594 7.733398 -0.000001
v 0.183594 7.733398 -0.000001
v 0.183594 8.505371 -0.000001
v -0.183594 8.505371 -0.000001
v -3.941406 8.871094 0.624023
v -3.483398 8.871094 0.624023
v -3.483398 8.871094 -0.624024
v -3.941406 8.871094 -0.624024
v 4.011719 8.871094 0.624023
v 4.011719 8.871094 -0.624024
v 3.554199 8.871094 -0.624024
v 3.554199 8.871094 0.624023
vt 0.130859 0.628906
vt 0.843750 0.628906
vt 0.843750 0.750000
vt 0.130859 0.750000
vt 0.843750 0.812500
vt 0.130859 0.812500
vt 0.843750 0.937500
vt 0.130859 0.937500
vt 0.843750 0.998047
vt 0.130859 0.998047
vt 0.843750 0.628906
vt 0.130859 0.628906
vt 0.130859 0.750000
vt 0.843750 0.750000
vt 0.130859 0.812500
vt 0.843750 0.812500
vt 0.130859 0.937500
vt 0.843750 0.937500
vt 0.130859 0.998047
vt 0.843750 0.998047
vt 0.941406 0.613281
vt 0.966797 0.613281
vt 0.966797 0.650391
vt 0.941406 0.650391
vt 0.966797 0.632812
vt 0.941406 0.632812
vt 0.966797 0.613281
vt 0.941406 0.613281
vt 0.910156 0.416016
vt 0.998047 0.416016
vt 0.998047 0.218750
vt 0.910156 0.218750
vt 0.843750 0.812500
vt 0.902344 0.812500
vt 0.902344 0.937500
vt 0.843750 0.937500
vt 0.843750 0.812500
vt 0.843750 0.937500
vt 0.902344 0.937500
vt 0.902344 0.812500
vn 1.0000 -0.0000 0.0000
vn 0.0000 0.0582 0.9983
vn -1.0000 0.0000 0.0000
vn 0.0000 0.0582 -0.9983
vn 0.0000 1.0000 0.0000
vn 0.0000 -0.6020 -0.7985
vn 0.0000 -0.6020 0.7985
vn 0.0000 0.0000 1.0000
usemtl lambert3
s off
f 85/85/36 86/86/36 88/87/36 87/88/36
f 87/88/37 88/87/37 90/89/37 89/90/37
f 89/90/38 90/89/38 92/91/38 91/92/38
f 91/92/39 92/91/39 94/93/39 93/94/39
f 95/95/38 96/96/38 98/97/38 97/98/38
f 97/98/37 98/97/37 100/99/37 99/100/37
f 99/100/36 100/99/36 102/101/36 101/102/36
f 101/102/39 102/101/39 104/103/39 103/104/39
f 105/105/40 106/106/40 108/107/40 107/108/40
f 107/108/41 108/107/41 110/109/41 109/110/41
f 109/110/42 110/109/42 112/111/42 111/112/42
f 113/113/43 114/114/43 115/115/43 116/116/43
f 117/117/40 118/118/40 119/119/40 120/120/40
f 121/121/40 122/122/40 123/123/40 124/124/40
